<svg width="80" height="80" viewBox="0 0 80 80" fill="none" xmlns="http://www.w3.org/2000/svg">
<circle cx="39.9996" cy="40" r="40" fill="#C19DF7" style="fill:#C19DF7;fill:color(display-p3 0.7569 0.6157 0.9686);fill-opacity:1;"/>
<g filter="url(#filter0_ii_12141_2420)" data-figma-bg-blur-radius="4">
<path d="M56.3341 28.7408C57.7691 28.7408 58.9324 29.9041 58.9324 31.3391V36.5297C58.9324 37.4867 58.4146 38.3223 57.6443 38.7732C57.671 38.9226 57.6857 39.0762 57.6857 39.2333V56.8889C57.6857 58.3239 56.5224 59.4872 55.0874 59.4872H24.9673C23.5323 59.4872 22.369 58.3239 22.369 56.8889L22.369 39.2333C22.369 38.9863 22.404 38.7475 22.4684 38.5212C21.8999 38.0445 21.538 37.3296 21.538 36.5297V31.3391C21.538 29.9041 22.7013 28.7408 24.1363 28.7408H56.3341Z" fill="white" fill-opacity="0.4" style="fill:white;fill-opacity:0.4;"/>
<path d="M43.9814 25.2716C45.9795 22.5984 48.7112 19.3702 51.6429 20.9135C52.791 21.518 53.698 22.5623 53.8989 23.8248C54.4733 27.4365 52.8108 28.454 51.8282 28.7408H30.0972C30.0173 28.6547 29.9283 28.5752 29.8343 28.5056C29.0031 27.8908 27.5916 26.425 28.1685 23.8248C28.4404 22.5998 29.3292 21.5726 30.4356 20.9612C33.3364 19.3583 36.0879 22.5983 38.086 25.2716L38.7251 26.1271C38.9074 26.371 39.2562 26.4046 39.4804 26.1998L39.6562 26.0395C40.44 25.3238 41.6275 25.3238 42.4113 26.0395L42.587 26.1998C42.8112 26.4045 43.1594 26.3708 43.3419 26.1271L43.9814 25.2716Z" fill="white" fill-opacity="0.4" style="fill:white;fill-opacity:0.4;"/>
</g>
<defs>
<filter id="filter0_ii_12141_2420" x="17.538" y="16.5128" width="45.3944" height="46.9744" filterUnits="userSpaceOnUse" color-interpolation-filters="sRGB">
<feFlood flood-opacity="0" result="BackgroundImageFix"/>
<feBlend mode="normal" in="SourceGraphic" in2="BackgroundImageFix" result="shape"/>
<feColorMatrix in="SourceAlpha" type="matrix" values="0 0 0 0 0 0 0 0 0 0 0 0 0 0 0 0 0 0 127 0" result="hardAlpha"/>
<feOffset/>
<feGaussianBlur stdDeviation="2"/>
<feComposite in2="hardAlpha" operator="arithmetic" k2="-1" k3="1"/>
<feColorMatrix type="matrix" values="0 0 0 0 1 0 0 0 0 1 0 0 0 0 1 0 0 0 1 0"/>
<feBlend mode="normal" in2="shape" result="effect1_innerShadow_12141_2420"/>
<feColorMatrix in="SourceAlpha" type="matrix" values="0 0 0 0 0 0 0 0 0 0 0 0 0 0 0 0 0 0 127 0" result="hardAlpha"/>
<feOffset dy="4"/>
<feGaussianBlur stdDeviation="4"/>
<feComposite in2="hardAlpha" operator="arithmetic" k2="-1" k3="1"/>
<feColorMatrix type="matrix" values="0 0 0 0 1 0 0 0 0 1 0 0 0 0 1 0 0 0 1 0"/>
<feBlend mode="normal" in2="effect1_innerShadow_12141_2420" result="effect2_innerShadow_12141_2420"/>
</filter>
<clipPath id="bgblur_0_12141_2420_clip_path" transform="translate(-17.538 -16.5128)"><path d="M56.3341 28.7408C57.7691 28.7408 58.9324 29.9041 58.9324 31.3391V36.5297C58.9324 37.4867 58.4146 38.3223 57.6443 38.7732C57.671 38.9226 57.6857 39.0762 57.6857 39.2333V56.8889C57.6857 58.3239 56.5224 59.4872 55.0874 59.4872H24.9673C23.5323 59.4872 22.369 58.3239 22.369 56.8889L22.369 39.2333C22.369 38.9863 22.404 38.7475 22.4684 38.5212C21.8999 38.0445 21.538 37.3296 21.538 36.5297V31.3391C21.538 29.9041 22.7013 28.7408 24.1363 28.7408H56.3341Z"/>
<path d="M43.9814 25.2716C45.9795 22.5984 48.7112 19.3702 51.6429 20.9135C52.791 21.518 53.698 22.5623 53.8989 23.8248C54.4733 27.4365 52.8108 28.454 51.8282 28.7408H30.0972C30.0173 28.6547 29.9283 28.5752 29.8343 28.5056C29.0031 27.8908 27.5916 26.425 28.1685 23.8248C28.4404 22.5998 29.3292 21.5726 30.4356 20.9612C33.3364 19.3583 36.0879 22.5983 38.086 25.2716L38.7251 26.1271C38.9074 26.371 39.2562 26.4046 39.4804 26.1998L39.6562 26.0395C40.44 25.3238 41.6275 25.3238 42.4113 26.0395L42.587 26.1998C42.8112 26.4045 43.1594 26.3708 43.3419 26.1271L43.9814 25.2716Z"/>
</clipPath></defs>
</svg>
