<svg width="179" height="134" viewBox="0 0 179 134" fill="none" xmlns="http://www.w3.org/2000/svg">
<path d="M76.9633 13.1745C59.3569 -4.39149 30.8112 -4.39149 13.2048 13.1745C-4.4016 30.7404 -4.4016 59.2205 13.2048 76.7865L29.2955 92.7095C20.4308 83.8651 20.4308 69.5255 29.2955 60.6811C37.5517 52.4439 50.6947 52.0771 59.8534 60.161L76.7401 77.0089C85.6049 85.8533 99.9775 85.8533 108.842 77.0089C117.707 68.1645 117.707 53.8249 108.842 44.9805L76.9633 13.1745Z" fill="#FF698A" style="fill:#FF698A;fill:color(display-p3 1.0000 0.4118 0.5412);fill-opacity:1;"/>
<path d="M165.244 13.1745C147.638 -4.39149 119.092 -4.39149 101.485 13.1745L89.2243 25.4075L108.842 44.9805C117.707 53.8249 117.707 68.1645 108.842 77.0089C107.734 78.1144 106.54 79.0818 105.281 79.9109C96.4704 85.7151 84.4968 84.7477 76.7401 77.0089L59.8534 60.161C50.7515 52.1273 37.7147 52.4397 29.4498 60.5286C29.3982 60.5791 29.3468 60.63 29.2955 60.6811C22.647 67.3144 20.9848 77.0388 24.3091 85.2176C25.4172 87.9439 27.0794 90.4985 29.2956 92.7095L55.1343 118.489C55.1997 118.554 55.2653 118.619 55.3313 118.683C55.9748 119.414 56.646 120.128 57.345 120.826C74.9514 138.391 103.497 138.391 121.103 120.826L165.244 76.7865C182.85 59.2205 182.85 30.7404 165.244 13.1745Z" fill="#FF91A9" style="fill:#FF91A9;fill:color(display-p3 1.0000 0.5690 0.6639);fill-opacity:1;"/>
</svg>
