<svg width="283" height="212" viewBox="0 0 283 212" fill="none" xmlns="http://www.w3.org/2000/svg">
<path d="M122.15 20.9928C94.3456 -6.74729 49.2664 -6.74729 21.4624 20.9928C-6.34163 48.733 -6.34163 93.7086 21.4624 121.449L46.8728 146.594C32.8736 132.627 32.8736 109.982 46.8728 96.0152C59.911 83.007 80.6663 82.4278 95.1297 95.1938L121.797 121.8C135.796 135.767 158.494 135.767 172.493 121.8C186.492 107.833 186.492 85.1879 172.493 71.2208L122.15 20.9928Z" fill="#FF698A" style="fill:#FF698A;fill:color(display-p3 1.0000 0.4118 0.5412);fill-opacity:1;"/>
<path d="M261.562 20.9928C233.758 -6.74729 188.679 -6.74729 160.875 20.9928L141.512 40.3113L172.493 71.2208C186.492 85.1879 186.492 107.833 172.493 121.8C170.743 123.546 168.857 125.074 166.869 126.383C152.955 135.549 134.047 134.021 121.797 121.8L95.1297 95.1938C80.7561 82.507 60.1685 83.0003 47.1166 95.7744C47.035 95.8542 46.9538 95.9345 46.8729 96.0152C36.3735 106.491 33.7486 121.847 38.9983 134.763C40.7482 139.069 43.3731 143.103 46.8729 146.594L87.6774 187.305C87.7806 187.408 87.8843 187.51 87.9884 187.612C89.0046 188.765 90.0647 189.894 91.1685 190.995C118.973 218.735 164.052 218.735 191.856 190.995L261.562 121.449C289.366 93.7086 289.366 48.733 261.562 20.9928Z" fill="#FF91A9" style="fill:#FF91A9;fill:color(display-p3 1.0000 0.5690 0.6639);fill-opacity:1;"/>
</svg>
