<svg width="80" height="80" viewBox="0 0 80 80" fill="none" xmlns="http://www.w3.org/2000/svg">
<circle cx="39.9996" cy="40" r="40" fill="#C19DF7" style="fill:#C19DF7;fill:color(display-p3 0.7569 0.6157 0.9686);fill-opacity:1;"/>
<g filter="url(#filter0_ii_12141_2395)" data-figma-bg-blur-radius="4">
<path d="M65.9996 40C65.9996 43.2716 62.1698 45.0336 61.0669 47.9173C59.9468 50.8459 61.5379 54.8885 59.4996 57.1979C57.0285 59.9976 52.5955 59.0355 49.1342 60.5658C45.9223 61.9858 43.7373 66 39.9996 66C36.262 66 34.077 61.9858 30.8651 60.5658C27.4038 59.0355 22.9707 59.9976 20.4996 57.1979C18.4614 54.8885 20.0525 50.8459 18.9324 47.9173C17.8294 45.0336 13.9996 43.2716 13.9996 40C13.9996 36.7285 17.8294 34.9665 18.9324 32.0827C19.9265 29.4837 18.1001 25.7165 19.8271 23.5954C22.1246 20.7737 25.0023 21.6687 28.2783 20.0113C31.8003 18.2295 35.7828 14 39.9996 14C44.2165 14 48.1989 18.2295 51.7209 20.0113C54.997 21.6687 57.8747 20.7737 60.1722 23.5954C61.8992 25.7165 60.0728 29.4837 61.0669 32.0827C62.1698 34.9665 65.9996 36.7285 65.9996 40Z" fill="white" fill-opacity="0.4" style="fill:white;fill-opacity:0.4;"/>
</g>
<path fill-rule="evenodd" clip-rule="evenodd" d="M51.1404 28.8593C51.823 29.5419 51.823 30.6486 51.1404 31.3312L31.3309 51.1407C30.6483 51.8233 29.5416 51.8233 28.859 51.1407C28.1764 50.4581 28.1764 49.3514 28.859 48.6688L48.6685 28.8593C49.3511 28.1767 50.4578 28.1767 51.1404 28.8593Z" fill="#C19DF7" style="fill:#C19DF7;fill:color(display-p3 0.7569 0.6157 0.9686);fill-opacity:1;"/>
<path fill-rule="evenodd" clip-rule="evenodd" d="M46.9913 45.2437C46.026 45.2437 45.2434 46.0263 45.2434 46.9916C45.2434 47.957 46.026 48.7395 46.9913 48.7395C47.9566 48.7395 48.7392 47.957 48.7392 46.9916C48.7392 46.0263 47.9566 45.2437 46.9913 45.2437ZM41.7476 46.9916C41.7476 44.0956 44.0953 41.7479 46.9913 41.7479C49.8873 41.7479 52.235 44.0956 52.235 46.9916C52.235 49.8876 49.8873 52.2353 46.9913 52.2353C44.0953 52.2353 41.7476 49.8876 41.7476 46.9916Z" fill="#C19DF7" style="fill:#C19DF7;fill:color(display-p3 0.7569 0.6157 0.9686);fill-opacity:1;"/>
<path fill-rule="evenodd" clip-rule="evenodd" d="M33.0081 31.2605C32.0428 31.2605 31.2602 32.0431 31.2602 33.0084C31.2602 33.9738 32.0428 34.7563 33.0081 34.7563C33.9734 34.7563 34.756 33.9738 34.756 33.0084C34.756 32.0431 33.9734 31.2605 33.0081 31.2605ZM27.7644 33.0084C27.7644 30.1124 30.1121 27.7647 33.0081 27.7647C35.9041 27.7647 38.2518 30.1124 38.2518 33.0084C38.2518 35.9045 35.9041 38.2521 33.0081 38.2521C30.1121 38.2521 27.7644 35.9045 27.7644 33.0084Z" fill="#C19DF7" style="fill:#C19DF7;fill:color(display-p3 0.7569 0.6157 0.9686);fill-opacity:1;"/>
<defs>
<filter id="filter0_ii_12141_2395" x="9.99963" y="10" width="60" height="60" filterUnits="userSpaceOnUse" color-interpolation-filters="sRGB">
<feFlood flood-opacity="0" result="BackgroundImageFix"/>
<feBlend mode="normal" in="SourceGraphic" in2="BackgroundImageFix" result="shape"/>
<feColorMatrix in="SourceAlpha" type="matrix" values="0 0 0 0 0 0 0 0 0 0 0 0 0 0 0 0 0 0 127 0" result="hardAlpha"/>
<feOffset/>
<feGaussianBlur stdDeviation="4"/>
<feComposite in2="hardAlpha" operator="arithmetic" k2="-1" k3="1"/>
<feColorMatrix type="matrix" values="0 0 0 0 1 0 0 0 0 1 0 0 0 0 1 0 0 0 1 0"/>
<feBlend mode="normal" in2="shape" result="effect1_innerShadow_12141_2395"/>
<feColorMatrix in="SourceAlpha" type="matrix" values="0 0 0 0 0 0 0 0 0 0 0 0 0 0 0 0 0 0 127 0" result="hardAlpha"/>
<feOffset dy="4"/>
<feGaussianBlur stdDeviation="4"/>
<feComposite in2="hardAlpha" operator="arithmetic" k2="-1" k3="1"/>
<feColorMatrix type="matrix" values="0 0 0 0 1 0 0 0 0 1 0 0 0 0 1 0 0 0 1 0"/>
<feBlend mode="normal" in2="effect1_innerShadow_12141_2395" result="effect2_innerShadow_12141_2395"/>
</filter>
<clipPath id="bgblur_0_12141_2395_clip_path" transform="translate(-9.99963 -10)"><path d="M65.9996 40C65.9996 43.2716 62.1698 45.0336 61.0669 47.9173C59.9468 50.8459 61.5379 54.8885 59.4996 57.1979C57.0285 59.9976 52.5955 59.0355 49.1342 60.5658C45.9223 61.9858 43.7373 66 39.9996 66C36.262 66 34.077 61.9858 30.8651 60.5658C27.4038 59.0355 22.9707 59.9976 20.4996 57.1979C18.4614 54.8885 20.0525 50.8459 18.9324 47.9173C17.8294 45.0336 13.9996 43.2716 13.9996 40C13.9996 36.7285 17.8294 34.9665 18.9324 32.0827C19.9265 29.4837 18.1001 25.7165 19.8271 23.5954C22.1246 20.7737 25.0023 21.6687 28.2783 20.0113C31.8003 18.2295 35.7828 14 39.9996 14C44.2165 14 48.1989 18.2295 51.7209 20.0113C54.997 21.6687 57.8747 20.7737 60.1722 23.5954C61.8992 25.7165 60.0728 29.4837 61.0669 32.0827C62.1698 34.9665 65.9996 36.7285 65.9996 40Z"/>
</clipPath></defs>
</svg>
