<svg width="51" height="51" viewBox="0 0 51 51" fill="none" xmlns="http://www.w3.org/2000/svg">
<circle cx="25.0474" cy="25.9188" r="25" fill="#C19DF7" style="fill:#C19DF7;fill:color(display-p3 0.7569 0.6157 0.9686);fill-opacity:1;"/>
<g filter="url(#filter0_ii_12253_4024)">
<path d="M37.4646 32.9811C37.3539 32.8419 37.2452 32.7026 37.1386 32.5683C35.672 30.7155 34.7847 29.5973 34.7847 24.3524C34.7847 21.637 34.1627 19.4089 32.9368 17.7379C32.0328 16.5034 30.8109 15.5669 29.2003 14.8749C29.1591 14.8509 29.1389 14.8043 29.1253 14.7586C28.5299 12.7711 26.9605 11.4451 25.1932 11.4451C23.4254 11.4451 21.8564 12.7717 21.2613 14.7579C21.2479 14.8026 21.2276 14.8479 21.1873 14.8714C17.4289 16.4874 15.6023 19.5879 15.6023 24.3503C15.6023 29.5973 14.7163 30.7155 13.2484 32.5662C13.1417 32.7006 13.0331 32.837 12.9224 32.9791C12.6366 33.3391 12.4555 33.7772 12.4005 34.2414C12.3456 34.7056 12.4191 35.1765 12.6124 35.5984C13.0237 36.5035 13.9004 37.0654 14.901 37.0654H35.4927C36.4886 37.0654 37.3592 36.5042 37.7719 35.6033C37.966 35.1813 38.0403 34.7099 37.9858 34.2452C37.9313 33.7805 37.7504 33.3418 37.4646 32.9811Z" fill="white" fill-opacity="0.4" style="fill:white;fill-opacity:0.4;"/>
<path d="M25.1926 40.7255C26.3116 40.7246 27.4094 40.4255 28.3697 39.8599C29.33 39.2943 30.117 38.4834 30.6471 37.513C30.6721 37.4665 30.6844 37.4144 30.6829 37.3619C30.6814 37.3093 30.6662 37.258 30.6386 37.2129C30.611 37.1679 30.572 37.1306 30.5255 37.1048C30.479 37.0789 30.4264 37.0654 30.373 37.0654H20.0137C19.9603 37.0652 19.9076 37.0787 19.861 37.1045C19.8144 37.1303 19.7753 37.1675 19.7476 37.2126C19.7199 37.2577 19.7046 37.309 19.703 37.3617C19.7015 37.4143 19.7138 37.4665 19.7388 37.513C20.2689 38.4832 21.0557 39.2941 22.0159 39.8597C22.9761 40.4253 24.0738 40.7244 25.1926 40.7255Z" fill="white" fill-opacity="0.4" style="fill:white;fill-opacity:0.4;"/>
</g>
<defs>
<filter id="filter0_ii_12253_4024" x="8.38281" y="7.44507" width="33.6201" height="37.2804" filterUnits="userSpaceOnUse" color-interpolation-filters="sRGB">
<feFlood flood-opacity="0" result="BackgroundImageFix"/>
<feBlend mode="normal" in="SourceGraphic" in2="BackgroundImageFix" result="shape"/>
<feColorMatrix in="SourceAlpha" type="matrix" values="0 0 0 0 0 0 0 0 0 0 0 0 0 0 0 0 0 0 127 0" result="hardAlpha"/>
<feOffset/>
<feGaussianBlur stdDeviation="2"/>
<feComposite in2="hardAlpha" operator="arithmetic" k2="-1" k3="1"/>
<feColorMatrix type="matrix" values="0 0 0 0 1 0 0 0 0 1 0 0 0 0 1 0 0 0 1 0"/>
<feBlend mode="normal" in2="shape" result="effect1_innerShadow_12253_4024"/>
<feColorMatrix in="SourceAlpha" type="matrix" values="0 0 0 0 0 0 0 0 0 0 0 0 0 0 0 0 0 0 127 0" result="hardAlpha"/>
<feOffset dy="4"/>
<feGaussianBlur stdDeviation="4"/>
<feComposite in2="hardAlpha" operator="arithmetic" k2="-1" k3="1"/>
<feColorMatrix type="matrix" values="0 0 0 0 1 0 0 0 0 1 0 0 0 0 1 0 0 0 1 0"/>
<feBlend mode="normal" in2="effect1_innerShadow_12253_4024" result="effect2_innerShadow_12253_4024"/>
</filter>
</defs>
</svg>
