<svg width="122" height="54" viewBox="0 0 122 54" fill="none" xmlns="http://www.w3.org/2000/svg">
<path d="M84.8476 9.76692C78.4771 3.41103 68.1484 3.41103 61.7779 9.76692C55.4074 16.1228 55.4074 26.4277 61.7779 32.7836L67.6 38.5451C64.3925 35.3449 64.3925 30.1564 67.6 26.9562C70.5873 23.9758 75.3429 23.8431 78.6568 26.768L84.7669 32.8641C87.9744 36.0643 93.1749 36.0643 96.3824 32.8641C99.5899 29.6639 99.5899 24.4754 96.3824 21.2753L84.8476 9.76692Z" fill="#FF698A" style="fill:#FF698A;fill:color(display-p3 1.0000 0.4118 0.5412);fill-opacity:1;"/>
<path d="M116.79 9.76692C110.42 3.41103 100.091 3.41103 93.7205 9.76692L89.284 14.1932L96.3824 21.2753C99.5899 24.4754 99.5899 29.6639 96.3824 32.8641C95.9814 33.2641 95.5494 33.6142 95.0939 33.9142C91.9059 36.0143 87.5734 35.6643 84.7669 32.8641L78.6567 26.768C75.3634 23.8612 70.6463 23.9742 67.6558 26.9011C67.6371 26.9193 67.6185 26.9377 67.6 26.9562C65.1943 29.3564 64.5929 32.8749 65.7957 35.8343C66.1967 36.8207 66.7981 37.745 67.6 38.5451L76.9492 47.8728C76.9729 47.8964 76.9966 47.9199 77.0205 47.9431C77.2533 48.2074 77.4962 48.466 77.7491 48.7183C84.1196 55.0742 94.4483 55.0742 100.819 48.7183L116.79 32.7836C123.161 26.4277 123.161 16.1228 116.79 9.76692Z" fill="#FF91A9" style="fill:#FF91A9;fill:color(display-p3 1.0000 0.5690 0.6639);fill-opacity:1;"/>
<g clip-path="url(#clip0_12247_4467)">
<path d="M22.88 0.850582V56.8506H12.48V9.57058H0.64V0.850582H22.88ZM74.5487 48.0506V56.8506H33.2688V49.8906L55.5088 28.7706C58.0154 26.3706 59.6954 24.2906 60.5488 22.5306C61.4554 20.7173 61.9088 18.9306 61.9088 17.1706C61.9088 14.5573 61.0288 12.5573 59.2688 11.1706C57.5088 9.78392 54.9221 9.09059 51.5088 9.09059C45.8021 9.09059 41.4288 11.0373 38.3888 14.9306L31.1088 9.33058C33.2954 6.39725 36.2288 4.13058 39.9088 2.53058C43.6421 0.87725 47.8021 0.0505829 52.3888 0.0505829C58.4688 0.0505829 63.3221 1.49058 66.9488 4.37058C70.5754 7.25058 72.3888 11.1706 72.3888 16.1306C72.3888 19.1706 71.7488 22.0239 70.4688 24.6906C69.1888 27.3573 66.7354 30.3973 63.1088 33.8106L48.1488 48.0506H74.5487Z" fill="#333333" style="fill:#333333;fill:color(display-p3 0.2000 0.2000 0.2000);fill-opacity:1;"/>
</g>
<defs>
<clipPath id="clip0_12247_4467">
<rect width="97" height="54" fill="white" style="fill:white;fill-opacity:1;"/>
</clipPath>
</defs>
</svg>
