<svg width="445" height="106" viewBox="0 0 445 106" fill="none" xmlns="http://www.w3.org/2000/svg">
<path d="M356.863 25.7971C357.684 21.8384 361.172 19 365.215 19H432.707C436.75 19 440.237 21.8384 441.058 25.7971L444.853 44.0909C445.448 46.9623 442.036 48.9307 439.848 46.9776C436.963 44.4016 432.604 44.4016 429.719 46.9776L428.813 47.7864C425.412 50.8231 420.273 50.8231 416.872 47.7864C413.471 44.7497 408.332 44.7497 404.931 47.7864C401.53 50.8231 396.391 50.8231 392.99 47.7864C389.589 44.7497 384.45 44.7497 381.049 47.7864C377.648 50.8231 372.509 50.8231 369.108 47.7864L368.202 46.9776C365.317 44.4016 360.958 44.4016 358.073 46.9776C355.885 48.9307 352.473 46.9623 353.069 44.0909L356.863 25.7971Z" fill="url(#paint0_linear_14428_4421)" style=""/>
<path d="M429.719 50.3893C432.604 47.8139 436.963 47.8139 439.848 50.3893C439.865 50.4045 439.884 50.4179 439.901 50.4326V99.1763C439.901 102.945 436.846 106 433.078 106H364.843C361.075 106 358.02 102.945 358.02 99.1763V50.4326C358.037 50.4179 358.056 50.4045 358.073 50.3893C360.958 47.8139 365.317 47.8139 368.202 50.3893L369.108 51.1989C372.509 54.2355 377.648 54.2355 381.049 51.1989C384.45 48.1622 389.589 48.1622 392.99 51.1989C396.391 54.2355 401.53 54.2355 404.931 51.1989C408.332 48.1622 413.471 48.1622 416.872 51.1989C420.273 54.2355 425.412 54.2355 428.813 51.1989L429.719 50.3893Z" fill="url(#paint1_linear_14428_4421)" style=""/>
<path d="M45.76 1.85058V113.851H24.96V19.2906H1.28V1.85058H45.76ZM147.236 45.2106C163.023 45.2106 174.703 48.3039 182.276 54.4906C189.85 60.5706 193.636 68.8906 193.636 79.4506C193.636 86.1706 191.983 92.2506 188.676 97.6906C185.37 103.131 180.41 107.451 173.796 110.651C167.183 113.851 159.023 115.451 149.316 115.451C141.316 115.451 133.583 114.331 126.116 112.091C118.65 109.744 112.356 106.544 107.236 102.491L116.036 86.3306C120.196 89.7439 125.156 92.4639 130.916 94.4906C136.783 96.4106 142.81 97.3706 148.996 97.3706C156.356 97.3706 162.116 95.8773 166.276 92.8906C170.543 89.7973 172.676 85.5839 172.676 80.2506C172.676 74.4906 170.383 70.1706 165.796 67.2906C161.316 64.3039 153.583 62.8106 142.596 62.8106H115.556L121.316 1.85058H187.076V19.2906H138.916L136.516 45.2106H147.236ZM252.354 115.451C243.394 115.451 235.394 113.211 228.354 108.731C221.314 104.144 215.767 97.5306 211.714 88.8906C207.66 80.1439 205.634 69.7973 205.634 57.8506C205.634 45.9039 207.66 35.6106 211.714 26.9706C215.767 18.2239 221.314 11.6106 228.354 7.13058C235.394 2.54391 243.394 0.25058 252.354 0.25058C261.314 0.25058 269.314 2.54391 276.354 7.13058C283.5 11.6106 289.1 18.2239 293.154 26.9706C297.207 35.6106 299.234 45.9039 299.234 57.8506C299.234 69.7973 297.207 80.1439 293.154 88.8906C289.1 97.5306 283.5 104.144 276.354 108.731C269.314 113.211 261.314 115.451 252.354 115.451ZM252.354 97.3706C260.354 97.3706 266.647 94.0639 271.234 87.4506C275.927 80.8373 278.274 70.9706 278.274 57.8506C278.274 44.7306 275.927 34.8639 271.234 28.2506C266.647 21.6373 260.354 18.3306 252.354 18.3306C244.46 18.3306 238.167 21.6373 233.474 28.2506C228.887 34.8639 226.594 44.7306 226.594 57.8506C226.594 70.9706 228.887 80.8373 233.474 87.4506C238.167 94.0639 244.46 97.3706 252.354 97.3706ZM360.01 115.451C351.05 115.451 343.05 113.211 336.01 108.731C328.97 104.144 323.423 97.5306 319.37 88.8906C315.317 80.1439 313.29 69.7973 313.29 57.8506C313.29 45.9039 315.317 35.6106 319.37 26.9706C323.423 18.2239 328.97 11.6106 336.01 7.13058C343.05 2.54391 351.05 0.25058 360.01 0.25058C368.97 0.25058 376.97 2.54391 384.01 7.13058C391.157 11.6106 396.757 18.2239 400.81 26.9706C404.863 35.6106 406.89 45.9039 406.89 57.8506C406.89 69.7973 404.863 80.1439 400.81 88.8906C396.757 97.5306 391.157 104.144 384.01 108.731C376.97 113.211 368.97 115.451 360.01 115.451ZM360.01 97.3706C368.01 97.3706 374.303 94.0639 378.89 87.4506C383.583 80.8373 385.93 70.9706 385.93 57.8506C385.93 44.7306 383.583 34.8639 378.89 28.2506C374.303 21.6373 368.01 18.3306 360.01 18.3306C352.117 18.3306 345.823 21.6373 341.13 28.2506C336.543 34.8639 334.25 44.7306 334.25 57.8506C334.25 70.9706 336.543 80.8373 341.13 87.4506C345.823 94.0639 352.117 97.3706 360.01 97.3706Z" fill="#333333" style="fill:#333333;fill:color(display-p3 0.2000 0.2000 0.2000);fill-opacity:1;"/>
<defs>
<linearGradient id="paint0_linear_14428_4421" x1="398.961" y1="19" x2="398.961" y2="106" gradientUnits="userSpaceOnUse">
<stop stop-color="#FF91A9" style="stop-color:#FF91A9;stop-color:color(display-p3 1.0000 0.5686 0.6627);stop-opacity:1;"/>
<stop offset="1" stop-color="#FF698A" style="stop-color:#FF698A;stop-color:color(display-p3 1.0000 0.4118 0.5412);stop-opacity:1;"/>
</linearGradient>
<linearGradient id="paint1_linear_14428_4421" x1="398.961" y1="19" x2="398.961" y2="106" gradientUnits="userSpaceOnUse">
<stop stop-color="#FF91A9" style="stop-color:#FF91A9;stop-color:color(display-p3 1.0000 0.5686 0.6627);stop-opacity:1;"/>
<stop offset="1" stop-color="#FF698A" style="stop-color:#FF698A;stop-color:color(display-p3 1.0000 0.4118 0.5412);stop-opacity:1;"/>
</linearGradient>
</defs>
</svg>
