<svg width="230" height="106" viewBox="0 0 230 106" fill="none" xmlns="http://www.w3.org/2000/svg">
<path d="M162.543 26.6519C150.981 15.116 132.234 15.116 120.672 26.6519C109.109 38.1877 109.109 56.891 120.672 68.4269L131.239 78.8838C125.417 73.0755 125.417 63.6585 131.239 57.8502C136.661 52.4407 145.292 52.1998 151.307 57.5086L162.396 68.5729C168.218 74.3812 177.657 74.3812 183.478 68.5729C189.3 62.7647 189.3 53.3476 183.478 47.5394L162.543 26.6519Z" fill="#FF698A" style="fill:#FF698A;fill:color(display-p3 1.0000 0.4118 0.5412);fill-opacity:1;"/>
<path d="M220.518 26.6519C208.956 15.116 190.21 15.116 178.647 26.6519L170.595 34.6855L183.479 47.5394C189.3 53.3476 189.3 62.7647 183.479 68.5729C182.751 69.299 181.967 69.9342 181.14 70.4788C175.354 74.2904 167.491 73.6551 162.397 68.5729L151.307 57.5086C145.329 52.2328 136.768 52.4379 131.34 57.7501C131.306 57.7833 131.273 57.8167 131.239 57.8502C126.873 62.2064 125.781 68.5926 127.964 73.9637C128.692 75.7541 129.784 77.4317 131.239 78.8838L148.208 95.8135C148.251 95.8563 148.294 95.8988 148.337 95.941C148.76 96.4207 149.2 96.89 149.66 97.348C161.222 108.884 179.968 108.884 191.531 97.348L220.518 68.4269C232.081 56.891 232.081 38.1877 220.518 26.6519Z" fill="#FF91A9" style="fill:#FF91A9;fill:color(display-p3 1.0000 0.5690 0.6639);fill-opacity:1;"/>
<path d="M45.76 1.85058V113.851H24.96V19.2906H1.28V1.85058H45.76ZM149.097 96.2506V113.851H66.5375V99.9306L111.018 57.6906C116.031 52.8906 119.391 48.7306 121.098 45.2106C122.911 41.5839 123.818 38.0106 123.818 34.4906C123.818 29.2639 122.058 25.2639 118.538 22.4906C115.018 19.7173 109.844 18.3306 103.018 18.3306C91.6042 18.3306 82.8575 22.2239 76.7775 30.0106L62.2175 18.8106C66.5908 12.9439 72.4575 8.41058 79.8175 5.21058C87.2842 1.90391 95.6042 0.25058 104.778 0.25058C116.938 0.25058 126.644 3.13058 133.898 8.89058C141.151 14.6506 144.778 22.4906 144.778 32.4106C144.778 38.4906 143.498 44.1972 140.938 49.5306C138.378 54.8639 133.471 60.9439 126.218 67.7706L96.2975 96.2506H149.097Z" fill="#333333" style="fill:#333333;fill:color(display-p3 0.2000 0.2000 0.2000);fill-opacity:1;"/>
</svg>
