<svg width="288" height="140" viewBox="0 0 288 140" fill="none" xmlns="http://www.w3.org/2000/svg">
<path d="M203.753 39.9132C189.169 25.3623 165.523 25.3623 150.938 39.9132C136.354 54.4641 136.354 78.0557 150.938 92.6066L164.267 105.797C156.924 98.4703 156.924 86.592 164.267 79.2656C171.106 72.4423 181.993 72.1384 189.58 78.8348L203.568 92.7909C210.911 100.117 222.817 100.117 230.16 92.7909C237.503 85.4645 237.503 73.5862 230.16 66.2599L203.753 39.9132Z" fill="#FF698A" style="fill:#FF698A;fill:color(display-p3 1.0000 0.4118 0.5412);fill-opacity:1;"/>
<path d="M276.881 39.9132C262.297 25.3623 238.651 25.3623 224.066 39.9132L213.91 50.0465L230.16 66.2599C237.504 73.5862 237.504 85.4645 230.16 92.7909C229.243 93.7066 228.253 94.508 227.211 95.1948C219.912 100.003 209.994 99.2014 203.568 92.7909L189.58 78.8348C182.04 72.18 171.241 72.4388 164.395 79.1393C164.352 79.1812 164.31 79.2233 164.267 79.2656C158.76 84.7604 157.383 92.8156 160.137 99.5906C161.055 101.849 162.431 103.965 164.267 105.797L185.671 127.151C185.725 127.205 185.78 127.259 185.834 127.312C186.367 127.917 186.923 128.509 187.502 129.087C202.087 143.638 225.733 143.638 240.317 129.087L276.881 92.6066C291.466 78.0557 291.466 54.4641 276.881 39.9132Z" fill="#FF91A9" style="fill:#FF91A9;fill:color(display-p3 1.0000 0.5690 0.6639);fill-opacity:1;"/>
<path d="M57.2 11.8506V151.851H31.2V33.6506H1.6V11.8506H57.2ZM186.372 129.851V151.851H83.1719V134.451L138.772 81.6506C145.039 75.6506 149.239 70.4506 151.372 66.0506C153.639 61.5172 154.772 57.0506 154.772 52.6506C154.772 46.1172 152.572 41.1172 148.172 37.6506C143.772 34.1839 137.305 32.4506 128.772 32.4506C114.505 32.4506 103.572 37.3172 95.9719 47.0506L77.7719 33.0506C83.2385 25.7172 90.5719 20.0506 99.7719 16.0506C109.105 11.9172 119.505 9.85058 130.972 9.85058C146.172 9.85058 158.305 13.4506 167.372 20.6506C176.439 27.8506 180.972 37.6506 180.972 50.0506C180.972 57.6506 179.372 64.7839 176.172 71.4506C172.972 78.1172 166.839 85.7172 157.772 94.2506L120.372 129.851H186.372Z" fill="#333333" style="fill:#333333;fill:color(display-p3 0.2000 0.2000 0.2000);fill-opacity:1;"/>
</svg>
