<svg width="888" height="106" viewBox="0 0 888 106" fill="none" xmlns="http://www.w3.org/2000/svg">
<path d="M803.692 80.9884C813.059 72.3387 821.458 67.0947 834.899 67.0947C848.34 67.0947 856.74 72.3387 866.106 80.9884C870.243 84.8086 870.904 91.0104 868.089 95.5914C867.035 97.3053 864.989 98.0003 862.978 98.0003H806.821C804.809 98.0003 802.763 97.3053 801.71 95.5914C798.895 91.0104 799.556 84.8086 803.692 80.9884Z" fill="url(#paint0_linear_14428_4420)" style=""/>
<path d="M803.692 80.9884C813.059 72.3387 821.458 67.0947 834.899 67.0947C848.34 67.0947 856.74 72.3387 866.106 80.9884C870.243 84.8086 870.904 91.0104 868.089 95.5914C867.035 97.3053 864.989 98.0003 862.978 98.0003H806.821C804.809 98.0003 802.763 97.3053 801.71 95.5914C798.895 91.0104 799.556 84.8086 803.692 80.9884Z" fill="url(#paint1_linear_14428_4420)" style=""/>
<path d="M803.692 80.9884C813.059 72.3387 821.458 67.0947 834.899 67.0947C848.34 67.0947 856.74 72.3387 866.106 80.9884C870.243 84.8086 870.904 91.0104 868.089 95.5914C867.035 97.3053 864.989 98.0003 862.978 98.0003H806.821C804.809 98.0003 802.763 97.3053 801.71 95.5914C798.895 91.0104 799.556 84.8086 803.692 80.9884Z" fill="url(#paint2_linear_14428_4420)" style=""/>
<path d="M803.692 80.9884C813.059 72.3387 821.458 67.0947 834.899 67.0947C848.34 67.0947 856.74 72.3387 866.106 80.9884C870.243 84.8086 870.904 91.0104 868.089 95.5914C867.035 97.3053 864.989 98.0003 862.978 98.0003H806.821C804.809 98.0003 802.763 97.3053 801.71 95.5914C798.895 91.0104 799.556 84.8086 803.692 80.9884Z" fill="url(#paint3_linear_14428_4420)" style=""/>
<path d="M803.692 80.9884C813.059 72.3387 821.458 67.0947 834.899 67.0947C848.34 67.0947 856.74 72.3387 866.106 80.9884C870.243 84.8086 870.904 91.0104 868.089 95.5914C867.035 97.3053 864.989 98.0003 862.978 98.0003H806.821C804.809 98.0003 802.763 97.3053 801.71 95.5914C798.895 91.0104 799.556 84.8086 803.692 80.9884Z" fill="url(#paint4_linear_14428_4420)" style=""/>
<path d="M834.9 62.7688C844.538 62.7688 852.35 54.9856 852.35 45.3844C852.35 35.7833 844.538 28 834.9 28C825.263 28 817.451 35.7833 817.451 45.3844C817.451 54.9856 825.263 62.7688 834.9 62.7688Z" fill="url(#paint5_linear_14428_4420)" style=""/>
<path d="M834.9 62.7688C844.538 62.7688 852.35 54.9856 852.35 45.3844C852.35 35.7833 844.538 28 834.9 28C825.263 28 817.451 35.7833 817.451 45.3844C817.451 54.9856 825.263 62.7688 834.9 62.7688Z" fill="url(#paint6_linear_14428_4420)" style=""/>
<path d="M834.9 62.7688C844.538 62.7688 852.35 54.9856 852.35 45.3844C852.35 35.7833 844.538 28 834.9 28C825.263 28 817.451 35.7833 817.451 45.3844C817.451 54.9856 825.263 62.7688 834.9 62.7688Z" fill="url(#paint7_linear_14428_4420)" style=""/>
<path d="M834.9 62.7688C844.538 62.7688 852.35 54.9856 852.35 45.3844C852.35 35.7833 844.538 28 834.9 28C825.263 28 817.451 35.7833 817.451 45.3844C817.451 54.9856 825.263 62.7688 834.9 62.7688Z" fill="url(#paint8_linear_14428_4420)" style=""/>
<path d="M834.9 62.7688C844.538 62.7688 852.35 54.9856 852.35 45.3844C852.35 35.7833 844.538 28 834.9 28C825.263 28 817.451 35.7833 817.451 45.3844C817.451 54.9856 825.263 62.7688 834.9 62.7688Z" fill="url(#paint9_linear_14428_4420)" style=""/>
<path d="M45.76 1.85058V113.851H24.96V19.2906H1.28V1.85058H45.76ZM149.097 96.2506V113.851H66.5375V99.9306L111.018 57.6906C116.031 52.8906 119.391 48.7306 121.098 45.2106C122.911 41.5839 123.818 38.0106 123.818 34.4906C123.818 29.2639 122.058 25.2639 118.538 22.4906C115.018 19.7173 109.844 18.3306 103.018 18.3306C91.6042 18.3306 82.8575 22.2239 76.7775 30.0106L62.2175 18.8106C66.5908 12.9439 72.4575 8.41058 79.8175 5.21058C87.2842 1.90391 95.6042 0.25058 104.778 0.25058C116.938 0.25058 126.644 3.13058 133.898 8.89058C141.151 14.6506 144.778 22.4906 144.778 32.4106C144.778 38.4906 143.498 44.1972 140.938 49.5306C138.378 54.8639 133.471 60.9439 126.218 67.7706L96.2975 96.2506H149.097ZM252.041 115.451C243.081 115.451 235.081 113.211 228.041 108.731C221.001 104.144 215.455 97.5306 211.401 88.8906C207.348 80.1439 205.321 69.7973 205.321 57.8506C205.321 45.9039 207.348 35.6106 211.401 26.9706C215.455 18.2239 221.001 11.6106 228.041 7.13058C235.081 2.54391 243.081 0.25058 252.041 0.25058C261.001 0.25058 269.001 2.54391 276.041 7.13058C283.188 11.6106 288.788 18.2239 292.841 26.9706C296.895 35.6106 298.921 45.9039 298.921 57.8506C298.921 69.7973 296.895 80.1439 292.841 88.8906C288.788 97.5306 283.188 104.144 276.041 108.731C269.001 113.211 261.001 115.451 252.041 115.451ZM252.041 97.3706C260.041 97.3706 266.335 94.0639 270.921 87.4506C275.615 80.8373 277.961 70.9706 277.961 57.8506C277.961 44.7306 275.615 34.8639 270.921 28.2506C266.335 21.6373 260.041 18.3306 252.041 18.3306C244.148 18.3306 237.855 21.6373 233.161 28.2506C228.575 34.8639 226.281 44.7306 226.281 57.8506C226.281 70.9706 228.575 80.8373 233.161 87.4506C237.855 94.0639 244.148 97.3706 252.041 97.3706ZM359.698 115.451C350.738 115.451 342.738 113.211 335.698 108.731C328.658 104.144 323.111 97.5306 319.058 88.8906C315.004 80.1439 312.978 69.7973 312.978 57.8506C312.978 45.9039 315.004 35.6106 319.058 26.9706C323.111 18.2239 328.658 11.6106 335.698 7.13058C342.738 2.54391 350.738 0.25058 359.698 0.25058C368.658 0.25058 376.658 2.54391 383.698 7.13058C390.844 11.6106 396.444 18.2239 400.498 26.9706C404.551 35.6106 406.578 45.9039 406.578 57.8506C406.578 69.7973 404.551 80.1439 400.498 88.8906C396.444 97.5306 390.844 104.144 383.698 108.731C376.658 113.211 368.658 115.451 359.698 115.451ZM359.698 97.3706C367.698 97.3706 373.991 94.0639 378.578 87.4506C383.271 80.8373 385.618 70.9706 385.618 57.8506C385.618 44.7306 383.271 34.8639 378.578 28.2506C373.991 21.6373 367.698 18.3306 359.698 18.3306C351.804 18.3306 345.511 21.6373 340.818 28.2506C336.231 34.8639 333.938 44.7306 333.938 57.8506C333.938 70.9706 336.231 80.8373 340.818 87.4506C345.511 94.0639 351.804 97.3706 359.698 97.3706ZM467.354 115.451C458.394 115.451 450.394 113.211 443.354 108.731C436.314 104.144 430.767 97.5306 426.714 88.8906C422.66 80.1439 420.634 69.7973 420.634 57.8506C420.634 45.9039 422.66 35.6106 426.714 26.9706C430.767 18.2239 436.314 11.6106 443.354 7.13058C450.394 2.54391 458.394 0.25058 467.354 0.25058C476.314 0.25058 484.314 2.54391 491.354 7.13058C498.5 11.6106 504.1 18.2239 508.154 26.9706C512.207 35.6106 514.234 45.9039 514.234 57.8506C514.234 69.7973 512.207 80.1439 508.154 88.8906C504.1 97.5306 498.5 104.144 491.354 108.731C484.314 113.211 476.314 115.451 467.354 115.451ZM467.354 97.3706C475.354 97.3706 481.647 94.0639 486.234 87.4506C490.927 80.8373 493.274 70.9706 493.274 57.8506C493.274 44.7306 490.927 34.8639 486.234 28.2506C481.647 21.6373 475.354 18.3306 467.354 18.3306C459.46 18.3306 453.167 21.6373 448.474 28.2506C443.887 34.8639 441.594 44.7306 441.594 57.8506C441.594 70.9706 443.887 80.8373 448.474 87.4506C453.167 94.0639 459.46 97.3706 467.354 97.3706ZM619.229 115.451C610.269 115.451 602.269 113.211 595.229 108.731C588.189 104.144 582.642 97.5306 578.589 88.8906C574.535 80.1439 572.509 69.7973 572.509 57.8506C572.509 45.9039 574.535 35.6106 578.589 26.9706C582.642 18.2239 588.189 11.6106 595.229 7.13058C602.269 2.54391 610.269 0.25058 619.229 0.25058C628.189 0.25058 636.189 2.54391 643.229 7.13058C650.375 11.6106 655.975 18.2239 660.029 26.9706C664.082 35.6106 666.109 45.9039 666.109 57.8506C666.109 69.7973 664.082 80.1439 660.029 88.8906C655.975 97.5306 650.375 104.144 643.229 108.731C636.189 113.211 628.189 115.451 619.229 115.451ZM619.229 97.3706C627.229 97.3706 633.522 94.0639 638.109 87.4506C642.802 80.8373 645.149 70.9706 645.149 57.8506C645.149 44.7306 642.802 34.8639 638.109 28.2506C633.522 21.6373 627.229 18.3306 619.229 18.3306C611.335 18.3306 605.042 21.6373 600.349 28.2506C595.762 34.8639 593.469 44.7306 593.469 57.8506C593.469 70.9706 595.762 80.8373 600.349 87.4506C605.042 94.0639 611.335 97.3706 619.229 97.3706ZM726.885 115.451C717.925 115.451 709.925 113.211 702.885 108.731C695.845 104.144 690.298 97.5306 686.245 88.8906C682.192 80.1439 680.165 69.7973 680.165 57.8506C680.165 45.9039 682.192 35.6106 686.245 26.9706C690.298 18.2239 695.845 11.6106 702.885 7.13058C709.925 2.54391 717.925 0.25058 726.885 0.25058C735.845 0.25058 743.845 2.54391 750.885 7.13058C758.032 11.6106 763.632 18.2239 767.685 26.9706C771.738 35.6106 773.765 45.9039 773.765 57.8506C773.765 69.7973 771.738 80.1439 767.685 88.8906C763.632 97.5306 758.032 104.144 750.885 108.731C743.845 113.211 735.845 115.451 726.885 115.451ZM726.885 97.3706C734.885 97.3706 741.178 94.0639 745.765 87.4506C750.458 80.8373 752.805 70.9706 752.805 57.8506C752.805 44.7306 750.458 34.8639 745.765 28.2506C741.178 21.6373 734.885 18.3306 726.885 18.3306C718.992 18.3306 712.698 21.6373 708.005 28.2506C703.418 34.8639 701.125 44.7306 701.125 57.8506C701.125 70.9706 703.418 80.8373 708.005 87.4506C712.698 94.0639 718.992 97.3706 726.885 97.3706ZM834.541 115.451C825.581 115.451 817.581 113.211 810.541 108.731C803.501 104.144 797.955 97.5306 793.901 88.8906C789.848 80.1439 787.821 69.7973 787.821 57.8506C787.821 45.9039 789.848 35.6106 793.901 26.9706C797.955 18.2239 803.501 11.6106 810.541 7.13058C817.581 2.54391 825.581 0.25058 834.541 0.25058C843.501 0.25058 851.501 2.54391 858.541 7.13058C865.688 11.6106 871.288 18.2239 875.341 26.9706C879.395 35.6106 881.421 45.9039 881.421 57.8506C881.421 69.7973 879.395 80.1439 875.341 88.8906C871.288 97.5306 865.688 104.144 858.541 108.731C851.501 113.211 843.501 115.451 834.541 115.451ZM834.541 97.3706C842.541 97.3706 848.835 94.0639 853.421 87.4506C858.115 80.8373 860.461 70.9706 860.461 57.8506C860.461 44.7306 858.115 34.8639 853.421 28.2506C848.835 21.6373 842.541 18.3306 834.541 18.3306C826.648 18.3306 820.355 21.6373 815.661 28.2506C811.075 34.8639 808.781 44.7306 808.781 57.8506C808.781 70.9706 811.075 80.8373 815.661 87.4506C820.355 94.0639 826.648 97.3706 834.541 97.3706Z" fill="#333333" style="fill:#333333;fill:color(display-p3 0.2000 0.2000 0.2000);fill-opacity:1;"/>
<defs>
<linearGradient id="paint0_linear_14428_4420" x1="857.135" y1="78.9702" x2="856.034" y2="99.3251" gradientUnits="userSpaceOnUse">
<stop stop-color="#C19DF7" style="stop-color:#C19DF7;stop-color:color(display-p3 0.7569 0.6157 0.9686);stop-opacity:1;"/>
<stop offset="1" stop-color="#B07BFE" style="stop-color:#B07BFE;stop-color:color(display-p3 0.6882 0.4843 0.9942);stop-opacity:1;"/>
</linearGradient>
<linearGradient id="paint1_linear_14428_4420" x1="834.899" y1="67.0947" x2="834.899" y2="98.0003" gradientUnits="userSpaceOnUse">
<stop stop-color="#77E194" style="stop-color:#77E194;stop-color:color(display-p3 0.4685 0.8830 0.5790);stop-opacity:1;"/>
<stop offset="1" stop-color="#50D372" style="stop-color:#50D372;stop-color:color(display-p3 0.3153 0.8289 0.4489);stop-opacity:1;"/>
</linearGradient>
<linearGradient id="paint2_linear_14428_4420" x1="834.899" y1="67.0947" x2="834.899" y2="98.0003" gradientUnits="userSpaceOnUse">
<stop stop-color="#FE6788" style="stop-color:#FE6788;stop-color:color(display-p3 0.9961 0.4039 0.5333);stop-opacity:1;"/>
<stop offset="1" stop-color="#F0446A" style="stop-color:#F0446A;stop-color:color(display-p3 0.9412 0.2667 0.4157);stop-opacity:1;"/>
</linearGradient>
<linearGradient id="paint3_linear_14428_4420" x1="834.899" y1="67.0947" x2="834.899" y2="98.0003" gradientUnits="userSpaceOnUse">
<stop stop-color="#FFBC0E" style="stop-color:#FFBC0E;stop-color:color(display-p3 1.0000 0.7357 0.0559);stop-opacity:1;"/>
<stop offset="1" stop-color="#FF7C1E" style="stop-color:#FF7C1E;stop-color:color(display-p3 1.0000 0.4877 0.1167);stop-opacity:1;"/>
</linearGradient>
<linearGradient id="paint4_linear_14428_4420" x1="834.899" y1="67.0947" x2="834.899" y2="98.0003" gradientUnits="userSpaceOnUse">
<stop stop-color="#FF91A9" style="stop-color:#FF91A9;stop-color:color(display-p3 1.0000 0.5686 0.6627);stop-opacity:1;"/>
<stop offset="1" stop-color="#FF698A" style="stop-color:#FF698A;stop-color:color(display-p3 1.0000 0.4118 0.5412);stop-opacity:1;"/>
</linearGradient>
<linearGradient id="paint5_linear_14428_4420" x1="846.018" y1="41.3599" x2="843.262" y2="63.9906" gradientUnits="userSpaceOnUse">
<stop stop-color="#C19DF7" style="stop-color:#C19DF7;stop-color:color(display-p3 0.7569 0.6157 0.9686);stop-opacity:1;"/>
<stop offset="1" stop-color="#B07BFE" style="stop-color:#B07BFE;stop-color:color(display-p3 0.6882 0.4843 0.9942);stop-opacity:1;"/>
</linearGradient>
<linearGradient id="paint6_linear_14428_4420" x1="834.9" y1="28" x2="834.9" y2="62.7688" gradientUnits="userSpaceOnUse">
<stop stop-color="#77E194" style="stop-color:#77E194;stop-color:color(display-p3 0.4685 0.8830 0.5790);stop-opacity:1;"/>
<stop offset="1" stop-color="#50D372" style="stop-color:#50D372;stop-color:color(display-p3 0.3153 0.8289 0.4489);stop-opacity:1;"/>
</linearGradient>
<linearGradient id="paint7_linear_14428_4420" x1="834.9" y1="28" x2="834.9" y2="62.7688" gradientUnits="userSpaceOnUse">
<stop stop-color="#FE6788" style="stop-color:#FE6788;stop-color:color(display-p3 0.9961 0.4039 0.5333);stop-opacity:1;"/>
<stop offset="1" stop-color="#F0446A" style="stop-color:#F0446A;stop-color:color(display-p3 0.9412 0.2667 0.4157);stop-opacity:1;"/>
</linearGradient>
<linearGradient id="paint8_linear_14428_4420" x1="834.9" y1="28" x2="834.9" y2="62.7688" gradientUnits="userSpaceOnUse">
<stop stop-color="#FFBC0E" style="stop-color:#FFBC0E;stop-color:color(display-p3 1.0000 0.7357 0.0559);stop-opacity:1;"/>
<stop offset="1" stop-color="#FF7C1E" style="stop-color:#FF7C1E;stop-color:color(display-p3 1.0000 0.4877 0.1167);stop-opacity:1;"/>
</linearGradient>
<linearGradient id="paint9_linear_14428_4420" x1="834.9" y1="28" x2="834.9" y2="62.7688" gradientUnits="userSpaceOnUse">
<stop stop-color="#FF91A9" style="stop-color:#FF91A9;stop-color:color(display-p3 1.0000 0.5686 0.6627);stop-opacity:1;"/>
<stop offset="1" stop-color="#FF698A" style="stop-color:#FF698A;stop-color:color(display-p3 1.0000 0.4118 0.5412);stop-opacity:1;"/>
</linearGradient>
</defs>
</svg>
