<svg width="566" height="140" viewBox="0 0 566 140" fill="none" xmlns="http://www.w3.org/2000/svg">
<path d="M452.929 37.6722C453.976 32.6214 458.426 29 463.584 29H549.695C554.853 29 559.303 32.6214 560.35 37.6722L565.191 61.0126C565.951 64.6761 561.598 67.1875 558.807 64.6956C555.126 61.409 549.564 61.409 545.883 64.6956L544.727 65.7275C540.388 69.602 533.832 69.602 529.492 65.7275C525.153 61.8531 518.596 61.8531 514.257 65.7275C509.918 69.602 503.361 69.602 499.022 65.7275C494.683 61.8531 488.126 61.8531 483.787 65.7275C479.447 69.602 472.891 69.602 468.552 65.7275L467.396 64.6956C463.715 61.409 458.153 61.409 454.472 64.6956C451.681 67.1875 447.328 64.6761 448.088 61.0126L452.929 37.6722Z" fill="url(#paint0_linear_14428_4417)" style=""/>
<path d="M545.884 69.0485C549.564 65.7626 555.125 65.7626 558.806 69.0485C558.828 69.0678 558.852 69.085 558.874 69.1037V131.294C558.874 136.102 554.976 140 550.168 140H463.111C458.303 140 454.405 136.102 454.405 131.294V69.1037C454.427 69.085 454.451 69.0678 454.473 69.0485C458.154 65.7626 463.715 65.7626 467.396 69.0485L468.552 70.0814C472.891 73.9557 479.448 73.9557 483.787 70.0814C488.126 66.207 494.683 66.207 499.022 70.0814C503.361 73.9557 509.918 73.9557 514.257 70.0814C518.596 66.207 525.153 66.207 529.492 70.0814C533.832 73.9557 540.388 73.9557 544.727 70.0814L545.884 69.0485Z" fill="url(#paint1_linear_14428_4417)" style=""/>
<path d="M57.2 11.8506V151.851H31.2V33.6506H1.6V11.8506H57.2ZM184.045 66.0506C203.779 66.0506 218.379 69.9172 227.845 77.6506C237.312 85.2506 242.045 95.6506 242.045 108.851C242.045 117.251 239.979 124.851 235.845 131.651C231.712 138.451 225.512 143.851 217.245 147.851C208.979 151.851 198.779 153.851 186.645 153.851C176.645 153.851 166.979 152.451 157.645 149.651C148.312 146.717 140.445 142.717 134.045 137.651L145.045 117.451C150.245 121.717 156.445 125.117 163.645 127.651C170.979 130.051 178.512 131.251 186.245 131.251C195.445 131.251 202.645 129.384 207.845 125.651C213.179 121.784 215.845 116.517 215.845 109.851C215.845 102.651 212.979 97.2506 207.245 93.6506C201.645 89.9173 191.979 88.0506 178.245 88.0506H144.445L151.645 11.8506H233.845V33.6506H173.645L170.645 66.0506H184.045ZM315.442 153.851C304.242 153.851 294.242 151.051 285.442 145.451C276.642 139.717 269.709 131.451 264.642 120.651C259.576 109.717 257.042 96.7839 257.042 81.8506C257.042 66.9172 259.576 54.0506 264.642 43.2506C269.709 32.3172 276.642 24.0506 285.442 18.4506C294.242 12.7172 304.242 9.85058 315.442 9.85058C326.642 9.85058 336.642 12.7172 345.442 18.4506C354.376 24.0506 361.376 32.3172 366.442 43.2506C371.509 54.0506 374.042 66.9172 374.042 81.8506C374.042 96.7839 371.509 109.717 366.442 120.651C361.376 131.451 354.376 139.717 345.442 145.451C336.642 151.051 326.642 153.851 315.442 153.851ZM315.442 131.251C325.442 131.251 333.309 127.117 339.042 118.851C344.909 110.584 347.842 98.2506 347.842 81.8506C347.842 65.4506 344.909 53.1172 339.042 44.8506C333.309 36.5839 325.442 32.4506 315.442 32.4506C305.576 32.4506 297.709 36.5839 291.842 44.8506C286.109 53.1172 283.242 65.4506 283.242 81.8506C283.242 98.2506 286.109 110.584 291.842 118.851C297.709 127.117 305.576 131.251 315.442 131.251ZM450.013 153.851C438.813 153.851 428.813 151.051 420.013 145.451C411.213 139.717 404.279 131.451 399.213 120.651C394.146 109.717 391.613 96.7839 391.613 81.8506C391.613 66.9172 394.146 54.0506 399.213 43.2506C404.279 32.3172 411.213 24.0506 420.013 18.4506C428.813 12.7172 438.813 9.85058 450.013 9.85058C461.213 9.85058 471.213 12.7172 480.013 18.4506C488.946 24.0506 495.946 32.3172 501.013 43.2506C506.079 54.0506 508.613 66.9172 508.613 81.8506C508.613 96.7839 506.079 109.717 501.013 120.651C495.946 131.451 488.946 139.717 480.013 145.451C471.213 151.051 461.213 153.851 450.013 153.851ZM450.013 131.251C460.013 131.251 467.879 127.117 473.613 118.851C479.479 110.584 482.413 98.2506 482.413 81.8506C482.413 65.4506 479.479 53.1172 473.613 44.8506C467.879 36.5839 460.013 32.4506 450.013 32.4506C440.146 32.4506 432.279 36.5839 426.413 44.8506C420.679 53.1172 417.813 65.4506 417.813 81.8506C417.813 98.2506 420.679 110.584 426.413 118.851C432.279 127.117 440.146 131.251 450.013 131.251Z" fill="#333333" style="fill:#333333;fill:color(display-p3 0.2000 0.2000 0.2000);fill-opacity:1;"/>
<defs>
<linearGradient id="paint0_linear_14428_4417" x1="506.64" y1="29" x2="506.64" y2="140" gradientUnits="userSpaceOnUse">
<stop stop-color="#FF91A9" style="stop-color:#FF91A9;stop-color:color(display-p3 1.0000 0.5686 0.6627);stop-opacity:1;"/>
<stop offset="1" stop-color="#FF698A" style="stop-color:#FF698A;stop-color:color(display-p3 1.0000 0.4118 0.5412);stop-opacity:1;"/>
</linearGradient>
<linearGradient id="paint1_linear_14428_4417" x1="506.64" y1="29" x2="506.64" y2="140" gradientUnits="userSpaceOnUse">
<stop stop-color="#FF91A9" style="stop-color:#FF91A9;stop-color:color(display-p3 1.0000 0.5686 0.6627);stop-opacity:1;"/>
<stop offset="1" stop-color="#FF698A" style="stop-color:#FF698A;stop-color:color(display-p3 1.0000 0.4118 0.5412);stop-opacity:1;"/>
</linearGradient>
</defs>
</svg>
