<svg width="218" height="54" viewBox="0 0 218 54" fill="none" xmlns="http://www.w3.org/2000/svg">
<path d="M178.233 18.047C178.601 16.2724 180.164 15 181.976 15H212.232C214.044 15 215.607 16.2724 215.976 18.047L217.676 26.2477C217.943 27.5349 216.414 28.4173 215.433 27.5417C214.14 26.387 212.186 26.387 210.892 27.5417L210.486 27.9043C208.962 29.2656 206.658 29.2656 205.133 27.9043C203.609 26.543 201.305 26.543 199.781 27.9043C198.256 29.2656 195.952 29.2656 194.428 27.9043C192.903 26.543 190.599 26.543 189.075 27.9043C187.55 29.2656 185.247 29.2656 183.722 27.9043L183.316 27.5417C182.022 26.387 180.068 26.387 178.775 27.5417C177.794 28.4173 176.265 27.5349 176.532 26.2477L178.233 18.047Z" fill="url(#paint0_linear_14428_4425)" style=""/>
<path d="M210.893 29.0711C212.186 27.9166 214.14 27.9166 215.433 29.0711C215.441 29.0779 215.449 29.0839 215.457 29.0905V50.9412C215.457 52.6305 214.087 54 212.398 54H181.81C180.121 54 178.751 52.6305 178.751 50.9412V29.0905C178.759 29.0839 178.768 29.0779 178.775 29.0711C180.068 27.9166 182.022 27.9166 183.316 29.0711L183.722 29.4341C185.247 30.7953 187.55 30.7953 189.075 29.4341C190.599 28.0728 192.903 28.0728 194.428 29.4341C195.952 30.7953 198.256 30.7953 199.781 29.4341C201.305 28.0728 203.609 28.0728 205.133 29.4341C206.658 30.7953 208.962 30.7953 210.486 29.4341L210.893 29.0711Z" fill="url(#paint1_linear_14428_4425)" style=""/>
<path d="M19.88 0.850582V56.8506H9.48V9.57058H-2.36V0.850582H19.88ZM70.6181 22.5306C78.5115 22.5306 84.3515 24.0773 88.1381 27.1706C91.9248 30.2106 93.8181 34.3706 93.8181 39.6506C93.8181 43.0106 92.9915 46.0506 91.3381 48.7706C89.6848 51.4906 87.2048 53.6506 83.8981 55.2506C80.5915 56.8506 76.5115 57.6506 71.6581 57.6506C67.6581 57.6506 63.7915 57.0906 60.0581 55.9706C56.3248 54.7973 53.1781 53.1973 50.6181 51.1706L55.0181 43.0906C57.0981 44.7973 59.5781 46.1573 62.4581 47.1706C65.3915 48.1306 68.4048 48.6106 71.4981 48.6106C75.1781 48.6106 78.0581 47.8639 80.1381 46.3706C82.2715 44.8239 83.3381 42.7173 83.3381 40.0506C83.3381 37.1706 82.1915 35.0106 79.8981 33.5706C77.6581 32.0773 73.7915 31.3306 68.2981 31.3306H54.7781L57.6581 0.850582H90.5381V9.57058H66.4581L65.2581 22.5306H70.6181ZM123.177 57.6506C118.697 57.6506 114.697 56.5306 111.177 54.2906C107.657 51.9973 104.884 48.6906 102.857 44.3706C100.83 39.9973 99.8169 34.8239 99.8169 28.8506C99.8169 22.8773 100.83 17.7306 102.857 13.4106C104.884 9.03725 107.657 5.73058 111.177 3.49058C114.697 1.19725 118.697 0.0505829 123.177 0.0505829C127.657 0.0505829 131.657 1.19725 135.177 3.49058C138.75 5.73058 141.55 9.03725 143.577 13.4106C145.604 17.7306 146.617 22.8773 146.617 28.8506C146.617 34.8239 145.604 39.9973 143.577 44.3706C141.55 48.6906 138.75 51.9973 135.177 54.2906C131.657 56.5306 127.657 57.6506 123.177 57.6506ZM123.177 48.6106C127.177 48.6106 130.324 46.9573 132.617 43.6506C134.964 40.3439 136.137 35.4106 136.137 28.8506C136.137 22.2906 134.964 17.3573 132.617 14.0506C130.324 10.7439 127.177 9.09059 123.177 9.09059C119.23 9.09059 116.084 10.7439 113.737 14.0506C111.444 17.3573 110.297 22.2906 110.297 28.8506C110.297 35.4106 111.444 40.3439 113.737 43.6506C116.084 46.9573 119.23 48.6106 123.177 48.6106ZM177.005 57.6506C172.525 57.6506 168.525 56.5306 165.005 54.2906C161.485 51.9973 158.712 48.6906 156.685 44.3706C154.658 39.9973 153.645 34.8239 153.645 28.8506C153.645 22.8773 154.658 17.7306 156.685 13.4106C158.712 9.03725 161.485 5.73058 165.005 3.49058C168.525 1.19725 172.525 0.0505829 177.005 0.0505829C181.485 0.0505829 185.485 1.19725 189.005 3.49058C192.578 5.73058 195.378 9.03725 197.405 13.4106C199.432 17.7306 200.445 22.8773 200.445 28.8506C200.445 34.8239 199.432 39.9973 197.405 44.3706C195.378 48.6906 192.578 51.9973 189.005 54.2906C185.485 56.5306 181.485 57.6506 177.005 57.6506ZM177.005 48.6106C181.005 48.6106 184.152 46.9573 186.445 43.6506C188.792 40.3439 189.965 35.4106 189.965 28.8506C189.965 22.2906 188.792 17.3573 186.445 14.0506C184.152 10.7439 181.005 9.09059 177.005 9.09059C173.058 9.09059 169.912 10.7439 167.565 14.0506C165.272 17.3573 164.125 22.2906 164.125 28.8506C164.125 35.4106 165.272 40.3439 167.565 43.6506C169.912 46.9573 173.058 48.6106 177.005 48.6106Z" fill="#333333" style="fill:#333333;fill:color(display-p3 0.2000 0.2000 0.2000);fill-opacity:1;"/>
<defs>
<linearGradient id="paint0_linear_14428_4425" x1="197.104" y1="15" x2="197.104" y2="54" gradientUnits="userSpaceOnUse">
<stop stop-color="#FF91A9" style="stop-color:#FF91A9;stop-color:color(display-p3 1.0000 0.5686 0.6627);stop-opacity:1;"/>
<stop offset="1" stop-color="#FF698A" style="stop-color:#FF698A;stop-color:color(display-p3 1.0000 0.4118 0.5412);stop-opacity:1;"/>
</linearGradient>
<linearGradient id="paint1_linear_14428_4425" x1="197.104" y1="15" x2="197.104" y2="54" gradientUnits="userSpaceOnUse">
<stop stop-color="#FF91A9" style="stop-color:#FF91A9;stop-color:color(display-p3 1.0000 0.5686 0.6627);stop-opacity:1;"/>
<stop offset="1" stop-color="#FF698A" style="stop-color:#FF698A;stop-color:color(display-p3 1.0000 0.4118 0.5412);stop-opacity:1;"/>
</linearGradient>
</defs>
</svg>
