<svg width="300" height="140" viewBox="0 0 300 140" fill="none" xmlns="http://www.w3.org/2000/svg">
<path d="M258.726 23C281.453 23.0001 299.877 41.459 299.877 64.1865C299.877 71.7489 297.796 79.175 293.86 85.6328L262.142 137.685C260.583 140.243 256.868 140.243 255.31 137.685L223.591 85.6328C219.656 79.1749 217.573 71.749 217.573 64.1865C217.573 41.4589 235.998 23 258.726 23ZM258.728 44.1025C247.655 44.1025 238.679 53.079 238.679 64.1514C238.679 75.2236 247.655 84.1992 258.728 84.1992C269.8 84.1992 278.775 75.2235 278.775 64.1514C278.775 53.079 269.8 44.1026 258.728 44.1025Z" fill="url(#paint0_linear_14428_4418)" style=""/>
<path d="M258.726 23C281.453 23.0001 299.877 41.459 299.877 64.1865C299.877 71.7489 297.796 79.175 293.86 85.6328L262.142 137.685C260.583 140.243 256.868 140.243 255.31 137.685L223.591 85.6328C219.656 79.1749 217.573 71.749 217.573 64.1865C217.573 41.4589 235.998 23 258.726 23ZM258.728 44.1025C247.655 44.1025 238.679 53.079 238.679 64.1514C238.679 75.2236 247.655 84.1992 258.728 84.1992C269.8 84.1992 278.775 75.2235 278.775 64.1514C278.775 53.079 269.8 44.1026 258.728 44.1025Z" fill="url(#paint1_linear_14428_4418)" style=""/>
<path d="M258.726 23C281.453 23.0001 299.877 41.459 299.877 64.1865C299.877 71.7489 297.796 79.175 293.86 85.6328L262.142 137.685C260.583 140.243 256.868 140.243 255.31 137.685L223.591 85.6328C219.656 79.1749 217.573 71.749 217.573 64.1865C217.573 41.4589 235.998 23 258.726 23ZM258.728 44.1025C247.655 44.1025 238.679 53.079 238.679 64.1514C238.679 75.2236 247.655 84.1992 258.728 84.1992C269.8 84.1992 278.775 75.2235 278.775 64.1514C278.775 53.079 269.8 44.1026 258.728 44.1025Z" fill="url(#paint2_linear_14428_4418)" style=""/>
<path d="M258.726 23C281.453 23.0001 299.877 41.459 299.877 64.1865C299.877 71.7489 297.796 79.175 293.86 85.6328L262.142 137.685C260.583 140.243 256.868 140.243 255.31 137.685L223.591 85.6328C219.656 79.1749 217.573 71.749 217.573 64.1865C217.573 41.4589 235.998 23 258.726 23ZM258.728 44.1025C247.655 44.1025 238.679 53.079 238.679 64.1514C238.679 75.2236 247.655 84.1992 258.728 84.1992C269.8 84.1992 278.775 75.2235 278.775 64.1514C278.775 53.079 269.8 44.1026 258.728 44.1025Z" fill="url(#paint3_linear_14428_4418)" style=""/>
<path d="M258.726 23C281.453 23.0001 299.877 41.459 299.877 64.1865C299.877 71.7489 297.796 79.175 293.86 85.6328L262.142 137.685C260.583 140.243 256.868 140.243 255.31 137.685L223.591 85.6328C219.656 79.1749 217.573 71.749 217.573 64.1865C217.573 41.4589 235.998 23 258.726 23ZM258.728 44.1025C247.655 44.1025 238.679 53.079 238.679 64.1514C238.679 75.2236 247.655 84.1992 258.728 84.1992C269.8 84.1992 278.775 75.2235 278.775 64.1514C278.775 53.079 269.8 44.1026 258.728 44.1025Z" fill="url(#paint4_linear_14428_4418)" style=""/>
<path d="M99.6 78.2506C106.933 81.5839 112.533 86.1172 116.4 91.8506C120.4 97.4506 122.4 104.051 122.4 111.651C122.4 120.184 120 127.651 115.2 134.051C110.533 140.451 103.867 145.384 95.2 148.851C86.5333 152.184 76.4667 153.851 65 153.851C53.5333 153.851 43.4667 152.184 34.8 148.851C26.2667 145.384 19.6667 140.451 15 134.051C10.3333 127.651 8 120.184 8 111.651C8 104.051 9.93333 97.4506 13.8 91.8506C17.6667 86.1172 23.2 81.5839 30.4 78.2506C24.8 75.1839 20.4667 71.1839 17.4 66.2506C14.4667 61.1839 13 55.3839 13 48.8506C13 40.9839 15.1333 34.1173 19.4 28.2506C23.8 22.3839 29.9333 17.8506 37.8 14.6506C45.6667 11.4506 54.7333 9.85058 65 9.85058C75.4 9.85058 84.5333 11.4506 92.4 14.6506C100.267 17.8506 106.4 22.3839 110.8 28.2506C115.2 34.1173 117.4 40.9839 117.4 48.8506C117.4 55.3839 115.867 61.1172 112.8 66.0506C109.733 70.9839 105.333 75.0506 99.6 78.2506ZM65 30.2506C56.8667 30.2506 50.4 31.9839 45.6 35.4506C40.9333 38.9172 38.6 43.7839 38.6 50.0506C38.6 56.0506 40.9333 60.8506 45.6 64.4506C50.4 67.9173 56.8667 69.6506 65 69.6506C73.2667 69.6506 79.8 67.9173 84.6 64.4506C89.4 60.8506 91.8 56.0506 91.8 50.0506C91.8 43.7839 89.3333 38.9172 84.4 35.4506C79.6 31.9839 73.1333 30.2506 65 30.2506ZM65 133.451C74.6 133.451 82.2 131.451 87.8 127.451C93.4 123.451 96.2 117.917 96.2 110.851C96.2 103.917 93.4 98.4506 87.8 94.4506C82.2 90.4506 74.6 88.4506 65 88.4506C55.4 88.4506 47.8667 90.4506 42.4 94.4506C36.9333 98.4506 34.2 103.917 34.2 110.851C34.2 117.917 36.9333 123.451 42.4 127.451C47.8667 131.451 55.4 133.451 65 133.451ZM197.669 153.851C186.469 153.851 176.469 151.051 167.669 145.451C158.869 139.717 151.935 131.451 146.869 120.651C141.802 109.717 139.269 96.7839 139.269 81.8506C139.269 66.9172 141.802 54.0506 146.869 43.2506C151.935 32.3172 158.869 24.0506 167.669 18.4506C176.469 12.7172 186.469 9.85058 197.669 9.85058C208.869 9.85058 218.869 12.7172 227.669 18.4506C236.602 24.0506 243.602 32.3172 248.669 43.2506C253.735 54.0506 256.269 66.9172 256.269 81.8506C256.269 96.7839 253.735 109.717 248.669 120.651C243.602 131.451 236.602 139.717 227.669 145.451C218.869 151.051 208.869 153.851 197.669 153.851ZM197.669 131.251C207.669 131.251 215.535 127.117 221.269 118.851C227.135 110.584 230.069 98.2506 230.069 81.8506C230.069 65.4506 227.135 53.1172 221.269 44.8506C215.535 36.5839 207.669 32.4506 197.669 32.4506C187.802 32.4506 179.935 36.5839 174.069 44.8506C168.335 53.1172 165.469 65.4506 165.469 81.8506C165.469 98.2506 168.335 110.584 174.069 118.851C179.935 127.117 187.802 131.251 197.669 131.251Z" fill="#333333" style="fill:#333333;fill:color(display-p3 0.2000 0.2000 0.2000);fill-opacity:1;"/>
<defs>
<linearGradient id="paint0_linear_14428_4418" x1="284.945" y1="63.3698" x2="270.4" y2="142.473" gradientUnits="userSpaceOnUse">
<stop stop-color="#C19DF7" style="stop-color:#C19DF7;stop-color:color(display-p3 0.7569 0.6157 0.9686);stop-opacity:1;"/>
<stop offset="1" stop-color="#B07BFE" style="stop-color:#B07BFE;stop-color:color(display-p3 0.6882 0.4843 0.9942);stop-opacity:1;"/>
</linearGradient>
<linearGradient id="paint1_linear_14428_4418" x1="258.725" y1="23" x2="258.725" y2="139.603" gradientUnits="userSpaceOnUse">
<stop stop-color="#77E194" style="stop-color:#77E194;stop-color:color(display-p3 0.4685 0.8830 0.5790);stop-opacity:1;"/>
<stop offset="1" stop-color="#50D372" style="stop-color:#50D372;stop-color:color(display-p3 0.3153 0.8289 0.4489);stop-opacity:1;"/>
</linearGradient>
<linearGradient id="paint2_linear_14428_4418" x1="258.725" y1="23" x2="258.725" y2="139.603" gradientUnits="userSpaceOnUse">
<stop stop-color="#FE6788" style="stop-color:#FE6788;stop-color:color(display-p3 0.9961 0.4039 0.5333);stop-opacity:1;"/>
<stop offset="1" stop-color="#F0446A" style="stop-color:#F0446A;stop-color:color(display-p3 0.9412 0.2667 0.4157);stop-opacity:1;"/>
</linearGradient>
<linearGradient id="paint3_linear_14428_4418" x1="258.725" y1="23" x2="258.725" y2="139.603" gradientUnits="userSpaceOnUse">
<stop stop-color="#FFBC0E" style="stop-color:#FFBC0E;stop-color:color(display-p3 1.0000 0.7357 0.0559);stop-opacity:1;"/>
<stop offset="1" stop-color="#FF7C1E" style="stop-color:#FF7C1E;stop-color:color(display-p3 1.0000 0.4877 0.1167);stop-opacity:1;"/>
</linearGradient>
<linearGradient id="paint4_linear_14428_4418" x1="258.725" y1="23" x2="258.725" y2="139.603" gradientUnits="userSpaceOnUse">
<stop stop-color="#FF91A9" style="stop-color:#FF91A9;stop-color:color(display-p3 1.0000 0.5686 0.6627);stop-opacity:1;"/>
<stop offset="1" stop-color="#FF698A" style="stop-color:#FF698A;stop-color:color(display-p3 1.0000 0.4118 0.5412);stop-opacity:1;"/>
</linearGradient>
</defs>
</svg>
