<svg width="120" height="54" viewBox="0 0 120 54" fill="none" xmlns="http://www.w3.org/2000/svg">
<path d="M101.198 2C111.582 2 120 10.418 120 20.8018C120 24.2809 119.034 27.6922 117.211 30.6553L104.406 51.4639C102.844 54.0017 99.1557 54.0017 97.5938 51.4639L84.7891 30.6553C82.9658 27.6922 82 24.2809 82 20.8018C82 10.418 90.418 2 100.802 2H101.198ZM101.102 11.8369C95.9626 11.8369 91.7961 16.0207 91.7959 21.1816C91.7959 26.3428 95.9624 30.5273 101.102 30.5273C106.24 30.5271 110.406 26.3426 110.406 21.1816C110.406 16.0208 106.24 11.8372 101.102 11.8369Z" fill="url(#paint0_linear_14428_4426)" style=""/>
<path d="M101.198 2C111.582 2 120 10.418 120 20.8018C120 24.2809 119.034 27.6922 117.211 30.6553L104.406 51.4639C102.844 54.0017 99.1557 54.0017 97.5938 51.4639L84.7891 30.6553C82.9658 27.6922 82 24.2809 82 20.8018C82 10.418 90.418 2 100.802 2H101.198ZM101.102 11.8369C95.9626 11.8369 91.7961 16.0207 91.7959 21.1816C91.7959 26.3428 95.9624 30.5273 101.102 30.5273C106.24 30.5271 110.406 26.3426 110.406 21.1816C110.406 16.0208 106.24 11.8372 101.102 11.8369Z" fill="url(#paint1_linear_14428_4426)" style=""/>
<path d="M101.198 2C111.582 2 120 10.418 120 20.8018C120 24.2809 119.034 27.6922 117.211 30.6553L104.406 51.4639C102.844 54.0017 99.1557 54.0017 97.5938 51.4639L84.7891 30.6553C82.9658 27.6922 82 24.2809 82 20.8018C82 10.418 90.418 2 100.802 2H101.198ZM101.102 11.8369C95.9626 11.8369 91.7961 16.0207 91.7959 21.1816C91.7959 26.3428 95.9624 30.5273 101.102 30.5273C106.24 30.5271 110.406 26.3426 110.406 21.1816C110.406 16.0208 106.24 11.8372 101.102 11.8369Z" fill="url(#paint2_linear_14428_4426)" style=""/>
<path d="M101.198 2C111.582 2 120 10.418 120 20.8018C120 24.2809 119.034 27.6922 117.211 30.6553L104.406 51.4639C102.844 54.0017 99.1557 54.0017 97.5938 51.4639L84.7891 30.6553C82.9658 27.6922 82 24.2809 82 20.8018C82 10.418 90.418 2 100.802 2H101.198ZM101.102 11.8369C95.9626 11.8369 91.7961 16.0207 91.7959 21.1816C91.7959 26.3428 95.9624 30.5273 101.102 30.5273C106.24 30.5271 110.406 26.3426 110.406 21.1816C110.406 16.0208 106.24 11.8372 101.102 11.8369Z" fill="url(#paint3_linear_14428_4426)" style=""/>
<path d="M101.198 2C111.582 2 120 10.418 120 20.8018C120 24.2809 119.034 27.6922 117.211 30.6553L104.406 51.4639C102.844 54.0017 99.1557 54.0017 97.5938 51.4639L84.7891 30.6553C82.9658 27.6922 82 24.2809 82 20.8018C82 10.418 90.418 2 100.802 2H101.198ZM101.102 11.8369C95.9626 11.8369 91.7961 16.0207 91.7959 21.1816C91.7959 26.3428 95.9624 30.5273 101.102 30.5273C106.24 30.5271 110.406 26.3426 110.406 21.1816C110.406 16.0208 106.24 11.8372 101.102 11.8369Z" fill="url(#paint4_linear_14428_4426)" style=""/>
<path d="M36.84 27.4106C39.7733 28.7439 42.0133 30.5573 43.56 32.8506C45.16 35.0906 45.96 37.7306 45.96 40.7706C45.96 44.1839 45 47.1706 43.08 49.7306C41.2133 52.2906 38.5467 54.2639 35.08 55.6506C31.6133 56.9839 27.5867 57.6506 23 57.6506C18.4133 57.6506 14.3867 56.9839 10.92 55.6506C7.50667 54.2639 4.86667 52.2906 3 49.7306C1.13333 47.1706 0.2 44.1839 0.2 40.7706C0.2 37.7306 0.973334 35.0906 2.52 32.8506C4.06667 30.5573 6.28 28.7439 9.16 27.4106C6.92 26.1839 5.18667 24.5839 3.96 22.6106C2.78667 20.5839 2.2 18.2639 2.2 15.6506C2.2 12.5039 3.05333 9.75725 4.76 7.41058C6.52 5.06392 8.97333 3.25058 12.12 1.97058C15.2667 0.690583 18.8933 0.0505829 23 0.0505829C27.16 0.0505829 30.8133 0.690583 33.96 1.97058C37.1067 3.25058 39.56 5.06392 41.32 7.41058C43.08 9.75725 43.96 12.5039 43.96 15.6506C43.96 18.2639 43.3467 20.5573 42.12 22.5306C40.8933 24.5039 39.1333 26.1306 36.84 27.4106ZM23 8.21058C19.7467 8.21058 17.16 8.90392 15.24 10.2906C13.3733 11.6772 12.44 13.6239 12.44 16.1306C12.44 18.5306 13.3733 20.4506 15.24 21.8906C17.16 23.2773 19.7467 23.9706 23 23.9706C26.3067 23.9706 28.92 23.2773 30.84 21.8906C32.76 20.4506 33.72 18.5306 33.72 16.1306C33.72 13.6239 32.7333 11.6772 30.76 10.2906C28.84 8.90392 26.2533 8.21058 23 8.21058ZM23 49.4906C26.84 49.4906 29.88 48.6906 32.12 47.0906C34.36 45.4906 35.48 43.2773 35.48 40.4506C35.48 37.6773 34.36 35.4906 32.12 33.8906C29.88 32.2906 26.84 31.4906 23 31.4906C19.16 31.4906 16.1467 32.2906 13.96 33.8906C11.7733 35.4906 10.68 37.6773 10.68 40.4506C10.68 43.2773 11.7733 45.4906 13.96 47.0906C16.1467 48.6906 19.16 49.4906 23 49.4906ZM76.0675 57.6506C71.5875 57.6506 67.5875 56.5306 64.0675 54.2906C60.5475 51.9973 57.7742 48.6906 55.7475 44.3706C53.7208 39.9973 52.7075 34.8239 52.7075 28.8506C52.7075 22.8773 53.7208 17.7306 55.7475 13.4106C57.7742 9.03725 60.5475 5.73058 64.0675 3.49058C67.5875 1.19725 71.5875 0.0505829 76.0675 0.0505829C80.5475 0.0505829 84.5475 1.19725 88.0675 3.49058C91.6408 5.73058 94.4408 9.03725 96.4675 13.4106C98.4942 17.7306 99.5075 22.8773 99.5075 28.8506C99.5075 34.8239 98.4942 39.9973 96.4675 44.3706C94.4408 48.6906 91.6408 51.9973 88.0675 54.2906C84.5475 56.5306 80.5475 57.6506 76.0675 57.6506ZM76.0675 48.6106C80.0675 48.6106 83.2142 46.9573 85.5075 43.6506C87.8542 40.3439 89.0275 35.4106 89.0275 28.8506C89.0275 22.2906 87.8542 17.3573 85.5075 14.0506C83.2142 10.7439 80.0675 9.09059 76.0675 9.09059C72.1208 9.09059 68.9742 10.7439 66.6275 14.0506C64.3342 17.3573 63.1875 22.2906 63.1875 28.8506C63.1875 35.4106 64.3342 40.3439 66.6275 43.6506C68.9742 46.9573 72.1208 48.6106 76.0675 48.6106Z" fill="#333333" style="fill:#333333;fill:color(display-p3 0.2000 0.2000 0.2000);fill-opacity:1;"/>
<defs>
<linearGradient id="paint0_linear_14428_4426" x1="113.27" y1="20.1276" x2="106.937" y2="55.7226" gradientUnits="userSpaceOnUse">
<stop stop-color="#C19DF7" style="stop-color:#C19DF7;stop-color:color(display-p3 0.7569 0.6157 0.9686);stop-opacity:1;"/>
<stop offset="1" stop-color="#B07BFE" style="stop-color:#B07BFE;stop-color:color(display-p3 0.6882 0.4843 0.9942);stop-opacity:1;"/>
</linearGradient>
<linearGradient id="paint1_linear_14428_4426" x1="101.1" y1="2" x2="101.1" y2="54.3594" gradientUnits="userSpaceOnUse">
<stop stop-color="#77E194" style="stop-color:#77E194;stop-color:color(display-p3 0.4685 0.8830 0.5790);stop-opacity:1;"/>
<stop offset="1" stop-color="#50D372" style="stop-color:#50D372;stop-color:color(display-p3 0.3153 0.8289 0.4489);stop-opacity:1;"/>
</linearGradient>
<linearGradient id="paint2_linear_14428_4426" x1="101.1" y1="2" x2="101.1" y2="54.3594" gradientUnits="userSpaceOnUse">
<stop stop-color="#FE6788" style="stop-color:#FE6788;stop-color:color(display-p3 0.9961 0.4039 0.5333);stop-opacity:1;"/>
<stop offset="1" stop-color="#F0446A" style="stop-color:#F0446A;stop-color:color(display-p3 0.9412 0.2667 0.4157);stop-opacity:1;"/>
</linearGradient>
<linearGradient id="paint3_linear_14428_4426" x1="101.1" y1="2" x2="101.1" y2="54.3594" gradientUnits="userSpaceOnUse">
<stop stop-color="#FFBC0E" style="stop-color:#FFBC0E;stop-color:color(display-p3 1.0000 0.7357 0.0559);stop-opacity:1;"/>
<stop offset="1" stop-color="#FF7C1E" style="stop-color:#FF7C1E;stop-color:color(display-p3 1.0000 0.4877 0.1167);stop-opacity:1;"/>
</linearGradient>
<linearGradient id="paint4_linear_14428_4426" x1="101.1" y1="2" x2="101.1" y2="54.3594" gradientUnits="userSpaceOnUse">
<stop stop-color="#FF91A9" style="stop-color:#FF91A9;stop-color:color(display-p3 1.0000 0.5686 0.6627);stop-opacity:1;"/>
<stop offset="1" stop-color="#FF698A" style="stop-color:#FF698A;stop-color:color(display-p3 1.0000 0.4118 0.5412);stop-opacity:1;"/>
</linearGradient>
</defs>
</svg>
