<svg width="1111" height="140" viewBox="0 0 1111 140" fill="none" xmlns="http://www.w3.org/2000/svg">
<path d="M1005.74 112.563C1016.62 102.513 1026.38 96.4209 1042 96.4209C1057.62 96.4209 1067.37 102.513 1078.26 112.563C1083.19 117.121 1083.87 124.597 1080.29 129.955C1079.17 131.627 1077.14 132.328 1075.13 132.328H1008.87C1006.86 132.328 1004.83 131.627 1003.71 129.955C1000.13 124.597 1000.81 117.121 1005.74 112.563Z" fill="url(#paint0_linear_14428_4416)" style=""/>
<path d="M1005.74 112.563C1016.62 102.513 1026.38 96.4209 1042 96.4209C1057.62 96.4209 1067.37 102.513 1078.26 112.563C1083.19 117.121 1083.87 124.597 1080.29 129.955C1079.17 131.627 1077.14 132.328 1075.13 132.328H1008.87C1006.86 132.328 1004.83 131.627 1003.71 129.955C1000.13 124.597 1000.81 117.121 1005.74 112.563Z" fill="url(#paint1_linear_14428_4416)" style=""/>
<path d="M1005.74 112.563C1016.62 102.513 1026.38 96.4209 1042 96.4209C1057.62 96.4209 1067.37 102.513 1078.26 112.563C1083.19 117.121 1083.87 124.597 1080.29 129.955C1079.17 131.627 1077.14 132.328 1075.13 132.328H1008.87C1006.86 132.328 1004.83 131.627 1003.71 129.955C1000.13 124.597 1000.81 117.121 1005.74 112.563Z" fill="url(#paint2_linear_14428_4416)" style=""/>
<path d="M1005.74 112.563C1016.62 102.513 1026.38 96.4209 1042 96.4209C1057.62 96.4209 1067.37 102.513 1078.26 112.563C1083.19 117.121 1083.87 124.597 1080.29 129.955C1079.17 131.627 1077.14 132.328 1075.13 132.328H1008.87C1006.86 132.328 1004.83 131.627 1003.71 129.955C1000.13 124.597 1000.81 117.121 1005.74 112.563Z" fill="url(#paint3_linear_14428_4416)" style=""/>
<path d="M1005.74 112.563C1016.62 102.513 1026.38 96.4209 1042 96.4209C1057.62 96.4209 1067.37 102.513 1078.26 112.563C1083.19 117.121 1083.87 124.597 1080.29 129.955C1079.17 131.627 1077.14 132.328 1075.13 132.328H1008.87C1006.86 132.328 1004.83 131.627 1003.71 129.955C1000.13 124.597 1000.81 117.121 1005.74 112.563Z" fill="url(#paint4_linear_14428_4416)" style=""/>
<path d="M1042 91.3954C1053.2 91.3954 1062.27 82.3525 1062.27 71.1977C1062.27 60.0428 1053.2 51 1042 51C1030.8 51 1021.73 60.0428 1021.73 71.1977C1021.73 82.3525 1030.8 91.3954 1042 91.3954Z" fill="url(#paint5_linear_14428_4416)" style=""/>
<path d="M1042 91.3954C1053.2 91.3954 1062.27 82.3525 1062.27 71.1977C1062.27 60.0428 1053.2 51 1042 51C1030.8 51 1021.73 60.0428 1021.73 71.1977C1021.73 82.3525 1030.8 91.3954 1042 91.3954Z" fill="url(#paint6_linear_14428_4416)" style=""/>
<path d="M1042 91.3954C1053.2 91.3954 1062.27 82.3525 1062.27 71.1977C1062.27 60.0428 1053.2 51 1042 51C1030.8 51 1021.73 60.0428 1021.73 71.1977C1021.73 82.3525 1030.8 91.3954 1042 91.3954Z" fill="url(#paint7_linear_14428_4416)" style=""/>
<path d="M1042 91.3954C1053.2 91.3954 1062.27 82.3525 1062.27 71.1977C1062.27 60.0428 1053.2 51 1042 51C1030.8 51 1021.73 60.0428 1021.73 71.1977C1021.73 82.3525 1030.8 91.3954 1042 91.3954Z" fill="url(#paint8_linear_14428_4416)" style=""/>
<path d="M1042 91.3954C1053.2 91.3954 1062.27 82.3525 1062.27 71.1977C1062.27 60.0428 1053.2 51 1042 51C1030.8 51 1021.73 60.0428 1021.73 71.1977C1021.73 82.3525 1030.8 91.3954 1042 91.3954Z" fill="url(#paint9_linear_14428_4416)" style=""/>
<path d="M57.2 11.8506V151.851H31.2V33.6506H1.6V11.8506H57.2ZM186.372 129.851V151.851H83.1719V134.451L138.772 81.6506C145.039 75.6506 149.239 70.4506 151.372 66.0506C153.639 61.5172 154.772 57.0506 154.772 52.6506C154.772 46.1172 152.572 41.1172 148.172 37.6506C143.772 34.1839 137.305 32.4506 128.772 32.4506C114.505 32.4506 103.572 37.3172 95.9719 47.0506L77.7719 33.0506C83.2385 25.7172 90.5719 20.0506 99.7719 16.0506C109.105 11.9172 119.505 9.85058 130.972 9.85058C146.172 9.85058 158.305 13.4506 167.372 20.6506C176.439 27.8506 180.972 37.6506 180.972 50.0506C180.972 57.6506 179.372 64.7839 176.172 71.4506C172.972 78.1172 166.839 85.7172 157.772 94.2506L120.372 129.851H186.372ZM315.052 153.851C303.852 153.851 293.852 151.051 285.052 145.451C276.252 139.717 269.318 131.451 264.252 120.651C259.185 109.717 256.652 96.7839 256.652 81.8506C256.652 66.9172 259.185 54.0506 264.252 43.2506C269.318 32.3172 276.252 24.0506 285.052 18.4506C293.852 12.7172 303.852 9.85058 315.052 9.85058C326.252 9.85058 336.252 12.7172 345.052 18.4506C353.985 24.0506 360.985 32.3172 366.052 43.2506C371.118 54.0506 373.652 66.9172 373.652 81.8506C373.652 96.7839 371.118 109.717 366.052 120.651C360.985 131.451 353.985 139.717 345.052 145.451C336.252 151.051 326.252 153.851 315.052 153.851ZM315.052 131.251C325.052 131.251 332.918 127.117 338.652 118.851C344.518 110.584 347.452 98.2506 347.452 81.8506C347.452 65.4506 344.518 53.1172 338.652 44.8506C332.918 36.5839 325.052 32.4506 315.052 32.4506C305.185 32.4506 297.318 36.5839 291.452 44.8506C285.718 53.1172 282.852 65.4506 282.852 81.8506C282.852 98.2506 285.718 110.584 291.452 118.851C297.318 127.117 305.185 131.251 315.052 131.251ZM449.622 153.851C438.422 153.851 428.422 151.051 419.622 145.451C410.822 139.717 403.889 131.451 398.822 120.651C393.755 109.717 391.222 96.7839 391.222 81.8506C391.222 66.9172 393.755 54.0506 398.822 43.2506C403.889 32.3172 410.822 24.0506 419.622 18.4506C428.422 12.7172 438.422 9.85058 449.622 9.85058C460.822 9.85058 470.822 12.7172 479.622 18.4506C488.555 24.0506 495.555 32.3172 500.622 43.2506C505.689 54.0506 508.222 66.9172 508.222 81.8506C508.222 96.7839 505.689 109.717 500.622 120.651C495.555 131.451 488.555 139.717 479.622 145.451C470.822 151.051 460.822 153.851 449.622 153.851ZM449.622 131.251C459.622 131.251 467.489 127.117 473.222 118.851C479.089 110.584 482.022 98.2506 482.022 81.8506C482.022 65.4506 479.089 53.1172 473.222 44.8506C467.489 36.5839 459.622 32.4506 449.622 32.4506C439.755 32.4506 431.889 36.5839 426.022 44.8506C420.289 53.1172 417.422 65.4506 417.422 81.8506C417.422 98.2506 420.289 110.584 426.022 118.851C431.889 127.117 439.755 131.251 449.622 131.251ZM584.192 153.851C572.992 153.851 562.992 151.051 554.192 145.451C545.392 139.717 538.459 131.451 533.392 120.651C528.326 109.717 525.792 96.7839 525.792 81.8506C525.792 66.9172 528.326 54.0506 533.392 43.2506C538.459 32.3172 545.392 24.0506 554.192 18.4506C562.992 12.7172 572.992 9.85058 584.192 9.85058C595.392 9.85058 605.392 12.7172 614.192 18.4506C623.126 24.0506 630.126 32.3172 635.192 43.2506C640.259 54.0506 642.792 66.9172 642.792 81.8506C642.792 96.7839 640.259 109.717 635.192 120.651C630.126 131.451 623.126 139.717 614.192 145.451C605.392 151.051 595.392 153.851 584.192 153.851ZM584.192 131.251C594.192 131.251 602.059 127.117 607.792 118.851C613.659 110.584 616.592 98.2506 616.592 81.8506C616.592 65.4506 613.659 53.1172 607.792 44.8506C602.059 36.5839 594.192 32.4506 584.192 32.4506C574.326 32.4506 566.459 36.5839 560.592 44.8506C554.859 53.1172 551.992 65.4506 551.992 81.8506C551.992 98.2506 554.859 110.584 560.592 118.851C566.459 127.117 574.326 131.251 584.192 131.251ZM774.036 153.851C762.836 153.851 752.836 151.051 744.036 145.451C735.236 139.717 728.303 131.451 723.236 120.651C718.169 109.717 715.636 96.7839 715.636 81.8506C715.636 66.9172 718.169 54.0506 723.236 43.2506C728.303 32.3172 735.236 24.0506 744.036 18.4506C752.836 12.7172 762.836 9.85058 774.036 9.85058C785.236 9.85058 795.236 12.7172 804.036 18.4506C812.969 24.0506 819.969 32.3172 825.036 43.2506C830.103 54.0506 832.636 66.9172 832.636 81.8506C832.636 96.7839 830.103 109.717 825.036 120.651C819.969 131.451 812.969 139.717 804.036 145.451C795.236 151.051 785.236 153.851 774.036 153.851ZM774.036 131.251C784.036 131.251 791.903 127.117 797.636 118.851C803.503 110.584 806.436 98.2506 806.436 81.8506C806.436 65.4506 803.503 53.1172 797.636 44.8506C791.903 36.5839 784.036 32.4506 774.036 32.4506C764.169 32.4506 756.303 36.5839 750.436 44.8506C744.703 53.1172 741.836 65.4506 741.836 81.8506C741.836 98.2506 744.703 110.584 750.436 118.851C756.303 127.117 764.169 131.251 774.036 131.251ZM908.606 153.851C897.406 153.851 887.406 151.051 878.606 145.451C869.806 139.717 862.873 131.451 857.806 120.651C852.74 109.717 850.206 96.7839 850.206 81.8506C850.206 66.9172 852.74 54.0506 857.806 43.2506C862.873 32.3172 869.806 24.0506 878.606 18.4506C887.406 12.7172 897.406 9.85058 908.606 9.85058C919.806 9.85058 929.806 12.7172 938.606 18.4506C947.54 24.0506 954.54 32.3172 959.606 43.2506C964.673 54.0506 967.206 66.9172 967.206 81.8506C967.206 96.7839 964.673 109.717 959.606 120.651C954.54 131.451 947.54 139.717 938.606 145.451C929.806 151.051 919.806 153.851 908.606 153.851ZM908.606 131.251C918.606 131.251 926.473 127.117 932.206 118.851C938.073 110.584 941.006 98.2506 941.006 81.8506C941.006 65.4506 938.073 53.1172 932.206 44.8506C926.473 36.5839 918.606 32.4506 908.606 32.4506C898.74 32.4506 890.873 36.5839 885.006 44.8506C879.273 53.1172 876.406 65.4506 876.406 81.8506C876.406 98.2506 879.273 110.584 885.006 118.851C890.873 127.117 898.74 131.251 908.606 131.251ZM1043.18 153.851C1031.98 153.851 1021.98 151.051 1013.18 145.451C1004.38 139.717 997.443 131.451 992.377 120.651C987.31 109.717 984.777 96.7839 984.777 81.8506C984.777 66.9172 987.31 54.0506 992.377 43.2506C997.443 32.3172 1004.38 24.0506 1013.18 18.4506C1021.98 12.7172 1031.98 9.85058 1043.18 9.85058C1054.38 9.85058 1064.38 12.7172 1073.18 18.4506C1082.11 24.0506 1089.11 32.3172 1094.18 43.2506C1099.24 54.0506 1101.78 66.9172 1101.78 81.8506C1101.78 96.7839 1099.24 109.717 1094.18 120.651C1089.11 131.451 1082.11 139.717 1073.18 145.451C1064.38 151.051 1054.38 153.851 1043.18 153.851ZM1043.18 131.251C1053.18 131.251 1061.04 127.117 1066.78 118.851C1072.64 110.584 1075.58 98.2506 1075.58 81.8506C1075.58 65.4506 1072.64 53.1172 1066.78 44.8506C1061.04 36.5839 1053.18 32.4506 1043.18 32.4506C1033.31 32.4506 1025.44 36.5839 1019.58 44.8506C1013.84 53.1172 1010.98 65.4506 1010.98 81.8506C1010.98 98.2506 1013.84 110.584 1019.58 118.851C1025.44 127.117 1033.31 131.251 1043.18 131.251Z" fill="#333333" style="fill:#333333;fill:color(display-p3 0.2000 0.2000 0.2000);fill-opacity:1;"/>
<defs>
<linearGradient id="paint0_linear_14428_4416" x1="1067.83" y1="110.218" x2="1066.55" y2="133.867" gradientUnits="userSpaceOnUse">
<stop stop-color="#C19DF7" style="stop-color:#C19DF7;stop-color:color(display-p3 0.7569 0.6157 0.9686);stop-opacity:1;"/>
<stop offset="1" stop-color="#B07BFE" style="stop-color:#B07BFE;stop-color:color(display-p3 0.6882 0.4843 0.9942);stop-opacity:1;"/>
</linearGradient>
<linearGradient id="paint1_linear_14428_4416" x1="1042" y1="96.4209" x2="1042" y2="132.328" gradientUnits="userSpaceOnUse">
<stop stop-color="#77E194" style="stop-color:#77E194;stop-color:color(display-p3 0.4685 0.8830 0.5790);stop-opacity:1;"/>
<stop offset="1" stop-color="#50D372" style="stop-color:#50D372;stop-color:color(display-p3 0.3153 0.8289 0.4489);stop-opacity:1;"/>
</linearGradient>
<linearGradient id="paint2_linear_14428_4416" x1="1042" y1="96.4209" x2="1042" y2="132.328" gradientUnits="userSpaceOnUse">
<stop stop-color="#FE6788" style="stop-color:#FE6788;stop-color:color(display-p3 0.9961 0.4039 0.5333);stop-opacity:1;"/>
<stop offset="1" stop-color="#F0446A" style="stop-color:#F0446A;stop-color:color(display-p3 0.9412 0.2667 0.4157);stop-opacity:1;"/>
</linearGradient>
<linearGradient id="paint3_linear_14428_4416" x1="1042" y1="96.4209" x2="1042" y2="132.328" gradientUnits="userSpaceOnUse">
<stop stop-color="#FFBC0E" style="stop-color:#FFBC0E;stop-color:color(display-p3 1.0000 0.7357 0.0559);stop-opacity:1;"/>
<stop offset="1" stop-color="#FF7C1E" style="stop-color:#FF7C1E;stop-color:color(display-p3 1.0000 0.4877 0.1167);stop-opacity:1;"/>
</linearGradient>
<linearGradient id="paint4_linear_14428_4416" x1="1042" y1="96.4209" x2="1042" y2="132.328" gradientUnits="userSpaceOnUse">
<stop stop-color="#FF91A9" style="stop-color:#FF91A9;stop-color:color(display-p3 1.0000 0.5686 0.6627);stop-opacity:1;"/>
<stop offset="1" stop-color="#FF698A" style="stop-color:#FF698A;stop-color:color(display-p3 1.0000 0.4118 0.5412);stop-opacity:1;"/>
</linearGradient>
<linearGradient id="paint5_linear_14428_4416" x1="1054.92" y1="66.5218" x2="1051.72" y2="92.8149" gradientUnits="userSpaceOnUse">
<stop stop-color="#C19DF7" style="stop-color:#C19DF7;stop-color:color(display-p3 0.7569 0.6157 0.9686);stop-opacity:1;"/>
<stop offset="1" stop-color="#B07BFE" style="stop-color:#B07BFE;stop-color:color(display-p3 0.6882 0.4843 0.9942);stop-opacity:1;"/>
</linearGradient>
<linearGradient id="paint6_linear_14428_4416" x1="1042" y1="51" x2="1042" y2="91.3954" gradientUnits="userSpaceOnUse">
<stop stop-color="#77E194" style="stop-color:#77E194;stop-color:color(display-p3 0.4685 0.8830 0.5790);stop-opacity:1;"/>
<stop offset="1" stop-color="#50D372" style="stop-color:#50D372;stop-color:color(display-p3 0.3153 0.8289 0.4489);stop-opacity:1;"/>
</linearGradient>
<linearGradient id="paint7_linear_14428_4416" x1="1042" y1="51" x2="1042" y2="91.3954" gradientUnits="userSpaceOnUse">
<stop stop-color="#FE6788" style="stop-color:#FE6788;stop-color:color(display-p3 0.9961 0.4039 0.5333);stop-opacity:1;"/>
<stop offset="1" stop-color="#F0446A" style="stop-color:#F0446A;stop-color:color(display-p3 0.9412 0.2667 0.4157);stop-opacity:1;"/>
</linearGradient>
<linearGradient id="paint8_linear_14428_4416" x1="1042" y1="51" x2="1042" y2="91.3954" gradientUnits="userSpaceOnUse">
<stop stop-color="#FFBC0E" style="stop-color:#FFBC0E;stop-color:color(display-p3 1.0000 0.7357 0.0559);stop-opacity:1;"/>
<stop offset="1" stop-color="#FF7C1E" style="stop-color:#FF7C1E;stop-color:color(display-p3 1.0000 0.4877 0.1167);stop-opacity:1;"/>
</linearGradient>
<linearGradient id="paint9_linear_14428_4416" x1="1042" y1="51" x2="1042" y2="91.3954" gradientUnits="userSpaceOnUse">
<stop stop-color="#FF91A9" style="stop-color:#FF91A9;stop-color:color(display-p3 1.0000 0.5686 0.6627);stop-opacity:1;"/>
<stop offset="1" stop-color="#FF698A" style="stop-color:#FF698A;stop-color:color(display-p3 1.0000 0.4118 0.5412);stop-opacity:1;"/>
</linearGradient>
</defs>
</svg>
