<svg width="232" height="106" viewBox="0 0 232 106" fill="none" xmlns="http://www.w3.org/2000/svg">
<path d="M197.234 9C216.142 9 231.47 24.4922 231.47 43.3994C231.47 49.7005 229.741 55.9275 226.473 61.3145L200.654 103.863C199.097 106.43 195.373 106.43 193.815 103.863L167.997 61.3145C164.728 55.9275 163 49.7005 163 43.3994C163 24.4923 178.327 9.00023 197.234 9ZM200.236 26.6309C191.025 26.6309 183.558 34.1302 183.558 43.3809C183.558 52.6315 191.025 60.1308 200.236 60.1309C209.448 60.1309 216.915 52.6315 216.915 43.3809C216.915 34.1302 209.448 26.6309 200.236 26.6309Z" fill="url(#paint0_linear_14428_4422)" style=""/>
<path d="M197.234 9C216.142 9 231.47 24.4922 231.47 43.3994C231.47 49.7005 229.741 55.9275 226.473 61.3145L200.654 103.863C199.097 106.43 195.373 106.43 193.815 103.863L167.997 61.3145C164.728 55.9275 163 49.7005 163 43.3994C163 24.4923 178.327 9.00023 197.234 9ZM200.236 26.6309C191.025 26.6309 183.558 34.1302 183.558 43.3809C183.558 52.6315 191.025 60.1308 200.236 60.1309C209.448 60.1309 216.915 52.6315 216.915 43.3809C216.915 34.1302 209.448 26.6309 200.236 26.6309Z" fill="url(#paint1_linear_14428_4422)" style=""/>
<path d="M197.234 9C216.142 9 231.47 24.4922 231.47 43.3994C231.47 49.7005 229.741 55.9275 226.473 61.3145L200.654 103.863C199.097 106.43 195.373 106.43 193.815 103.863L167.997 61.3145C164.728 55.9275 163 49.7005 163 43.3994C163 24.4923 178.327 9.00023 197.234 9ZM200.236 26.6309C191.025 26.6309 183.558 34.1302 183.558 43.3809C183.558 52.6315 191.025 60.1308 200.236 60.1309C209.448 60.1309 216.915 52.6315 216.915 43.3809C216.915 34.1302 209.448 26.6309 200.236 26.6309Z" fill="url(#paint2_linear_14428_4422)" style=""/>
<path d="M197.234 9C216.142 9 231.47 24.4922 231.47 43.3994C231.47 49.7005 229.741 55.9275 226.473 61.3145L200.654 103.863C199.097 106.43 195.373 106.43 193.815 103.863L167.997 61.3145C164.728 55.9275 163 49.7005 163 43.3994C163 24.4923 178.327 9.00023 197.234 9ZM200.236 26.6309C191.025 26.6309 183.558 34.1302 183.558 43.3809C183.558 52.6315 191.025 60.1308 200.236 60.1309C209.448 60.1309 216.915 52.6315 216.915 43.3809C216.915 34.1302 209.448 26.6309 200.236 26.6309Z" fill="url(#paint3_linear_14428_4422)" style=""/>
<path d="M197.234 9C216.142 9 231.47 24.4922 231.47 43.3994C231.47 49.7005 229.741 55.9275 226.473 61.3145L200.654 103.863C199.097 106.43 195.373 106.43 193.815 103.863L167.997 61.3145C164.728 55.9275 163 49.7005 163 43.3994C163 24.4923 178.327 9.00023 197.234 9ZM200.236 26.6309C191.025 26.6309 183.558 34.1302 183.558 43.3809C183.558 52.6315 191.025 60.1308 200.236 60.1309C209.448 60.1309 216.915 52.6315 216.915 43.3809C216.915 34.1302 209.448 26.6309 200.236 26.6309Z" fill="url(#paint4_linear_14428_4422)" style=""/>
<path d="M73.68 54.9706C79.5467 57.6372 84.0267 61.2639 87.12 65.8506C90.32 70.3306 91.92 75.6106 91.92 81.6906C91.92 88.5173 90 94.4906 86.16 99.6106C82.4267 104.731 77.0933 108.677 70.16 111.451C63.2267 114.117 55.1733 115.451 46 115.451C36.8267 115.451 28.7733 114.117 21.84 111.451C15.0133 108.677 9.73333 104.731 6 99.6106C2.26667 94.4906 0.4 88.5173 0.4 81.6906C0.4 75.6106 1.94667 70.3306 5.04 65.8506C8.13333 61.2639 12.56 57.6372 18.32 54.9706C13.84 52.5172 10.3733 49.3172 7.92 45.3706C5.57333 41.3172 4.4 36.6772 4.4 31.4506C4.4 25.1573 6.10667 19.6639 9.52 14.9706C13.04 10.2772 17.9467 6.65058 24.24 4.09058C30.5333 1.53058 37.7867 0.25058 46 0.25058C54.32 0.25058 61.6267 1.53058 67.92 4.09058C74.2133 6.65058 79.12 10.2772 82.64 14.9706C86.16 19.6639 87.92 25.1573 87.92 31.4506C87.92 36.6772 86.6933 41.2639 84.24 45.2106C81.7867 49.1572 78.2667 52.4106 73.68 54.9706ZM46 16.5706C39.4933 16.5706 34.32 17.9572 30.48 20.7306C26.7467 23.5039 24.88 27.3972 24.88 32.4106C24.88 37.2106 26.7467 41.0506 30.48 43.9306C34.32 46.7039 39.4933 48.0906 46 48.0906C52.6133 48.0906 57.84 46.7039 61.68 43.9306C65.52 41.0506 67.44 37.2106 67.44 32.4106C67.44 27.3972 65.4667 23.5039 61.52 20.7306C57.68 17.9572 52.5067 16.5706 46 16.5706ZM46 99.1306C53.68 99.1306 59.76 97.5306 64.24 94.3306C68.72 91.1306 70.96 86.7039 70.96 81.0506C70.96 75.5039 68.72 71.1306 64.24 67.9306C59.76 64.7306 53.68 63.1306 46 63.1306C38.32 63.1306 32.2933 64.7306 27.92 67.9306C23.5467 71.1306 21.36 75.5039 21.36 81.0506C21.36 86.7039 23.5467 91.1306 27.92 94.3306C32.2933 97.5306 38.32 99.1306 46 99.1306ZM152.135 115.451C143.175 115.451 135.175 113.211 128.135 108.731C121.095 104.144 115.548 97.5306 111.495 88.8906C107.442 80.1439 105.415 69.7973 105.415 57.8506C105.415 45.9039 107.442 35.6106 111.495 26.9706C115.548 18.2239 121.095 11.6106 128.135 7.13058C135.175 2.54391 143.175 0.25058 152.135 0.25058C161.095 0.25058 169.095 2.54391 176.135 7.13058C183.282 11.6106 188.882 18.2239 192.935 26.9706C196.988 35.6106 199.015 45.9039 199.015 57.8506C199.015 69.7973 196.988 80.1439 192.935 88.8906C188.882 97.5306 183.282 104.144 176.135 108.731C169.095 113.211 161.095 115.451 152.135 115.451ZM152.135 97.3706C160.135 97.3706 166.428 94.0639 171.015 87.4506C175.708 80.8373 178.055 70.9706 178.055 57.8506C178.055 44.7306 175.708 34.8639 171.015 28.2506C166.428 21.6373 160.135 18.3306 152.135 18.3306C144.242 18.3306 137.948 21.6373 133.255 28.2506C128.668 34.8639 126.375 44.7306 126.375 57.8506C126.375 70.9706 128.668 80.8373 133.255 87.4506C137.948 94.0639 144.242 97.3706 152.135 97.3706Z" fill="#333333" style="fill:#333333;fill:color(display-p3 0.2000 0.2000 0.2000);fill-opacity:1;"/>
<defs>
<linearGradient id="paint0_linear_14428_4422" x1="219.047" y1="42.5095" x2="206.999" y2="108.18" gradientUnits="userSpaceOnUse">
<stop stop-color="#C19DF7" style="stop-color:#C19DF7;stop-color:color(display-p3 0.7569 0.6157 0.9686);stop-opacity:1;"/>
<stop offset="1" stop-color="#B07BFE" style="stop-color:#B07BFE;stop-color:color(display-p3 0.6882 0.4843 0.9942);stop-opacity:1;"/>
</linearGradient>
<linearGradient id="paint1_linear_14428_4422" x1="197.235" y1="9" x2="197.235" y2="105.788" gradientUnits="userSpaceOnUse">
<stop stop-color="#77E194" style="stop-color:#77E194;stop-color:color(display-p3 0.4685 0.8830 0.5790);stop-opacity:1;"/>
<stop offset="1" stop-color="#50D372" style="stop-color:#50D372;stop-color:color(display-p3 0.3153 0.8289 0.4489);stop-opacity:1;"/>
</linearGradient>
<linearGradient id="paint2_linear_14428_4422" x1="197.235" y1="9" x2="197.235" y2="105.788" gradientUnits="userSpaceOnUse">
<stop stop-color="#FE6788" style="stop-color:#FE6788;stop-color:color(display-p3 0.9961 0.4039 0.5333);stop-opacity:1;"/>
<stop offset="1" stop-color="#F0446A" style="stop-color:#F0446A;stop-color:color(display-p3 0.9412 0.2667 0.4157);stop-opacity:1;"/>
</linearGradient>
<linearGradient id="paint3_linear_14428_4422" x1="197.235" y1="9" x2="197.235" y2="105.788" gradientUnits="userSpaceOnUse">
<stop stop-color="#FFBC0E" style="stop-color:#FFBC0E;stop-color:color(display-p3 1.0000 0.7357 0.0559);stop-opacity:1;"/>
<stop offset="1" stop-color="#FF7C1E" style="stop-color:#FF7C1E;stop-color:color(display-p3 1.0000 0.4877 0.1167);stop-opacity:1;"/>
</linearGradient>
<linearGradient id="paint4_linear_14428_4422" x1="197.235" y1="9" x2="197.235" y2="105.788" gradientUnits="userSpaceOnUse">
<stop stop-color="#FF91A9" style="stop-color:#FF91A9;stop-color:color(display-p3 1.0000 0.5686 0.6627);stop-opacity:1;"/>
<stop offset="1" stop-color="#FF698A" style="stop-color:#FF698A;stop-color:color(display-p3 1.0000 0.4118 0.5412);stop-opacity:1;"/>
</linearGradient>
</defs>
</svg>
