<svg width="441" height="54" viewBox="0 0 441 54" fill="none" xmlns="http://www.w3.org/2000/svg">
<path d="M398.846 41.4933C403.53 37.1681 407.73 34.5459 414.451 34.5459C421.172 34.5459 425.372 37.1681 430.056 41.4933C431.718 43.0286 432.258 45.3331 431.675 47.3679C431.121 49.3018 428.939 50 426.927 50H401.975C399.963 50 397.781 49.3018 397.227 47.3679C396.644 45.3331 397.184 43.0286 398.846 41.4933Z" fill="url(#paint0_linear_14428_4424)" style=""/>
<path d="M398.846 41.4933C403.53 37.1681 407.73 34.5459 414.451 34.5459C421.172 34.5459 425.372 37.1681 430.056 41.4933C431.718 43.0286 432.258 45.3331 431.675 47.3679C431.121 49.3018 428.939 50 426.927 50H401.975C399.963 50 397.781 49.3018 397.227 47.3679C396.644 45.3331 397.184 43.0286 398.846 41.4933Z" fill="url(#paint1_linear_14428_4424)" style=""/>
<path d="M398.846 41.4933C403.53 37.1681 407.73 34.5459 414.451 34.5459C421.172 34.5459 425.372 37.1681 430.056 41.4933C431.718 43.0286 432.258 45.3331 431.675 47.3679C431.121 49.3018 428.939 50 426.927 50H401.975C399.963 50 397.781 49.3018 397.227 47.3679C396.644 45.3331 397.184 43.0286 398.846 41.4933Z" fill="url(#paint2_linear_14428_4424)" style=""/>
<path d="M398.846 41.4933C403.53 37.1681 407.73 34.5459 414.451 34.5459C421.172 34.5459 425.372 37.1681 430.056 41.4933C431.718 43.0286 432.258 45.3331 431.675 47.3679C431.121 49.3018 428.939 50 426.927 50H401.975C399.963 50 397.781 49.3018 397.227 47.3679C396.644 45.3331 397.184 43.0286 398.846 41.4933Z" fill="url(#paint3_linear_14428_4424)" style=""/>
<path d="M398.846 41.4933C403.53 37.1681 407.73 34.5459 414.451 34.5459C421.172 34.5459 425.372 37.1681 430.056 41.4933C431.718 43.0286 432.258 45.3331 431.675 47.3679C431.121 49.3018 428.939 50 426.927 50H401.975C399.963 50 397.781 49.3018 397.227 47.3679C396.644 45.3331 397.184 43.0286 398.846 41.4933Z" fill="url(#paint4_linear_14428_4424)" style=""/>
<path d="M414.452 32.3829C419.271 32.3829 423.177 28.491 423.177 23.69C423.177 18.889 419.271 14.9971 414.452 14.9971C409.633 14.9971 405.726 18.889 405.726 23.69C405.726 28.491 409.633 32.3829 414.452 32.3829Z" fill="url(#paint5_linear_14428_4424)" style=""/>
<path d="M414.452 32.3829C419.271 32.3829 423.177 28.491 423.177 23.69C423.177 18.889 419.271 14.9971 414.452 14.9971C409.633 14.9971 405.726 18.889 405.726 23.69C405.726 28.491 409.633 32.3829 414.452 32.3829Z" fill="url(#paint6_linear_14428_4424)" style=""/>
<path d="M414.452 32.3829C419.271 32.3829 423.177 28.491 423.177 23.69C423.177 18.889 419.271 14.9971 414.452 14.9971C409.633 14.9971 405.726 18.889 405.726 23.69C405.726 28.491 409.633 32.3829 414.452 32.3829Z" fill="url(#paint7_linear_14428_4424)" style=""/>
<path d="M414.452 32.3829C419.271 32.3829 423.177 28.491 423.177 23.69C423.177 18.889 419.271 14.9971 414.452 14.9971C409.633 14.9971 405.726 18.889 405.726 23.69C405.726 28.491 409.633 32.3829 414.452 32.3829Z" fill="url(#paint8_linear_14428_4424)" style=""/>
<path d="M414.452 32.3829C419.271 32.3829 423.177 28.491 423.177 23.69C423.177 18.889 419.271 14.9971 414.452 14.9971C409.633 14.9971 405.726 18.889 405.726 23.69C405.726 28.491 409.633 32.3829 414.452 32.3829Z" fill="url(#paint9_linear_14428_4424)" style=""/>
<path d="M19.88 0.850582V56.8506H9.48V9.57058H-2.36V0.850582H19.88ZM71.5487 48.0506V56.8506H30.2688V49.8906L52.5088 28.7706C55.0154 26.3706 56.6954 24.2906 57.5488 22.5306C58.4554 20.7173 58.9088 18.9306 58.9088 17.1706C58.9088 14.5573 58.0288 12.5573 56.2688 11.1706C54.5088 9.78392 51.9221 9.09059 48.5088 9.09059C42.8021 9.09059 38.4288 11.0373 35.3888 14.9306L28.1088 9.33058C30.2954 6.39725 33.2288 4.13058 36.9088 2.53058C40.6421 0.87725 44.8021 0.0505829 49.3888 0.0505829C55.4688 0.0505829 60.3221 1.49058 63.9488 4.37058C67.5754 7.25058 69.3888 11.1706 69.3888 16.1306C69.3888 19.1706 68.7488 22.0239 67.4688 24.6906C66.1888 27.3573 63.7354 30.3973 60.1088 33.8106L45.1488 48.0506H71.5487ZM123.021 57.6506C118.541 57.6506 114.541 56.5306 111.021 54.2906C107.501 51.9973 104.727 48.6906 102.701 44.3706C100.674 39.9973 99.6606 34.8239 99.6606 28.8506C99.6606 22.8773 100.674 17.7306 102.701 13.4106C104.727 9.03725 107.501 5.73058 111.021 3.49058C114.541 1.19725 118.541 0.0505829 123.021 0.0505829C127.501 0.0505829 131.501 1.19725 135.021 3.49058C138.594 5.73058 141.394 9.03725 143.421 13.4106C145.447 17.7306 146.461 22.8773 146.461 28.8506C146.461 34.8239 145.447 39.9973 143.421 44.3706C141.394 48.6906 138.594 51.9973 135.021 54.2906C131.501 56.5306 127.501 57.6506 123.021 57.6506ZM123.021 48.6106C127.021 48.6106 130.167 46.9573 132.461 43.6506C134.807 40.3439 135.981 35.4106 135.981 28.8506C135.981 22.2906 134.807 17.3573 132.461 14.0506C130.167 10.7439 127.021 9.09059 123.021 9.09059C119.074 9.09059 115.927 10.7439 113.581 14.0506C111.287 17.3573 110.141 22.2906 110.141 28.8506C110.141 35.4106 111.287 40.3439 113.581 43.6506C115.927 46.9573 119.074 48.6106 123.021 48.6106ZM176.849 57.6506C172.369 57.6506 168.369 56.5306 164.849 54.2906C161.329 51.9973 158.555 48.6906 156.529 44.3706C154.502 39.9973 153.489 34.8239 153.489 28.8506C153.489 22.8773 154.502 17.7306 156.529 13.4106C158.555 9.03725 161.329 5.73058 164.849 3.49058C168.369 1.19725 172.369 0.0505829 176.849 0.0505829C181.329 0.0505829 185.329 1.19725 188.849 3.49058C192.422 5.73058 195.222 9.03725 197.249 13.4106C199.275 17.7306 200.289 22.8773 200.289 28.8506C200.289 34.8239 199.275 39.9973 197.249 44.3706C195.222 48.6906 192.422 51.9973 188.849 54.2906C185.329 56.5306 181.329 57.6506 176.849 57.6506ZM176.849 48.6106C180.849 48.6106 183.995 46.9573 186.289 43.6506C188.635 40.3439 189.809 35.4106 189.809 28.8506C189.809 22.2906 188.635 17.3573 186.289 14.0506C183.995 10.7439 180.849 9.09059 176.849 9.09059C172.902 9.09059 169.755 10.7439 167.409 14.0506C165.115 17.3573 163.969 22.2906 163.969 28.8506C163.969 35.4106 165.115 40.3439 167.409 43.6506C169.755 46.9573 172.902 48.6106 176.849 48.6106ZM230.677 57.6506C226.197 57.6506 222.197 56.5306 218.677 54.2906C215.157 51.9973 212.384 48.6906 210.357 44.3706C208.33 39.9973 207.317 34.8239 207.317 28.8506C207.317 22.8773 208.33 17.7306 210.357 13.4106C212.384 9.03725 215.157 5.73058 218.677 3.49058C222.197 1.19725 226.197 0.0505829 230.677 0.0505829C235.157 0.0505829 239.157 1.19725 242.677 3.49058C246.25 5.73058 249.05 9.03725 251.077 13.4106C253.104 17.7306 254.117 22.8773 254.117 28.8506C254.117 34.8239 253.104 39.9973 251.077 44.3706C249.05 48.6906 246.25 51.9973 242.677 54.2906C239.157 56.5306 235.157 57.6506 230.677 57.6506ZM230.677 48.6106C234.677 48.6106 237.824 46.9573 240.117 43.6506C242.464 40.3439 243.637 35.4106 243.637 28.8506C243.637 22.2906 242.464 17.3573 240.117 14.0506C237.824 10.7439 234.677 9.09059 230.677 9.09059C226.73 9.09059 223.584 10.7439 221.237 14.0506C218.944 17.3573 217.797 22.2906 217.797 28.8506C217.797 35.4106 218.944 40.3439 221.237 43.6506C223.584 46.9573 226.73 48.6106 230.677 48.6106ZM306.614 57.6506C302.134 57.6506 298.134 56.5306 294.614 54.2906C291.094 51.9973 288.321 48.6906 286.294 44.3706C284.268 39.9973 283.254 34.8239 283.254 28.8506C283.254 22.8773 284.268 17.7306 286.294 13.4106C288.321 9.03725 291.094 5.73058 294.614 3.49058C298.134 1.19725 302.134 0.0505829 306.614 0.0505829C311.094 0.0505829 315.094 1.19725 318.614 3.49058C322.188 5.73058 324.988 9.03725 327.014 13.4106C329.041 17.7306 330.054 22.8773 330.054 28.8506C330.054 34.8239 329.041 39.9973 327.014 44.3706C324.988 48.6906 322.188 51.9973 318.614 54.2906C315.094 56.5306 311.094 57.6506 306.614 57.6506ZM306.614 48.6106C310.614 48.6106 313.761 46.9573 316.054 43.6506C318.401 40.3439 319.574 35.4106 319.574 28.8506C319.574 22.2906 318.401 17.3573 316.054 14.0506C313.761 10.7439 310.614 9.09059 306.614 9.09059C302.668 9.09059 299.521 10.7439 297.174 14.0506C294.881 17.3573 293.734 22.2906 293.734 28.8506C293.734 35.4106 294.881 40.3439 297.174 43.6506C299.521 46.9573 302.668 48.6106 306.614 48.6106ZM360.443 57.6506C355.963 57.6506 351.963 56.5306 348.443 54.2906C344.923 51.9973 342.149 48.6906 340.123 44.3706C338.096 39.9973 337.083 34.8239 337.083 28.8506C337.083 22.8773 338.096 17.7306 340.123 13.4106C342.149 9.03725 344.923 5.73058 348.443 3.49058C351.963 1.19725 355.963 0.0505829 360.443 0.0505829C364.923 0.0505829 368.923 1.19725 372.443 3.49058C376.016 5.73058 378.816 9.03725 380.843 13.4106C382.869 17.7306 383.883 22.8773 383.883 28.8506C383.883 34.8239 382.869 39.9973 380.843 44.3706C378.816 48.6906 376.016 51.9973 372.443 54.2906C368.923 56.5306 364.923 57.6506 360.443 57.6506ZM360.443 48.6106C364.443 48.6106 367.589 46.9573 369.883 43.6506C372.229 40.3439 373.403 35.4106 373.403 28.8506C373.403 22.2906 372.229 17.3573 369.883 14.0506C367.589 10.7439 364.443 9.09059 360.443 9.09059C356.496 9.09059 353.349 10.7439 351.003 14.0506C348.709 17.3573 347.563 22.2906 347.563 28.8506C347.563 35.4106 348.709 40.3439 351.003 43.6506C353.349 46.9573 356.496 48.6106 360.443 48.6106ZM414.271 57.6506C409.791 57.6506 405.791 56.5306 402.271 54.2906C398.751 51.9973 395.977 48.6906 393.951 44.3706C391.924 39.9973 390.911 34.8239 390.911 28.8506C390.911 22.8773 391.924 17.7306 393.951 13.4106C395.977 9.03725 398.751 5.73058 402.271 3.49058C405.791 1.19725 409.791 0.0505829 414.271 0.0505829C418.751 0.0505829 422.751 1.19725 426.271 3.49058C429.844 5.73058 432.644 9.03725 434.671 13.4106C436.697 17.7306 437.711 22.8773 437.711 28.8506C437.711 34.8239 436.697 39.9973 434.671 44.3706C432.644 48.6906 429.844 51.9973 426.271 54.2906C422.751 56.5306 418.751 57.6506 414.271 57.6506ZM414.271 48.6106C418.271 48.6106 421.417 46.9573 423.711 43.6506C426.057 40.3439 427.231 35.4106 427.231 28.8506C427.231 22.2906 426.057 17.3573 423.711 14.0506C421.417 10.7439 418.271 9.09059 414.271 9.09059C410.324 9.09059 407.177 10.7439 404.831 14.0506C402.537 17.3573 401.391 22.2906 401.391 28.8506C401.391 35.4106 402.537 40.3439 404.831 43.6506C407.177 46.9573 410.324 48.6106 414.271 48.6106Z" fill="#333333" style="fill:#333333;fill:color(display-p3 0.2000 0.2000 0.2000);fill-opacity:1;"/>
<defs>
<linearGradient id="paint0_linear_14428_4424" x1="425.57" y1="40.4841" x2="425.019" y2="50.6624" gradientUnits="userSpaceOnUse">
<stop stop-color="#C19DF7" style="stop-color:#C19DF7;stop-color:color(display-p3 0.7569 0.6157 0.9686);stop-opacity:1;"/>
<stop offset="1" stop-color="#B07BFE" style="stop-color:#B07BFE;stop-color:color(display-p3 0.6882 0.4843 0.9942);stop-opacity:1;"/>
</linearGradient>
<linearGradient id="paint1_linear_14428_4424" x1="414.451" y1="34.5459" x2="414.451" y2="50" gradientUnits="userSpaceOnUse">
<stop stop-color="#77E194" style="stop-color:#77E194;stop-color:color(display-p3 0.4685 0.8830 0.5790);stop-opacity:1;"/>
<stop offset="1" stop-color="#50D372" style="stop-color:#50D372;stop-color:color(display-p3 0.3153 0.8289 0.4489);stop-opacity:1;"/>
</linearGradient>
<linearGradient id="paint2_linear_14428_4424" x1="414.451" y1="34.5459" x2="414.451" y2="50" gradientUnits="userSpaceOnUse">
<stop stop-color="#FE6788" style="stop-color:#FE6788;stop-color:color(display-p3 0.9961 0.4039 0.5333);stop-opacity:1;"/>
<stop offset="1" stop-color="#F0446A" style="stop-color:#F0446A;stop-color:color(display-p3 0.9412 0.2667 0.4157);stop-opacity:1;"/>
</linearGradient>
<linearGradient id="paint3_linear_14428_4424" x1="414.451" y1="34.5459" x2="414.451" y2="50" gradientUnits="userSpaceOnUse">
<stop stop-color="#FFBC0E" style="stop-color:#FFBC0E;stop-color:color(display-p3 1.0000 0.7357 0.0559);stop-opacity:1;"/>
<stop offset="1" stop-color="#FF7C1E" style="stop-color:#FF7C1E;stop-color:color(display-p3 1.0000 0.4877 0.1167);stop-opacity:1;"/>
</linearGradient>
<linearGradient id="paint4_linear_14428_4424" x1="414.451" y1="34.5459" x2="414.451" y2="50" gradientUnits="userSpaceOnUse">
<stop stop-color="#FF91A9" style="stop-color:#FF91A9;stop-color:color(display-p3 1.0000 0.5686 0.6627);stop-opacity:1;"/>
<stop offset="1" stop-color="#FF698A" style="stop-color:#FF698A;stop-color:color(display-p3 1.0000 0.4118 0.5412);stop-opacity:1;"/>
</linearGradient>
<linearGradient id="paint5_linear_14428_4424" x1="420.011" y1="21.6776" x2="418.633" y2="32.9939" gradientUnits="userSpaceOnUse">
<stop stop-color="#C19DF7" style="stop-color:#C19DF7;stop-color:color(display-p3 0.7569 0.6157 0.9686);stop-opacity:1;"/>
<stop offset="1" stop-color="#B07BFE" style="stop-color:#B07BFE;stop-color:color(display-p3 0.6882 0.4843 0.9942);stop-opacity:1;"/>
</linearGradient>
<linearGradient id="paint6_linear_14428_4424" x1="414.452" y1="14.9971" x2="414.452" y2="32.3829" gradientUnits="userSpaceOnUse">
<stop stop-color="#77E194" style="stop-color:#77E194;stop-color:color(display-p3 0.4685 0.8830 0.5790);stop-opacity:1;"/>
<stop offset="1" stop-color="#50D372" style="stop-color:#50D372;stop-color:color(display-p3 0.3153 0.8289 0.4489);stop-opacity:1;"/>
</linearGradient>
<linearGradient id="paint7_linear_14428_4424" x1="414.452" y1="14.9971" x2="414.452" y2="32.3829" gradientUnits="userSpaceOnUse">
<stop stop-color="#FE6788" style="stop-color:#FE6788;stop-color:color(display-p3 0.9961 0.4039 0.5333);stop-opacity:1;"/>
<stop offset="1" stop-color="#F0446A" style="stop-color:#F0446A;stop-color:color(display-p3 0.9412 0.2667 0.4157);stop-opacity:1;"/>
</linearGradient>
<linearGradient id="paint8_linear_14428_4424" x1="414.452" y1="14.9971" x2="414.452" y2="32.3829" gradientUnits="userSpaceOnUse">
<stop stop-color="#FFBC0E" style="stop-color:#FFBC0E;stop-color:color(display-p3 1.0000 0.7357 0.0559);stop-opacity:1;"/>
<stop offset="1" stop-color="#FF7C1E" style="stop-color:#FF7C1E;stop-color:color(display-p3 1.0000 0.4877 0.1167);stop-opacity:1;"/>
</linearGradient>
<linearGradient id="paint9_linear_14428_4424" x1="414.452" y1="14.9971" x2="414.452" y2="32.3829" gradientUnits="userSpaceOnUse">
<stop stop-color="#FF91A9" style="stop-color:#FF91A9;stop-color:color(display-p3 1.0000 0.5686 0.6627);stop-opacity:1;"/>
<stop offset="1" stop-color="#FF698A" style="stop-color:#FF698A;stop-color:color(display-p3 1.0000 0.4118 0.5412);stop-opacity:1;"/>
</linearGradient>
</defs>
</svg>
