<svg width="68" height="68" viewBox="0 0 68 68" fill="none" xmlns="http://www.w3.org/2000/svg">
<g clip-path="url(#clip0_12025_5912)">
<path fill-rule="evenodd" clip-rule="evenodd" d="M59.5686 9.43138C60.4613 10.324 60.4613 11.7712 59.5686 12.6639L33.6639 38.5686C32.7712 39.4613 31.324 39.4613 30.4314 38.5686C29.5387 37.676 29.5387 36.2288 30.4314 35.3361L56.3361 9.43138C57.2288 8.53875 58.676 8.53875 59.5686 9.43138Z" fill="#FFAB13" style="fill:#FFAB13;fill:color(display-p3 1.0000 0.6706 0.0745);fill-opacity:1;"/>
<path fill-rule="evenodd" clip-rule="evenodd" d="M54.1429 30.8571C52.8805 30.8571 51.8571 31.8805 51.8571 33.1429C51.8571 34.4052 52.8805 35.4286 54.1429 35.4286C55.4052 35.4286 56.4286 34.4052 56.4286 33.1429C56.4286 31.8805 55.4052 30.8571 54.1429 30.8571ZM47.2857 33.1429C47.2857 29.3558 50.3558 26.2857 54.1429 26.2857C57.93 26.2857 61 29.3558 61 33.1429C61 36.93 57.93 40 54.1429 40C50.3558 40 47.2857 36.93 47.2857 33.1429Z" fill="#FFAB13" style="fill:#FFAB13;fill:color(display-p3 1.0000 0.6706 0.0745);fill-opacity:1;"/>
<path fill-rule="evenodd" clip-rule="evenodd" d="M35.8571 12.5714C34.5948 12.5714 33.5714 13.5948 33.5714 14.8571C33.5714 16.1195 34.5948 17.1429 35.8571 17.1429C37.1195 17.1429 38.1429 16.1195 38.1429 14.8571C38.1429 13.5948 37.1195 12.5714 35.8571 12.5714ZM29 14.8571C29 11.07 32.07 8 35.8571 8C39.6442 8 42.7143 11.07 42.7143 14.8571C42.7143 18.6442 39.6442 21.7143 35.8571 21.7143C32.07 21.7143 29 18.6442 29 14.8571Z" fill="#FFAB13" style="fill:#FFAB13;fill:color(display-p3 1.0000 0.6706 0.0745);fill-opacity:1;"/>
<path d="M24.5 2H61.5C63.7091 2 65.5 3.79086 65.5 6V42" stroke="url(#paint0_linear_12025_5912)" style="" stroke-width="3" stroke-linecap="round" stroke-dasharray="3 5"/>
<path d="M22.4004 1.19981C23.0596 0.70557 24 1.17563 24 1.99961V40.6734C25.4555 41.3649 26.6337 42.5442 27.3252 43.9996H66C66.824 43.9996 67.294 44.94 66.7998 45.5992L63.7998 49.5992C63.611 49.851 63.3148 49.9996 63 49.9996H27.3252C26.5562 51.6181 25.1845 52.8932 23.5 53.5377V55.0758C23.826 55.0255 24.16 54.9996 24.5 54.9996C28.0899 54.9996 31 57.9098 31 61.4996C31 65.0895 28.0899 67.9996 24.5 67.9996C21.0785 67.9996 18.2769 65.3557 18.0215 61.9996H18V53.3248C16.5447 52.6333 15.3663 51.4549 14.6748 49.9996H6V49.9781C2.64387 49.7227 1.49561e-07 46.9212 0 43.4996C2.2107e-07 39.9098 2.91015 36.9996 6.5 36.9996C10.0899 36.9996 13 39.9098 13 43.4996C13 43.8397 12.9742 44.1737 12.9238 44.4996H14.4609C15.1055 42.8148 16.3812 41.4425 18 40.6734V4.99961C18 4.68485 18.1486 4.38866 18.4004 4.19981L22.4004 1.19981ZM24.5 57.9996C22.567 57.9996 21 59.5666 21 61.4996C21 63.4326 22.567 64.9996 24.5 64.9996C26.433 64.9996 28 63.4326 28 61.4996C28 59.5666 26.433 57.9996 24.5 57.9996ZM6.5 39.9996C4.567 39.9996 3 41.5666 3 43.4996C3 45.4326 4.567 46.9996 6.5 46.9996C8.433 46.9996 10 45.4326 10 43.4996C10 41.5666 8.433 39.9996 6.5 39.9996Z" fill="#D9D9D9" style="fill:#D9D9D9;fill:color(display-p3 0.8510 0.8510 0.8510);fill-opacity:1;"/>
<path d="M22.4004 1.19981C23.0596 0.70557 24 1.17563 24 1.99961V40.6734C25.4555 41.3649 26.6337 42.5442 27.3252 43.9996H66C66.824 43.9996 67.294 44.94 66.7998 45.5992L63.7998 49.5992C63.611 49.851 63.3148 49.9996 63 49.9996H27.3252C26.5562 51.6181 25.1845 52.8932 23.5 53.5377V55.0758C23.826 55.0255 24.16 54.9996 24.5 54.9996C28.0899 54.9996 31 57.9098 31 61.4996C31 65.0895 28.0899 67.9996 24.5 67.9996C21.0785 67.9996 18.2769 65.3557 18.0215 61.9996H18V53.3248C16.5447 52.6333 15.3663 51.4549 14.6748 49.9996H6V49.9781C2.64387 49.7227 1.49561e-07 46.9212 0 43.4996C2.2107e-07 39.9098 2.91015 36.9996 6.5 36.9996C10.0899 36.9996 13 39.9098 13 43.4996C13 43.8397 12.9742 44.1737 12.9238 44.4996H14.4609C15.1055 42.8148 16.3812 41.4425 18 40.6734V4.99961C18 4.68485 18.1486 4.38866 18.4004 4.19981L22.4004 1.19981ZM24.5 57.9996C22.567 57.9996 21 59.5666 21 61.4996C21 63.4326 22.567 64.9996 24.5 64.9996C26.433 64.9996 28 63.4326 28 61.4996C28 59.5666 26.433 57.9996 24.5 57.9996ZM6.5 39.9996C4.567 39.9996 3 41.5666 3 43.4996C3 45.4326 4.567 46.9996 6.5 46.9996C8.433 46.9996 10 45.4326 10 43.4996C10 41.5666 8.433 39.9996 6.5 39.9996Z" fill="url(#paint1_linear_12025_5912)" style=""/>
</g>
<defs>
<linearGradient id="paint0_linear_12025_5912" x1="59.1222" y1="-10.4444" x2="45.6386" y2="42.1636" gradientUnits="userSpaceOnUse">
<stop stop-color="#FFBC0E" style="stop-color:#FFBC0E;stop-color:color(display-p3 1.0000 0.7357 0.0559);stop-opacity:1;"/>
<stop offset="1" stop-color="#FF7C1E" style="stop-color:#FF7C1E;stop-color:color(display-p3 1.0000 0.4877 0.1167);stop-opacity:1;"/>
</linearGradient>
<linearGradient id="paint1_linear_12025_5912" x1="56.5791" y1="-19.8468" x2="33.5009" y2="67.9995" gradientUnits="userSpaceOnUse">
<stop stop-color="#FFBC0E" style="stop-color:#FFBC0E;stop-color:color(display-p3 1.0000 0.7357 0.0559);stop-opacity:1;"/>
<stop offset="1" stop-color="#FF7C1E" style="stop-color:#FF7C1E;stop-color:color(display-p3 1.0000 0.4877 0.1167);stop-opacity:1;"/>
</linearGradient>
<clipPath id="clip0_12025_5912">
<rect width="68" height="68" fill="white" style="fill:white;fill-opacity:1;"/>
</clipPath>
</defs>
</svg>
