<svg width="68" height="68" viewBox="0 0 68 68" fill="none" xmlns="http://www.w3.org/2000/svg">
<path d="M2.23132 7.66192C2.6694 3.86518 5.88419 1 9.70611 1H58.2939C62.1158 1 65.3306 3.86518 65.7687 7.66191L67.0328 18.6174C67.3745 21.5792 63.8913 23.4092 61.6463 21.4472C60.4171 20.3729 58.5829 20.3729 57.3537 21.4472L55.25 23.2857C52.8159 25.413 49.1841 25.413 46.75 23.2857C44.3159 21.1585 40.6841 21.1585 38.25 23.2857C35.8159 25.413 32.1841 25.413 29.75 23.2857C27.3159 21.1585 23.6841 21.1585 21.25 23.2857C18.8159 25.413 15.1841 25.413 12.75 23.2857L10.6463 21.4472C9.41709 20.3729 7.58292 20.3729 6.35367 21.4472C4.10875 23.4092 0.625476 21.5792 0.96722 18.6175L2.23132 7.66192Z" fill="url(#paint0_linear_12030_5963)" style=""/>
<path d="M57.3535 24.8054C58.5827 23.7311 60.4173 23.7311 61.6465 24.8054C62.6673 25.6975 63.9431 25.8035 65 25.3776V59.9997C65 64.418 61.4183 67.9997 57 67.9997H12C7.58173 67.9997 4 64.418 4 59.9997V25.6101C4.80132 25.6673 5.63983 25.4291 6.35352 24.8054C7.58274 23.7311 9.41727 23.7311 10.6465 24.8054L12.75 26.6442C15.108 28.705 18.5903 28.7696 21.0186 26.8376L21.4814 26.4509C23.8314 24.5812 27.1686 24.5812 29.5186 26.4509L29.9814 26.8376C32.3314 28.7072 35.6686 28.7072 38.0186 26.8376L38.4814 26.4509C40.8314 24.5812 44.1686 24.5812 46.5186 26.4509L46.9814 26.8376C49.4097 28.7696 52.892 28.705 55.25 26.6442L57.3535 24.8054Z" fill="url(#paint1_linear_12030_5963)" style=""/>
<g filter="url(#filter0_ii_12030_5963)">
<path d="M50.997 39.0881L45.3086 35.1609C44.3805 34.5199 42.8905 34 41.9811 34H40.3352C40.2522 36.3393 37.4502 38.2196 33.9996 38.2196C30.5481 38.2196 27.746 36.3385 27.6639 34C27.6639 34 26.9269 34 26.0181 34C25.1093 34 23.6195 34.5198 22.6903 35.1609L17.0028 39.0881C16.0745 39.729 15.8386 41.0037 16.4776 41.934L18.1247 44.3351C18.764 45.2657 20.1072 45.627 21.1255 45.1401L24.2661 43.0519V57.9564C24.2661 59.0845 25.1812 60 26.3097 60H32.3135H35.6867H41.6906C42.8195 60 43.7341 59.0845 43.7341 57.9564V43.0513L46.8746 45.1402C47.8932 45.6257 49.237 45.266 49.8755 44.3346L51.5232 41.9334C52.1612 41.0029 51.9251 39.729 50.997 39.0881Z" fill="#E1CEFF" fill-opacity="0.4" style="fill:#E1CEFF;fill:color(display-p3 0.8836 0.8060 1.0000);fill-opacity:0.4;"/>
</g>
<defs>
<filter id="filter0_ii_12030_5963" x="8.11812" y="26" width="51.7637" height="42" filterUnits="userSpaceOnUse" color-interpolation-filters="sRGB">
<feFlood flood-opacity="0" result="BackgroundImageFix"/>
<feBlend mode="normal" in="SourceGraphic" in2="BackgroundImageFix" result="shape"/>
<feColorMatrix in="SourceAlpha" type="matrix" values="0 0 0 0 0 0 0 0 0 0 0 0 0 0 0 0 0 0 127 0" result="hardAlpha"/>
<feOffset/>
<feGaussianBlur stdDeviation="2"/>
<feComposite in2="hardAlpha" operator="arithmetic" k2="-1" k3="1"/>
<feColorMatrix type="matrix" values="0 0 0 0 1 0 0 0 0 1 0 0 0 0 1 0 0 0 1 0"/>
<feBlend mode="normal" in2="shape" result="effect1_innerShadow_12030_5963"/>
<feColorMatrix in="SourceAlpha" type="matrix" values="0 0 0 0 0 0 0 0 0 0 0 0 0 0 0 0 0 0 127 0" result="hardAlpha"/>
<feOffset dy="1"/>
<feGaussianBlur stdDeviation="2"/>
<feComposite in2="hardAlpha" operator="arithmetic" k2="-1" k3="1"/>
<feColorMatrix type="matrix" values="0 0 0 0 1 0 0 0 0 1 0 0 0 0 1 0 0 0 1 0"/>
<feBlend mode="normal" in2="effect1_innerShadow_12030_5963" result="effect2_innerShadow_12030_5963"/>
</filter>
<linearGradient id="paint0_linear_12030_5963" x1="34" y1="1" x2="34" y2="67.9997" gradientUnits="userSpaceOnUse">
<stop stop-color="#FFBC0E" style="stop-color:#FFBC0E;stop-color:color(display-p3 1.0000 0.7357 0.0559);stop-opacity:1;"/>
<stop offset="1" stop-color="#FF7C1E" style="stop-color:#FF7C1E;stop-color:color(display-p3 1.0000 0.4877 0.1167);stop-opacity:1;"/>
</linearGradient>
<linearGradient id="paint1_linear_12030_5963" x1="34" y1="1" x2="34" y2="67.9997" gradientUnits="userSpaceOnUse">
<stop stop-color="#FFBC0E" style="stop-color:#FFBC0E;stop-color:color(display-p3 1.0000 0.7357 0.0559);stop-opacity:1;"/>
<stop offset="1" stop-color="#FF7C1E" style="stop-color:#FF7C1E;stop-color:color(display-p3 1.0000 0.4877 0.1167);stop-opacity:1;"/>
</linearGradient>
</defs>
</svg>
