<svg width="83" height="117" viewBox="0 0 83 117" fill="none" xmlns="http://www.w3.org/2000/svg">
<path d="M41.7256 0C64.4531 6.52236e-05 82.877 18.459 82.877 41.1865C82.8769 48.7489 80.7956 56.175 76.8604 62.6328L45.1416 114.685C43.5828 117.243 39.8684 117.243 38.3096 114.685L6.59082 62.6328C2.65556 56.1749 0.573293 48.749 0.573242 41.1865C0.573242 18.4589 18.998 0 41.7256 0ZM41.7275 21.1025C30.6551 21.1025 21.6787 30.079 21.6787 41.1514C21.679 52.2236 30.6553 61.1992 41.7275 61.1992C52.7998 61.1992 61.7751 52.2235 61.7754 41.1514C61.7754 30.079 52.7999 21.1026 41.7275 21.1025Z" fill="url(#paint0_linear_12173_8424)" style=""/>
<path d="M41.7256 0C64.4531 6.52236e-05 82.877 18.459 82.877 41.1865C82.8769 48.7489 80.7956 56.175 76.8604 62.6328L45.1416 114.685C43.5828 117.243 39.8684 117.243 38.3096 114.685L6.59082 62.6328C2.65556 56.1749 0.573293 48.749 0.573242 41.1865C0.573242 18.4589 18.998 0 41.7256 0ZM41.7275 21.1025C30.6551 21.1025 21.6787 30.079 21.6787 41.1514C21.679 52.2236 30.6553 61.1992 41.7275 61.1992C52.7998 61.1992 61.7751 52.2235 61.7754 41.1514C61.7754 30.079 52.7999 21.1026 41.7275 21.1025Z" fill="url(#paint1_linear_12173_8424)" style=""/>
<path d="M41.7256 0C64.4531 6.52236e-05 82.877 18.459 82.877 41.1865C82.8769 48.7489 80.7956 56.175 76.8604 62.6328L45.1416 114.685C43.5828 117.243 39.8684 117.243 38.3096 114.685L6.59082 62.6328C2.65556 56.1749 0.573293 48.749 0.573242 41.1865C0.573242 18.4589 18.998 0 41.7256 0ZM41.7275 21.1025C30.6551 21.1025 21.6787 30.079 21.6787 41.1514C21.679 52.2236 30.6553 61.1992 41.7275 61.1992C52.7998 61.1992 61.7751 52.2235 61.7754 41.1514C61.7754 30.079 52.7999 21.1026 41.7275 21.1025Z" fill="url(#paint2_linear_12173_8424)" style=""/>
<path d="M41.7256 0C64.4531 6.52236e-05 82.877 18.459 82.877 41.1865C82.8769 48.7489 80.7956 56.175 76.8604 62.6328L45.1416 114.685C43.5828 117.243 39.8684 117.243 38.3096 114.685L6.59082 62.6328C2.65556 56.1749 0.573293 48.749 0.573242 41.1865C0.573242 18.4589 18.998 0 41.7256 0ZM41.7275 21.1025C30.6551 21.1025 21.6787 30.079 21.6787 41.1514C21.679 52.2236 30.6553 61.1992 41.7275 61.1992C52.7998 61.1992 61.7751 52.2235 61.7754 41.1514C61.7754 30.079 52.7999 21.1026 41.7275 21.1025Z" fill="url(#paint3_linear_12173_8424)" style=""/>
<path d="M41.7256 0C64.4531 6.52236e-05 82.877 18.459 82.877 41.1865C82.8769 48.7489 80.7956 56.175 76.8604 62.6328L45.1416 114.685C43.5828 117.243 39.8684 117.243 38.3096 114.685L6.59082 62.6328C2.65556 56.1749 0.573293 48.749 0.573242 41.1865C0.573242 18.4589 18.998 0 41.7256 0ZM41.7275 21.1025C30.6551 21.1025 21.6787 30.079 21.6787 41.1514C21.679 52.2236 30.6553 61.1992 41.7275 61.1992C52.7998 61.1992 61.7751 52.2235 61.7754 41.1514C61.7754 30.079 52.7999 21.1026 41.7275 21.1025Z" fill="url(#paint4_linear_12173_8424)" style=""/>
<defs>
<linearGradient id="paint0_linear_12173_8424" x1="67.9448" y1="40.3698" x2="53.3996" y2="119.473" gradientUnits="userSpaceOnUse">
<stop stop-color="#C19DF7" style="stop-color:#C19DF7;stop-color:color(display-p3 0.7569 0.6157 0.9686);stop-opacity:1;"/>
<stop offset="1" stop-color="#B07BFE" style="stop-color:#B07BFE;stop-color:color(display-p3 0.6882 0.4843 0.9942);stop-opacity:1;"/>
</linearGradient>
<linearGradient id="paint1_linear_12173_8424" x1="41.7251" y1="0" x2="41.7251" y2="116.603" gradientUnits="userSpaceOnUse">
<stop stop-color="#77E194" style="stop-color:#77E194;stop-color:color(display-p3 0.4685 0.8830 0.5790);stop-opacity:1;"/>
<stop offset="1" stop-color="#50D372" style="stop-color:#50D372;stop-color:color(display-p3 0.3153 0.8289 0.4489);stop-opacity:1;"/>
</linearGradient>
<linearGradient id="paint2_linear_12173_8424" x1="41.7251" y1="0" x2="41.7251" y2="116.603" gradientUnits="userSpaceOnUse">
<stop stop-color="#FE6788" style="stop-color:#FE6788;stop-color:color(display-p3 0.9961 0.4039 0.5333);stop-opacity:1;"/>
<stop offset="1" stop-color="#F0446A" style="stop-color:#F0446A;stop-color:color(display-p3 0.9412 0.2667 0.4157);stop-opacity:1;"/>
</linearGradient>
<linearGradient id="paint3_linear_12173_8424" x1="41.7251" y1="0" x2="41.7251" y2="116.603" gradientUnits="userSpaceOnUse">
<stop stop-color="#FFBC0E" style="stop-color:#FFBC0E;stop-color:color(display-p3 1.0000 0.7357 0.0559);stop-opacity:1;"/>
<stop offset="1" stop-color="#FF7C1E" style="stop-color:#FF7C1E;stop-color:color(display-p3 1.0000 0.4877 0.1167);stop-opacity:1;"/>
</linearGradient>
<linearGradient id="paint4_linear_12173_8424" x1="41.7251" y1="0" x2="41.7251" y2="116.603" gradientUnits="userSpaceOnUse">
<stop stop-color="#FF91A9" style="stop-color:#FF91A9;stop-color:color(display-p3 1.0000 0.5686 0.6627);stop-opacity:1;"/>
<stop offset="1" stop-color="#FF698A" style="stop-color:#FF698A;stop-color:color(display-p3 1.0000 0.4118 0.5412);stop-opacity:1;"/>
</linearGradient>
</defs>
</svg>
