<svg width="82" height="82" viewBox="0 0 82 82" fill="none" xmlns="http://www.w3.org/2000/svg">
<path d="M4.74262 61.563C15.6249 51.5135 25.3837 45.4209 40.9999 45.4209C56.6161 45.4209 66.3748 51.5135 77.2571 61.563C82.1927 66.1209 82.8693 73.597 79.2868 78.955C78.1687 80.6273 76.14 81.3279 74.1283 81.3279H7.87148C5.85977 81.3279 3.83108 80.6273 2.71292 78.955C-0.869556 73.597 -0.192989 66.1209 4.74262 61.563Z" fill="url(#paint0_linear_12173_8406)" style=""/>
<path d="M4.74262 61.563C15.6249 51.5135 25.3837 45.4209 40.9999 45.4209C56.6161 45.4209 66.3748 51.5135 77.2571 61.563C82.1927 66.1209 82.8693 73.597 79.2868 78.955C78.1687 80.6273 76.14 81.3279 74.1283 81.3279H7.87148C5.85977 81.3279 3.83108 80.6273 2.71292 78.955C-0.869556 73.597 -0.192989 66.1209 4.74262 61.563Z" fill="url(#paint1_linear_12173_8406)" style=""/>
<path d="M4.74262 61.563C15.6249 51.5135 25.3837 45.4209 40.9999 45.4209C56.6161 45.4209 66.3748 51.5135 77.2571 61.563C82.1927 66.1209 82.8693 73.597 79.2868 78.955C78.1687 80.6273 76.14 81.3279 74.1283 81.3279H7.87148C5.85977 81.3279 3.83108 80.6273 2.71292 78.955C-0.869556 73.597 -0.192989 66.1209 4.74262 61.563Z" fill="url(#paint2_linear_12173_8406)" style=""/>
<path d="M4.74262 61.563C15.6249 51.5135 25.3837 45.4209 40.9999 45.4209C56.6161 45.4209 66.3748 51.5135 77.2571 61.563C82.1927 66.1209 82.8693 73.597 79.2868 78.955C78.1687 80.6273 76.14 81.3279 74.1283 81.3279H7.87148C5.85977 81.3279 3.83108 80.6273 2.71292 78.955C-0.869556 73.597 -0.192989 66.1209 4.74262 61.563Z" fill="url(#paint3_linear_12173_8406)" style=""/>
<path d="M4.74262 61.563C15.6249 51.5135 25.3837 45.4209 40.9999 45.4209C56.6161 45.4209 66.3748 51.5135 77.2571 61.563C82.1927 66.1209 82.8693 73.597 79.2868 78.955C78.1687 80.6273 76.14 81.3279 74.1283 81.3279H7.87148C5.85977 81.3279 3.83108 80.6273 2.71292 78.955C-0.869556 73.597 -0.192989 66.1209 4.74262 61.563Z" fill="url(#paint4_linear_12173_8406)" style=""/>
<path d="M41.0012 40.3954C52.1979 40.3954 61.2747 31.3525 61.2747 20.1977C61.2747 9.04281 52.1979 0 41.0012 0C29.8044 0 20.7277 9.04281 20.7277 20.1977C20.7277 31.3525 29.8044 40.3954 41.0012 40.3954Z" fill="url(#paint5_linear_12173_8406)" style=""/>
<path d="M41.0012 40.3954C52.1979 40.3954 61.2747 31.3525 61.2747 20.1977C61.2747 9.04281 52.1979 0 41.0012 0C29.8044 0 20.7277 9.04281 20.7277 20.1977C20.7277 31.3525 29.8044 40.3954 41.0012 40.3954Z" fill="url(#paint6_linear_12173_8406)" style=""/>
<path d="M41.0012 40.3954C52.1979 40.3954 61.2747 31.3525 61.2747 20.1977C61.2747 9.04281 52.1979 0 41.0012 0C29.8044 0 20.7277 9.04281 20.7277 20.1977C20.7277 31.3525 29.8044 40.3954 41.0012 40.3954Z" fill="url(#paint7_linear_12173_8406)" style=""/>
<path d="M41.0012 40.3954C52.1979 40.3954 61.2747 31.3525 61.2747 20.1977C61.2747 9.04281 52.1979 0 41.0012 0C29.8044 0 20.7277 9.04281 20.7277 20.1977C20.7277 31.3525 29.8044 40.3954 41.0012 40.3954Z" fill="url(#paint8_linear_12173_8406)" style=""/>
<path d="M41.0012 40.3954C52.1979 40.3954 61.2747 31.3525 61.2747 20.1977C61.2747 9.04281 52.1979 0 41.0012 0C29.8044 0 20.7277 9.04281 20.7277 20.1977C20.7277 31.3525 29.8044 40.3954 41.0012 40.3954Z" fill="url(#paint9_linear_12173_8406)" style=""/>
<defs>
<linearGradient id="paint0_linear_12173_8406" x1="66.8342" y1="59.2181" x2="65.5542" y2="82.867" gradientUnits="userSpaceOnUse">
<stop stop-color="#C19DF7" style="stop-color:#C19DF7;stop-color:color(display-p3 0.7569 0.6157 0.9686);stop-opacity:1;"/>
<stop offset="1" stop-color="#B07BFE" style="stop-color:#B07BFE;stop-color:color(display-p3 0.6882 0.4843 0.9942);stop-opacity:1;"/>
</linearGradient>
<linearGradient id="paint1_linear_12173_8406" x1="40.9999" y1="45.4209" x2="40.9999" y2="81.3279" gradientUnits="userSpaceOnUse">
<stop stop-color="#77E194" style="stop-color:#77E194;stop-color:color(display-p3 0.4685 0.8830 0.5790);stop-opacity:1;"/>
<stop offset="1" stop-color="#50D372" style="stop-color:#50D372;stop-color:color(display-p3 0.3153 0.8289 0.4489);stop-opacity:1;"/>
</linearGradient>
<linearGradient id="paint2_linear_12173_8406" x1="40.9999" y1="45.4209" x2="40.9999" y2="81.3279" gradientUnits="userSpaceOnUse">
<stop stop-color="#FE6788" style="stop-color:#FE6788;stop-color:color(display-p3 0.9961 0.4039 0.5333);stop-opacity:1;"/>
<stop offset="1" stop-color="#F0446A" style="stop-color:#F0446A;stop-color:color(display-p3 0.9412 0.2667 0.4157);stop-opacity:1;"/>
</linearGradient>
<linearGradient id="paint3_linear_12173_8406" x1="40.9999" y1="45.4209" x2="40.9999" y2="81.3279" gradientUnits="userSpaceOnUse">
<stop stop-color="#FFBC0E" style="stop-color:#FFBC0E;stop-color:color(display-p3 1.0000 0.7357 0.0559);stop-opacity:1;"/>
<stop offset="1" stop-color="#FF7C1E" style="stop-color:#FF7C1E;stop-color:color(display-p3 1.0000 0.4877 0.1167);stop-opacity:1;"/>
</linearGradient>
<linearGradient id="paint4_linear_12173_8406" x1="40.9999" y1="45.4209" x2="40.9999" y2="81.3279" gradientUnits="userSpaceOnUse">
<stop stop-color="#FF91A9" style="stop-color:#FF91A9;stop-color:color(display-p3 1.0000 0.5686 0.6627);stop-opacity:1;"/>
<stop offset="1" stop-color="#FF698A" style="stop-color:#FF698A;stop-color:color(display-p3 1.0000 0.4118 0.5412);stop-opacity:1;"/>
</linearGradient>
<linearGradient id="paint5_linear_12173_8406" x1="53.9183" y1="15.5218" x2="50.7163" y2="41.8149" gradientUnits="userSpaceOnUse">
<stop stop-color="#C19DF7" style="stop-color:#C19DF7;stop-color:color(display-p3 0.7569 0.6157 0.9686);stop-opacity:1;"/>
<stop offset="1" stop-color="#B07BFE" style="stop-color:#B07BFE;stop-color:color(display-p3 0.6882 0.4843 0.9942);stop-opacity:1;"/>
</linearGradient>
<linearGradient id="paint6_linear_12173_8406" x1="41.0012" y1="0" x2="41.0012" y2="40.3954" gradientUnits="userSpaceOnUse">
<stop stop-color="#77E194" style="stop-color:#77E194;stop-color:color(display-p3 0.4685 0.8830 0.5790);stop-opacity:1;"/>
<stop offset="1" stop-color="#50D372" style="stop-color:#50D372;stop-color:color(display-p3 0.3153 0.8289 0.4489);stop-opacity:1;"/>
</linearGradient>
<linearGradient id="paint7_linear_12173_8406" x1="41.0012" y1="0" x2="41.0012" y2="40.3954" gradientUnits="userSpaceOnUse">
<stop stop-color="#FE6788" style="stop-color:#FE6788;stop-color:color(display-p3 0.9961 0.4039 0.5333);stop-opacity:1;"/>
<stop offset="1" stop-color="#F0446A" style="stop-color:#F0446A;stop-color:color(display-p3 0.9412 0.2667 0.4157);stop-opacity:1;"/>
</linearGradient>
<linearGradient id="paint8_linear_12173_8406" x1="41.0012" y1="0" x2="41.0012" y2="40.3954" gradientUnits="userSpaceOnUse">
<stop stop-color="#FFBC0E" style="stop-color:#FFBC0E;stop-color:color(display-p3 1.0000 0.7357 0.0559);stop-opacity:1;"/>
<stop offset="1" stop-color="#FF7C1E" style="stop-color:#FF7C1E;stop-color:color(display-p3 1.0000 0.4877 0.1167);stop-opacity:1;"/>
</linearGradient>
<linearGradient id="paint9_linear_12173_8406" x1="41.0012" y1="0" x2="41.0012" y2="40.3954" gradientUnits="userSpaceOnUse">
<stop stop-color="#FF91A9" style="stop-color:#FF91A9;stop-color:color(display-p3 1.0000 0.5686 0.6627);stop-opacity:1;"/>
<stop offset="1" stop-color="#FF698A" style="stop-color:#FF698A;stop-color:color(display-p3 1.0000 0.4118 0.5412);stop-opacity:1;"/>
</linearGradient>
</defs>
</svg>
