<svg width="69" height="97" viewBox="0 0 69 97" fill="none" xmlns="http://www.w3.org/2000/svg">
<path d="M34.2344 0C53.1416 0 68.4697 15.4922 68.4697 34.3994C68.4697 40.7005 66.7413 46.9275 63.4727 52.3145L37.6543 94.8633C36.0969 97.4298 32.3729 97.4298 30.8154 94.8633L4.99707 52.3145C1.7284 46.9275 3.48792e-05 40.7005 0 34.3994C0 15.4923 15.3273 0.000231571 34.2344 0ZM37.2363 17.6309C28.0252 17.6309 20.5576 25.1302 20.5576 34.3809C20.5576 43.6315 28.0252 51.1308 37.2363 51.1309C46.4475 51.1309 53.915 43.6315 53.915 34.3809C53.915 25.1302 46.4475 17.6309 37.2363 17.6309Z" fill="url(#paint0_linear_12186_6280)" style=""/>
<path d="M34.2344 0C53.1416 0 68.4697 15.4922 68.4697 34.3994C68.4697 40.7005 66.7413 46.9275 63.4727 52.3145L37.6543 94.8633C36.0969 97.4298 32.3729 97.4298 30.8154 94.8633L4.99707 52.3145C1.7284 46.9275 3.48792e-05 40.7005 0 34.3994C0 15.4923 15.3273 0.000231571 34.2344 0ZM37.2363 17.6309C28.0252 17.6309 20.5576 25.1302 20.5576 34.3809C20.5576 43.6315 28.0252 51.1308 37.2363 51.1309C46.4475 51.1309 53.915 43.6315 53.915 34.3809C53.915 25.1302 46.4475 17.6309 37.2363 17.6309Z" fill="url(#paint1_linear_12186_6280)" style=""/>
<path d="M34.2344 0C53.1416 0 68.4697 15.4922 68.4697 34.3994C68.4697 40.7005 66.7413 46.9275 63.4727 52.3145L37.6543 94.8633C36.0969 97.4298 32.3729 97.4298 30.8154 94.8633L4.99707 52.3145C1.7284 46.9275 3.48792e-05 40.7005 0 34.3994C0 15.4923 15.3273 0.000231571 34.2344 0ZM37.2363 17.6309C28.0252 17.6309 20.5576 25.1302 20.5576 34.3809C20.5576 43.6315 28.0252 51.1308 37.2363 51.1309C46.4475 51.1309 53.915 43.6315 53.915 34.3809C53.915 25.1302 46.4475 17.6309 37.2363 17.6309Z" fill="url(#paint2_linear_12186_6280)" style=""/>
<path d="M34.2344 0C53.1416 0 68.4697 15.4922 68.4697 34.3994C68.4697 40.7005 66.7413 46.9275 63.4727 52.3145L37.6543 94.8633C36.0969 97.4298 32.3729 97.4298 30.8154 94.8633L4.99707 52.3145C1.7284 46.9275 3.48792e-05 40.7005 0 34.3994C0 15.4923 15.3273 0.000231571 34.2344 0ZM37.2363 17.6309C28.0252 17.6309 20.5576 25.1302 20.5576 34.3809C20.5576 43.6315 28.0252 51.1308 37.2363 51.1309C46.4475 51.1309 53.915 43.6315 53.915 34.3809C53.915 25.1302 46.4475 17.6309 37.2363 17.6309Z" fill="url(#paint3_linear_12186_6280)" style=""/>
<path d="M34.2344 0C53.1416 0 68.4697 15.4922 68.4697 34.3994C68.4697 40.7005 66.7413 46.9275 63.4727 52.3145L37.6543 94.8633C36.0969 97.4298 32.3729 97.4298 30.8154 94.8633L4.99707 52.3145C1.7284 46.9275 3.48792e-05 40.7005 0 34.3994C0 15.4923 15.3273 0.000231571 34.2344 0ZM37.2363 17.6309C28.0252 17.6309 20.5576 25.1302 20.5576 34.3809C20.5576 43.6315 28.0252 51.1308 37.2363 51.1309C46.4475 51.1309 53.915 43.6315 53.915 34.3809C53.915 25.1302 46.4475 17.6309 37.2363 17.6309Z" fill="url(#paint4_linear_12186_6280)" style=""/>
<defs>
<linearGradient id="paint0_linear_12186_6280" x1="56.0474" y1="33.5095" x2="43.9991" y2="99.1799" gradientUnits="userSpaceOnUse">
<stop stop-color="#C19DF7" style="stop-color:#C19DF7;stop-color:color(display-p3 0.7569 0.6157 0.9686);stop-opacity:1;"/>
<stop offset="1" stop-color="#B07BFE" style="stop-color:#B07BFE;stop-color:color(display-p3 0.6882 0.4843 0.9942);stop-opacity:1;"/>
</linearGradient>
<linearGradient id="paint1_linear_12186_6280" x1="34.2349" y1="0" x2="34.2349" y2="96.7882" gradientUnits="userSpaceOnUse">
<stop stop-color="#77E194" style="stop-color:#77E194;stop-color:color(display-p3 0.4685 0.8830 0.5790);stop-opacity:1;"/>
<stop offset="1" stop-color="#50D372" style="stop-color:#50D372;stop-color:color(display-p3 0.3153 0.8289 0.4489);stop-opacity:1;"/>
</linearGradient>
<linearGradient id="paint2_linear_12186_6280" x1="34.2349" y1="0" x2="34.2349" y2="96.7882" gradientUnits="userSpaceOnUse">
<stop stop-color="#FE6788" style="stop-color:#FE6788;stop-color:color(display-p3 0.9961 0.4039 0.5333);stop-opacity:1;"/>
<stop offset="1" stop-color="#F0446A" style="stop-color:#F0446A;stop-color:color(display-p3 0.9412 0.2667 0.4157);stop-opacity:1;"/>
</linearGradient>
<linearGradient id="paint3_linear_12186_6280" x1="34.2349" y1="0" x2="34.2349" y2="96.7882" gradientUnits="userSpaceOnUse">
<stop stop-color="#FFBC0E" style="stop-color:#FFBC0E;stop-color:color(display-p3 1.0000 0.7357 0.0559);stop-opacity:1;"/>
<stop offset="1" stop-color="#FF7C1E" style="stop-color:#FF7C1E;stop-color:color(display-p3 1.0000 0.4877 0.1167);stop-opacity:1;"/>
</linearGradient>
<linearGradient id="paint4_linear_12186_6280" x1="34.2349" y1="0" x2="34.2349" y2="96.7882" gradientUnits="userSpaceOnUse">
<stop stop-color="#FF91A9" style="stop-color:#FF91A9;stop-color:color(display-p3 1.0000 0.5686 0.6627);stop-opacity:1;"/>
<stop offset="1" stop-color="#FF698A" style="stop-color:#FF698A;stop-color:color(display-p3 1.0000 0.4118 0.5412);stop-opacity:1;"/>
</linearGradient>
</defs>
</svg>
