<svg width="92" height="87" viewBox="0 0 92 87" fill="none" xmlns="http://www.w3.org/2000/svg">
<path d="M3.86296 6.79713C4.68402 2.83841 8.17155 0 12.2145 0H79.7068C83.7498 0 87.2373 2.83841 88.0584 6.79713L91.8527 25.0909C92.4482 27.9623 89.0359 29.9307 86.8484 27.9776C83.9633 25.4016 79.6042 25.4016 76.7191 27.9776L75.8132 28.7864C72.4121 31.8231 67.2734 31.8231 63.8722 28.7864C60.4711 25.7497 55.3323 25.7497 51.9312 28.7864C48.5301 31.8231 43.3913 31.8231 39.9902 28.7864C36.589 25.7497 31.4503 25.7497 28.0491 28.7864C24.648 31.8231 19.5092 31.8231 16.1081 28.7864L15.2023 27.9776C12.3171 25.4016 7.95805 25.4016 5.07294 27.9776C2.88545 29.9307 -0.526862 27.9623 0.0686922 25.0909L3.86296 6.79713Z" fill="url(#paint0_linear_12186_6274)" style=""/>
<path d="M76.7195 31.3893C79.6044 28.8139 83.9631 28.8139 86.848 31.3893C86.865 31.4045 86.8842 31.4179 86.9013 31.4326V80.1763C86.9012 83.9446 83.8463 86.9997 80.0779 86.9997H11.8435C8.07507 86.9997 5.02017 83.9446 5.02001 80.1763V31.4326C5.03715 31.4179 5.05633 31.4045 5.07332 31.3893C7.95827 28.8139 12.3169 28.8139 15.2019 31.3893L16.1081 32.1989C19.5092 35.2355 24.648 35.2355 28.0491 32.1989C31.4503 29.1622 36.589 29.1622 39.9902 32.1989C43.3913 35.2355 48.5301 35.2355 51.9312 32.1989C55.3323 29.1622 60.4711 29.1622 63.8722 32.1989C67.2733 35.2355 72.4122 35.2355 75.8132 32.1989L76.7195 31.3893Z" fill="url(#paint1_linear_12186_6274)" style=""/>
<defs>
<linearGradient id="paint0_linear_12186_6274" x1="45.9607" y1="0" x2="45.9607" y2="86.9997" gradientUnits="userSpaceOnUse">
<stop stop-color="#FF91A9" style="stop-color:#FF91A9;stop-color:color(display-p3 1.0000 0.5686 0.6627);stop-opacity:1;"/>
<stop offset="1" stop-color="#FF698A" style="stop-color:#FF698A;stop-color:color(display-p3 1.0000 0.4118 0.5412);stop-opacity:1;"/>
</linearGradient>
<linearGradient id="paint1_linear_12186_6274" x1="45.9607" y1="0" x2="45.9607" y2="86.9997" gradientUnits="userSpaceOnUse">
<stop stop-color="#FF91A9" style="stop-color:#FF91A9;stop-color:color(display-p3 1.0000 0.5686 0.6627);stop-opacity:1;"/>
<stop offset="1" stop-color="#FF698A" style="stop-color:#FF698A;stop-color:color(display-p3 1.0000 0.4118 0.5412);stop-opacity:1;"/>
</linearGradient>
</defs>
</svg>
