<svg width="118" height="88" viewBox="0 0 118 88" fill="none" xmlns="http://www.w3.org/2000/svg">
<path d="M50.543 8.65188C38.9806 -2.88396 20.2342 -2.88396 8.6718 8.65188C-2.8906 20.1877 -2.8906 38.891 8.6718 50.4269L19.2388 60.8838C13.4172 55.0755 13.4172 45.6585 19.2388 39.8502C24.6608 34.4407 33.292 34.1998 39.3067 39.5086L50.3964 50.5729C56.218 56.3812 65.6568 56.3812 71.4784 50.5729C77.3 44.7647 77.3 35.3476 71.4784 29.5394L50.543 8.65188Z" fill="#FF698A" style="fill:#FF698A;fill:color(display-p3 1.0000 0.4118 0.5412);fill-opacity:1;"/>
<path d="M108.518 8.65188C96.956 -2.88396 78.2097 -2.88396 66.6473 8.65188L58.5952 16.6855L71.4786 29.5394C77.3002 35.3476 77.3002 44.7647 71.4786 50.5729C70.7509 51.299 69.9667 51.9342 69.1401 52.4788C63.3538 56.2904 55.4905 55.6551 50.3966 50.5729L39.3068 39.5086C33.3295 34.2328 24.768 34.4379 19.3404 39.7501C19.3065 39.7833 19.2727 39.8167 19.239 39.8502C14.8728 44.2064 13.7812 50.5926 15.9644 55.9637C16.6921 57.7541 17.7836 59.4317 19.239 60.8838L36.2077 77.8135C36.2507 77.8563 36.2938 77.8988 36.3371 77.941C36.7597 78.4207 37.2005 78.89 37.6595 79.348C49.2219 90.8838 67.9683 90.8838 79.5307 79.348L108.518 50.4269C120.081 38.891 120.081 20.1877 108.518 8.65188Z" fill="#FF91A9" style="fill:#FF91A9;fill:color(display-p3 1.0000 0.5690 0.6639);fill-opacity:1;"/>
</svg>
