<svg width="118" height="111" viewBox="0 0 118 111" fill="none" xmlns="http://www.w3.org/2000/svg">
<path d="M4.9286 8.6722C5.97617 3.62142 10.4258 0 15.5841 0H101.695C106.853 0 111.303 3.62142 112.35 8.6722L117.191 32.0126C117.951 35.6761 113.598 38.1875 110.807 35.6956C107.126 32.409 101.564 32.409 97.8831 35.6956L96.7273 36.7275C92.3879 40.602 85.8316 40.602 81.4922 36.7275C77.1528 32.8531 70.5965 32.8531 66.2571 36.7275C61.9177 40.602 55.3614 40.602 51.022 36.7275C46.6826 32.8531 40.1262 32.8531 35.7869 36.7275C31.4475 40.602 24.8911 40.602 20.5517 36.7275L19.396 35.6956C15.715 32.409 10.1534 32.409 6.47237 35.6956C3.68144 38.1875 -0.672203 35.6761 0.0876418 32.0126L4.9286 8.6722Z" fill="url(#paint0_linear_12173_8415)" style=""/>
<path d="M97.8836 40.0485C101.564 36.7626 107.125 36.7626 110.806 40.0485C110.828 40.0678 110.852 40.085 110.874 40.1037V102.294C110.874 107.102 106.976 111 102.168 111H15.1106C10.3027 111 6.40504 107.102 6.40485 102.294V40.1037C6.42671 40.085 6.45118 40.0678 6.47286 40.0485C10.1537 36.7626 15.7147 36.7626 19.3955 40.0485L20.5517 41.0814C24.8911 44.9557 31.4475 44.9557 35.7869 41.0814C40.1262 37.207 46.6826 37.207 51.022 41.0814C55.3613 44.9557 61.9178 44.9557 66.2571 41.0814C70.5965 37.207 77.1528 37.207 81.4922 41.0814C85.8315 44.9557 92.388 44.9557 96.7273 41.0814L97.8836 40.0485Z" fill="url(#paint1_linear_12173_8415)" style=""/>
<defs>
<linearGradient id="paint0_linear_12173_8415" x1="58.6395" y1="0" x2="58.6395" y2="111" gradientUnits="userSpaceOnUse">
<stop stop-color="#FF91A9" style="stop-color:#FF91A9;stop-color:color(display-p3 1.0000 0.5686 0.6627);stop-opacity:1;"/>
<stop offset="1" stop-color="#FF698A" style="stop-color:#FF698A;stop-color:color(display-p3 1.0000 0.4118 0.5412);stop-opacity:1;"/>
</linearGradient>
<linearGradient id="paint1_linear_12173_8415" x1="58.6395" y1="0" x2="58.6395" y2="111" gradientUnits="userSpaceOnUse">
<stop stop-color="#FF91A9" style="stop-color:#FF91A9;stop-color:color(display-p3 1.0000 0.5686 0.6627);stop-opacity:1;"/>
<stop offset="1" stop-color="#FF698A" style="stop-color:#FF698A;stop-color:color(display-p3 1.0000 0.4118 0.5412);stop-opacity:1;"/>
</linearGradient>
</defs>
</svg>
