<svg width="148" height="111" viewBox="0 0 148 111" fill="none" xmlns="http://www.w3.org/2000/svg">
<path d="M63.7531 10.9132C49.1687 -3.63772 25.5227 -3.63772 10.9383 10.9132C-3.6461 25.4641 -3.6461 49.0557 10.9383 63.6066L24.2672 76.7966C16.924 69.4703 16.924 57.592 24.2672 50.2656C31.1063 43.4423 41.9933 43.1384 49.58 49.8348L63.5682 63.7909C70.9114 71.1172 82.8171 71.1172 90.1603 63.7909C97.5035 56.4645 97.5035 44.5862 90.1603 37.2599L63.7531 10.9132Z" fill="#FF698A" style="fill:#FF698A;fill:color(display-p3 1.0000 0.4118 0.5412);fill-opacity:1;"/>
<path d="M136.881 10.9132C122.297 -3.63772 98.6507 -3.63772 84.0663 10.9132L73.9097 21.0465L90.1604 37.2599C97.5036 44.5862 97.5036 56.4645 90.1604 63.7909C89.2425 64.7066 88.2533 65.508 87.2107 66.1948C79.9121 71.0027 69.9936 70.2014 63.5683 63.7909L49.5801 49.8348C42.0405 43.18 31.2414 43.4388 24.3951 50.1393C24.3523 50.1812 24.3097 50.2233 24.2673 50.2656C18.7599 55.7604 17.383 63.8156 20.1367 70.5906C21.0546 72.849 22.4315 74.965 24.2673 76.7966L45.671 98.1512C45.7251 98.2052 45.7795 98.2588 45.8342 98.312C46.3672 98.9171 46.9232 99.509 47.5023 100.087C62.0867 114.638 85.7326 114.638 100.317 100.087L136.881 63.6066C151.466 49.0557 151.466 25.4641 136.881 10.9132Z" fill="#FF91A9" style="fill:#FF91A9;fill:color(display-p3 1.0000 0.5690 0.6639);fill-opacity:1;"/>
</svg>
