<svg width="70" height="70" viewBox="0 0 70 70" fill="none" xmlns="http://www.w3.org/2000/svg">
<path d="M3.69224 52.9884C13.0588 44.3387 21.4583 39.0947 34.8993 39.0947C48.3404 39.0947 56.7399 44.3387 66.1065 52.9884C70.2432 56.8086 70.9038 63.0104 68.0885 67.5914C67.0352 69.3053 64.9893 70.0003 62.9776 70.0003H6.82109C4.80938 70.0003 2.76346 69.3053 1.71014 67.5914C-1.10516 63.0104 -0.444467 56.8086 3.69224 52.9884Z" fill="url(#paint0_linear_12186_6265)" style=""/>
<path d="M3.69224 52.9884C13.0588 44.3387 21.4583 39.0947 34.8993 39.0947C48.3404 39.0947 56.7399 44.3387 66.1065 52.9884C70.2432 56.8086 70.9038 63.0104 68.0885 67.5914C67.0352 69.3053 64.9893 70.0003 62.9776 70.0003H6.82109C4.80938 70.0003 2.76346 69.3053 1.71014 67.5914C-1.10516 63.0104 -0.444467 56.8086 3.69224 52.9884Z" fill="url(#paint1_linear_12186_6265)" style=""/>
<path d="M3.69224 52.9884C13.0588 44.3387 21.4583 39.0947 34.8993 39.0947C48.3404 39.0947 56.7399 44.3387 66.1065 52.9884C70.2432 56.8086 70.9038 63.0104 68.0885 67.5914C67.0352 69.3053 64.9893 70.0003 62.9776 70.0003H6.82109C4.80938 70.0003 2.76346 69.3053 1.71014 67.5914C-1.10516 63.0104 -0.444467 56.8086 3.69224 52.9884Z" fill="url(#paint2_linear_12186_6265)" style=""/>
<path d="M3.69224 52.9884C13.0588 44.3387 21.4583 39.0947 34.8993 39.0947C48.3404 39.0947 56.7399 44.3387 66.1065 52.9884C70.2432 56.8086 70.9038 63.0104 68.0885 67.5914C67.0352 69.3053 64.9893 70.0003 62.9776 70.0003H6.82109C4.80938 70.0003 2.76346 69.3053 1.71014 67.5914C-1.10516 63.0104 -0.444467 56.8086 3.69224 52.9884Z" fill="url(#paint3_linear_12186_6265)" style=""/>
<path d="M3.69224 52.9884C13.0588 44.3387 21.4583 39.0947 34.8993 39.0947C48.3404 39.0947 56.7399 44.3387 66.1065 52.9884C70.2432 56.8086 70.9038 63.0104 68.0885 67.5914C67.0352 69.3053 64.9893 70.0003 62.9776 70.0003H6.82109C4.80938 70.0003 2.76346 69.3053 1.71014 67.5914C-1.10516 63.0104 -0.444467 56.8086 3.69224 52.9884Z" fill="url(#paint4_linear_12186_6265)" style=""/>
<path d="M34.9004 34.7688C44.5375 34.7688 52.35 26.9856 52.35 17.3844C52.35 7.78327 44.5375 0 34.9004 0C25.2632 0 17.4507 7.78327 17.4507 17.3844C17.4507 26.9856 25.2632 34.7688 34.9004 34.7688Z" fill="url(#paint5_linear_12186_6265)" style=""/>
<path d="M34.9004 34.7688C44.5375 34.7688 52.35 26.9856 52.35 17.3844C52.35 7.78327 44.5375 0 34.9004 0C25.2632 0 17.4507 7.78327 17.4507 17.3844C17.4507 26.9856 25.2632 34.7688 34.9004 34.7688Z" fill="url(#paint6_linear_12186_6265)" style=""/>
<path d="M34.9004 34.7688C44.5375 34.7688 52.35 26.9856 52.35 17.3844C52.35 7.78327 44.5375 0 34.9004 0C25.2632 0 17.4507 7.78327 17.4507 17.3844C17.4507 26.9856 25.2632 34.7688 34.9004 34.7688Z" fill="url(#paint7_linear_12186_6265)" style=""/>
<path d="M34.9004 34.7688C44.5375 34.7688 52.35 26.9856 52.35 17.3844C52.35 7.78327 44.5375 0 34.9004 0C25.2632 0 17.4507 7.78327 17.4507 17.3844C17.4507 26.9856 25.2632 34.7688 34.9004 34.7688Z" fill="url(#paint8_linear_12186_6265)" style=""/>
<path d="M34.9004 34.7688C44.5375 34.7688 52.35 26.9856 52.35 17.3844C52.35 7.78327 44.5375 0 34.9004 0C25.2632 0 17.4507 7.78327 17.4507 17.3844C17.4507 26.9856 25.2632 34.7688 34.9004 34.7688Z" fill="url(#paint9_linear_12186_6265)" style=""/>
<defs>
<linearGradient id="paint0_linear_12186_6265" x1="57.1353" y1="50.9702" x2="56.0336" y2="71.3251" gradientUnits="userSpaceOnUse">
<stop stop-color="#C19DF7" style="stop-color:#C19DF7;stop-color:color(display-p3 0.7569 0.6157 0.9686);stop-opacity:1;"/>
<stop offset="1" stop-color="#B07BFE" style="stop-color:#B07BFE;stop-color:color(display-p3 0.6882 0.4843 0.9942);stop-opacity:1;"/>
</linearGradient>
<linearGradient id="paint1_linear_12186_6265" x1="34.8993" y1="39.0947" x2="34.8993" y2="70.0003" gradientUnits="userSpaceOnUse">
<stop stop-color="#77E194" style="stop-color:#77E194;stop-color:color(display-p3 0.4685 0.8830 0.5790);stop-opacity:1;"/>
<stop offset="1" stop-color="#50D372" style="stop-color:#50D372;stop-color:color(display-p3 0.3153 0.8289 0.4489);stop-opacity:1;"/>
</linearGradient>
<linearGradient id="paint2_linear_12186_6265" x1="34.8993" y1="39.0947" x2="34.8993" y2="70.0003" gradientUnits="userSpaceOnUse">
<stop stop-color="#FE6788" style="stop-color:#FE6788;stop-color:color(display-p3 0.9961 0.4039 0.5333);stop-opacity:1;"/>
<stop offset="1" stop-color="#F0446A" style="stop-color:#F0446A;stop-color:color(display-p3 0.9412 0.2667 0.4157);stop-opacity:1;"/>
</linearGradient>
<linearGradient id="paint3_linear_12186_6265" x1="34.8993" y1="39.0947" x2="34.8993" y2="70.0003" gradientUnits="userSpaceOnUse">
<stop stop-color="#FFBC0E" style="stop-color:#FFBC0E;stop-color:color(display-p3 1.0000 0.7357 0.0559);stop-opacity:1;"/>
<stop offset="1" stop-color="#FF7C1E" style="stop-color:#FF7C1E;stop-color:color(display-p3 1.0000 0.4877 0.1167);stop-opacity:1;"/>
</linearGradient>
<linearGradient id="paint4_linear_12186_6265" x1="34.8993" y1="39.0947" x2="34.8993" y2="70.0003" gradientUnits="userSpaceOnUse">
<stop stop-color="#FF91A9" style="stop-color:#FF91A9;stop-color:color(display-p3 1.0000 0.5686 0.6627);stop-opacity:1;"/>
<stop offset="1" stop-color="#FF698A" style="stop-color:#FF698A;stop-color:color(display-p3 1.0000 0.4118 0.5412);stop-opacity:1;"/>
</linearGradient>
<linearGradient id="paint5_linear_12186_6265" x1="46.0183" y1="13.3599" x2="43.2623" y2="35.9906" gradientUnits="userSpaceOnUse">
<stop stop-color="#C19DF7" style="stop-color:#C19DF7;stop-color:color(display-p3 0.7569 0.6157 0.9686);stop-opacity:1;"/>
<stop offset="1" stop-color="#B07BFE" style="stop-color:#B07BFE;stop-color:color(display-p3 0.6882 0.4843 0.9942);stop-opacity:1;"/>
</linearGradient>
<linearGradient id="paint6_linear_12186_6265" x1="34.9004" y1="0" x2="34.9004" y2="34.7688" gradientUnits="userSpaceOnUse">
<stop stop-color="#77E194" style="stop-color:#77E194;stop-color:color(display-p3 0.4685 0.8830 0.5790);stop-opacity:1;"/>
<stop offset="1" stop-color="#50D372" style="stop-color:#50D372;stop-color:color(display-p3 0.3153 0.8289 0.4489);stop-opacity:1;"/>
</linearGradient>
<linearGradient id="paint7_linear_12186_6265" x1="34.9004" y1="0" x2="34.9004" y2="34.7688" gradientUnits="userSpaceOnUse">
<stop stop-color="#FE6788" style="stop-color:#FE6788;stop-color:color(display-p3 0.9961 0.4039 0.5333);stop-opacity:1;"/>
<stop offset="1" stop-color="#F0446A" style="stop-color:#F0446A;stop-color:color(display-p3 0.9412 0.2667 0.4157);stop-opacity:1;"/>
</linearGradient>
<linearGradient id="paint8_linear_12186_6265" x1="34.9004" y1="0" x2="34.9004" y2="34.7688" gradientUnits="userSpaceOnUse">
<stop stop-color="#FFBC0E" style="stop-color:#FFBC0E;stop-color:color(display-p3 1.0000 0.7357 0.0559);stop-opacity:1;"/>
<stop offset="1" stop-color="#FF7C1E" style="stop-color:#FF7C1E;stop-color:color(display-p3 1.0000 0.4877 0.1167);stop-opacity:1;"/>
</linearGradient>
<linearGradient id="paint9_linear_12186_6265" x1="34.9004" y1="0" x2="34.9004" y2="34.7688" gradientUnits="userSpaceOnUse">
<stop stop-color="#FF91A9" style="stop-color:#FF91A9;stop-color:color(display-p3 1.0000 0.5686 0.6627);stop-opacity:1;"/>
<stop offset="1" stop-color="#FF698A" style="stop-color:#FF698A;stop-color:color(display-p3 1.0000 0.4118 0.5412);stop-opacity:1;"/>
</linearGradient>
</defs>
</svg>
