<svg width="192" height="144" viewBox="0 0 192 144" fill="none" xmlns="http://www.w3.org/2000/svg">
<path d="M82.7623 14.1195C63.8929 -4.70651 33.2995 -4.70651 14.4301 14.1195C-4.43928 32.9456 -4.43928 63.4687 14.4301 82.2947L31.6751 99.3601C22.1745 89.8812 22.1745 74.5129 31.6751 65.0341C40.5236 56.206 54.6094 55.8129 64.4251 64.4766L82.5231 82.5331C92.0238 92.012 107.427 92.012 116.928 82.5331C126.429 73.0543 126.429 57.686 116.928 48.2071L82.7623 14.1195Z" fill="#FF698A" style="fill:#FF698A;fill:color(display-p3 1.0000 0.4118 0.5412);fill-opacity:1;"/>
<path d="M177.376 14.1195C158.506 -4.70651 127.913 -4.70651 109.044 14.1195L95.9028 27.2302L116.928 48.2071C126.429 57.686 126.429 73.0543 116.928 82.5331C115.741 83.718 114.461 84.7547 113.112 85.6434C103.669 91.8639 90.8362 90.8271 82.5231 82.5331L64.425 64.4766C54.6702 55.8666 40.6982 56.2014 31.8404 64.8706C31.7851 64.9248 31.73 64.9793 31.6751 65.0341C24.5496 72.1432 22.7682 82.5652 26.3309 91.3307C27.5185 94.2526 29.2999 96.9904 31.6751 99.3601L59.3674 126.989C59.4374 127.059 59.5078 127.128 59.5785 127.197C60.2681 127.98 60.9875 128.746 61.7367 129.493C80.6061 148.319 111.199 148.319 130.069 129.493L177.376 82.2947C196.245 63.4687 196.245 32.9456 177.376 14.1195Z" fill="#FF91A9" style="fill:#FF91A9;fill:color(display-p3 1.0000 0.5690 0.6639);fill-opacity:1;"/>
</svg>
