<svg width="168" height="126" viewBox="0 0 168 126" fill="none" xmlns="http://www.w3.org/2000/svg">
<path d="M72.4254 12.3913C55.927 -4.06922 29.1778 -4.06922 12.6795 12.3913C-3.81893 28.8517 -3.81893 55.5394 12.6795 71.9999L27.7575 86.9209C19.4507 78.6331 19.4507 65.1959 27.7575 56.9081C35.4941 49.1893 47.81 48.8456 56.3923 56.4207L72.2163 72.2083C80.5231 80.4961 93.9913 80.4961 102.298 72.2083C110.605 63.9206 110.605 50.4834 102.298 42.1956L72.4254 12.3913Z" fill="#FF698A" style="fill:#FF698A;fill:color(display-p3 1.0000 0.4118 0.5412);fill-opacity:1;"/>
<path d="M155.151 12.3913C138.653 -4.06922 111.904 -4.06922 95.4053 12.3913L83.9157 23.8545L102.299 42.1956C110.606 50.4834 110.606 63.9206 102.299 72.2083C101.261 73.2443 100.142 74.1508 98.9622 74.9278C90.7058 80.3666 79.4857 79.4602 72.2172 72.2083L56.3932 56.4207C47.8642 48.8926 35.6478 49.1854 27.9031 56.7652C27.8547 56.8126 27.8065 56.8602 27.7585 56.9081C21.5283 63.124 19.9708 72.2364 23.0859 79.9005C24.1242 82.4552 25.6818 84.849 27.7585 86.9209L51.9711 111.078C52.0324 111.139 52.0939 111.2 52.1557 111.26C52.7587 111.944 53.3877 112.614 54.0427 113.267C70.5411 129.728 97.2902 129.728 113.789 113.267L155.151 71.9999C171.65 55.5394 171.65 28.8517 155.151 12.3913Z" fill="#FF91A9" style="fill:#FF91A9;fill:color(display-p3 1.0000 0.5690 0.6639);fill-opacity:1;"/>
</svg>
