<svg width="148" height="112" viewBox="0 0 148 112" fill="none" xmlns="http://www.w3.org/2000/svg">
<path d="M63.8116 11.4518C49.2891 -3.03733 25.7435 -3.03733 11.221 11.4518C-3.30153 25.941 -3.30153 49.4325 11.221 63.9217L24.4933 77.0557C17.1813 69.7605 17.1813 57.9325 24.4933 50.6373C31.3034 43.8429 42.1442 43.5404 49.6987 50.2083L63.6276 64.1051C70.9396 71.4004 82.7948 71.4004 90.1068 64.1051C97.4188 56.8099 97.4188 44.982 90.1068 37.6867L63.8116 11.4518Z" fill="#FF698A" style="fill:#FF698A;fill:color(display-p3 1.0000 0.4118 0.5412);fill-opacity:1;"/>
<path d="M136.63 11.4518C122.107 -3.03733 98.5616 -3.03733 84.0391 11.4518L73.9255 21.5422L90.1073 37.6867C97.4193 44.982 97.4193 56.8099 90.1073 64.1051C89.1933 65.017 88.2083 65.8149 87.1701 66.4989C79.9024 71.2864 70.0261 70.4885 63.6281 64.1051L49.6992 50.2083C42.1916 43.5817 31.4383 43.8394 24.6211 50.5115C24.5785 50.5532 24.5361 50.5951 24.4938 50.6373C19.0098 56.1087 17.6388 64.1298 20.3808 70.876C21.2948 73.1248 22.6658 75.2319 24.4938 77.0557L45.8067 98.3196C45.8606 98.3734 45.9147 98.4268 45.9691 98.4798C46.4999 99.0823 47.0536 99.6717 47.6302 100.247C62.1527 114.736 85.6983 114.736 100.221 100.247L136.63 63.9217C151.152 49.4325 151.152 25.941 136.63 11.4518Z" fill="#FF91A9" style="fill:#FF91A9;fill:color(display-p3 1.0000 0.5690 0.6639);fill-opacity:1;"/>
</svg>
