<svg width="27" height="26" viewBox="0 0 27 26" fill="none" xmlns="http://www.w3.org/2000/svg">
<rect x="0.5" width="26" height="26" rx="13" fill="#FF698A" style="fill:#FF698A;fill:color(display-p3 1.0000 0.4118 0.5412);fill-opacity:1;"/>
<path d="M6.79583 16.3883C8.81473 14.5292 10.6252 13.4022 13.5223 13.4022C16.4194 13.4022 18.2299 14.5292 20.2488 16.3883C20.9674 17.05 21.1993 18.0442 20.9446 18.9206C20.7044 19.747 19.7711 20.0446 18.9105 20.0446H8.1341C7.27353 20.0446 6.34018 19.747 6.09999 18.9206C5.84527 18.0442 6.07722 17.05 6.79583 16.3883Z" fill="white" style="fill:white;fill-opacity:1;"/>
<path d="M13.5223 12.4727C15.5995 12.4727 17.2834 10.7999 17.2834 8.73634C17.2834 6.67282 15.5995 5 13.5223 5C11.445 5 9.76111 6.67282 9.76111 8.73634C9.76111 10.7999 11.445 12.4727 13.5223 12.4727Z" fill="white" style="fill:white;fill-opacity:1;"/>
</svg>
