<svg width="27" height="26" viewBox="0 0 27 26" fill="none" xmlns="http://www.w3.org/2000/svg">
<rect x="0.5" width="26" height="26" rx="13" fill="#FF698A" style="fill:#FF698A;fill:color(display-p3 1.0000 0.4118 0.5412);fill-opacity:1;"/>
<path d="M5.1985 8.36354C7.01656 6.54549 9.96421 6.54549 11.7823 8.36354L15.1689 11.7502C16.0583 12.6396 16.0583 14.0816 15.1689 14.971C14.2794 15.8604 12.8374 15.8604 11.948 14.971L10.1512 13.1742L10.1481 13.1715C9.12404 12.2655 7.64731 12.3035 6.7184 13.2325C6.01099 13.9399 5.80701 14.9601 6.10645 15.8479L5.1985 14.9473L5.19832 14.9471C3.38045 13.1291 3.38051 10.1815 5.1985 8.36354Z" fill="white" style="fill:white;fill-opacity:1;"/>
<path d="M14.5768 8.36354C16.3948 6.54549 19.3425 6.54549 21.1605 8.36354C22.9786 10.1816 22.9786 13.1292 21.1605 14.9473L16.4714 19.6365C14.6533 21.4545 11.7057 21.4545 9.88763 19.6365C9.8154 19.5642 9.74606 19.4902 9.6796 19.4146L9.67622 19.4108L9.67256 19.4072C9.66594 19.4007 9.65935 19.3942 9.65278 19.3877L6.90786 16.6427C6.68534 16.4202 6.51866 16.1634 6.40756 15.8894C6.07392 15.0667 6.24095 14.0888 6.90786 13.4219C6.91301 13.4168 6.91818 13.4116 6.92336 13.4066C7.74851 12.5971 9.05163 12.5618 9.96757 13.3695L11.7586 15.1604C12.6285 16.0303 13.9711 16.1389 14.9591 15.4865C15.1003 15.3933 15.2342 15.2846 15.3583 15.1604C16.3524 14.1664 16.3524 12.5547 15.3583 11.5607L13.369 9.57135L14.5768 8.36354Z" fill="white" style="fill:white;fill-opacity:1;"/>
</svg>
