<svg width="27" height="26" viewBox="0 0 27 26" fill="none" xmlns="http://www.w3.org/2000/svg">
<rect x="0.5" width="26" height="26" rx="13" fill="#FF698A" style="fill:#FF698A;fill:color(display-p3 1.0000 0.4118 0.5412);fill-opacity:1;"/>
<path d="M11.365 15.38V16.52H15.5401V17.92H11.365V20H8.89781V17.92H7V16.52H8.89781V6H14.3635C16.1348 6 17.5139 6.4 18.5007 7.2C19.5002 8 20 9.16667 20 10.7C20 12.22 19.5002 13.38 18.5007 14.18C17.5139 14.98 16.1348 15.38 14.3635 15.38H11.365ZM17.5139 10.72C17.5139 9.90667 17.2418 9.28667 16.6978 8.86C16.1538 8.42 15.3693 8.2 14.3445 8.2H11.365V13.28H14.3445C15.3567 13.28 16.1348 13.06 16.6788 12.62C17.2355 12.1667 17.5139 11.5333 17.5139 10.72Z" fill="white" style="fill:white;fill-opacity:1;"/>
</svg>
