<svg width="27" height="26" viewBox="0 0 27 26" fill="none" xmlns="http://www.w3.org/2000/svg">
<rect x="0.5" width="26" height="26" rx="13" fill="#FF698A" style="fill:#FF698A;fill:color(display-p3 1.0000 0.4118 0.5412);fill-opacity:1;"/>
<rect x="12.5195" y="4" width="2" height="2" rx="1" fill="white" style="fill:white;fill-opacity:1;"/>
<path d="M13.5195 5.35001V7.60001" stroke="white" style="stroke:white;stroke-opacity:1;"/>
<path d="M19.6191 6.7C20.7236 6.7 21.6191 7.59543 21.6191 8.7V10.2996L21.7119 10.3045C22.1655 10.3507 22.5195 10.7341 22.5195 11.2V12.9998C22.5195 13.4969 22.1161 13.9002 21.6191 13.9002V16.6238C21.6191 17.7284 20.7236 18.6238 19.6191 18.6238H10.1933C9.72547 18.6239 9.27239 18.7881 8.91302 19.0877L5.41986 21.9998V13.9002L5.32709 13.8953C4.87343 13.8491 4.51947 13.4657 4.51947 12.9998V11.2C4.51947 10.7029 4.9228 10.2996 5.41986 10.2996V8.7C5.41986 7.59543 6.31529 6.7 7.41986 6.7H19.6191Z" fill="white" style="fill:white;fill-opacity:1;"/>
<rect x="9.01947" y="9.39999" width="2.7" height="2.7" rx="1.35" fill="#FF698A" style="fill:#FF698A;fill:color(display-p3 1.0000 0.4118 0.5412);fill-opacity:1;"/>
<rect x="15.3195" y="9.39999" width="2.7" height="2.7" rx="1.35" fill="#FF698A" style="fill:#FF698A;fill:color(display-p3 1.0000 0.4118 0.5412);fill-opacity:1;"/>
<path d="M15.3195 13.9C15.3195 14.1364 15.2729 14.3705 15.1825 14.5888C15.092 14.8072 14.9594 15.0057 14.7923 15.1728C14.6251 15.3399 14.4267 15.4725 14.2083 15.563C13.9899 15.6534 13.7559 15.7 13.5195 15.7C13.2831 15.7 13.049 15.6534 12.8307 15.563C12.6123 15.4725 12.4138 15.3399 12.2467 15.1728C12.0795 15.0057 11.947 14.8072 11.8565 14.5888C11.766 14.3705 11.7195 14.1364 11.7195 13.9L13.5195 13.9H15.3195Z" fill="#FF698A" style="fill:#FF698A;fill:color(display-p3 1.0000 0.4118 0.5412);fill-opacity:1;"/>
</svg>
