<svg width="289" height="184" viewBox="0 0 289 184" fill="none" xmlns="http://www.w3.org/2000/svg">
<path d="M281.56 80.32H260.68V100.72H245.2V80.32H224.44V65.68H245.2V45.28H260.68V65.68H281.56V80.32Z" fill="#333333" style="fill:#333333;fill:color(display-p3 0.2000 0.2000 0.2000);fill-opacity:1;"/>
<path d="M281.56 80.32H260.68V100.72H245.2V80.32H224.44V65.68H245.2V45.28H260.68V65.68H281.56V80.32Z" fill="url(#paint0_linear_12215_8746)" style=""/>
<path d="M58.63 2.49999V146H31.98V24.845H1.64V2.49999H58.63ZM146.956 148.05C135.476 148.05 125.226 145.18 116.206 139.44C107.186 133.563 100.08 125.09 94.8862 114.02C89.6928 102.813 87.0962 89.5567 87.0962 74.25C87.0962 58.9433 89.6928 45.755 94.8862 34.685C100.08 23.4783 107.186 15.005 116.206 9.26499C125.226 3.38832 135.476 0.449992 146.956 0.449992C158.436 0.449992 168.686 3.38832 177.706 9.26499C186.863 15.005 194.038 23.4783 199.231 34.685C204.425 45.755 207.021 58.9433 207.021 74.25C207.021 89.5567 204.425 102.813 199.231 114.02C194.038 125.09 186.863 133.563 177.706 139.44C168.686 145.18 158.436 148.05 146.956 148.05ZM146.956 124.885C157.206 124.885 165.27 120.648 171.146 112.175C177.16 103.702 180.166 91.06 180.166 74.25C180.166 57.44 177.16 44.7983 171.146 36.325C165.27 27.8517 157.206 23.615 146.956 23.615C136.843 23.615 128.78 27.8517 122.766 36.325C116.89 44.7983 113.951 57.44 113.951 74.25C113.951 91.06 116.89 103.702 122.766 112.175C128.78 120.648 136.843 124.885 146.956 124.885Z" fill="#333333" style="fill:#333333;fill:color(display-p3 0.2000 0.2000 0.2000);fill-opacity:1;"/>
<path d="M58.63 2.49999V146H31.98V24.845H1.64V2.49999H58.63ZM146.956 148.05C135.476 148.05 125.226 145.18 116.206 139.44C107.186 133.563 100.08 125.09 94.8862 114.02C89.6928 102.813 87.0962 89.5567 87.0962 74.25C87.0962 58.9433 89.6928 45.755 94.8862 34.685C100.08 23.4783 107.186 15.005 116.206 9.26499C125.226 3.38832 135.476 0.449992 146.956 0.449992C158.436 0.449992 168.686 3.38832 177.706 9.26499C186.863 15.005 194.038 23.4783 199.231 34.685C204.425 45.755 207.021 58.9433 207.021 74.25C207.021 89.5567 204.425 102.813 199.231 114.02C194.038 125.09 186.863 133.563 177.706 139.44C168.686 145.18 158.436 148.05 146.956 148.05ZM146.956 124.885C157.206 124.885 165.27 120.648 171.146 112.175C177.16 103.702 180.166 91.06 180.166 74.25C180.166 57.44 177.16 44.7983 171.146 36.325C165.27 27.8517 157.206 23.615 146.956 23.615C136.843 23.615 128.78 27.8517 122.766 36.325C116.89 44.7983 113.951 57.44 113.951 74.25C113.951 91.06 116.89 103.702 122.766 112.175C128.78 120.648 136.843 124.885 146.956 124.885Z" fill="url(#paint1_linear_12215_8746)" style=""/>
<path d="M8.16406 166.684H3.33984V176H1.71875V165.297H8.16406V166.684ZM19.5312 170.639C19.5312 172.383 19.0918 173.747 18.2129 174.73C17.334 175.707 16.1198 176.195 14.5703 176.195C13.6133 176.195 12.7637 175.971 12.0215 175.521C11.2793 175.072 10.7064 174.428 10.3027 173.588C9.89909 172.748 9.69727 171.765 9.69727 170.639C9.69727 168.894 10.1335 167.536 11.0059 166.566C11.8783 165.59 13.0892 165.102 14.6387 165.102C16.1361 165.102 17.3242 165.6 18.2031 166.596C19.0885 167.592 19.5312 168.939 19.5312 170.639ZM11.377 170.639C11.377 172.006 11.6504 173.048 12.1973 173.764C12.7441 174.48 13.5482 174.838 14.6094 174.838C15.6706 174.838 16.4746 174.483 17.0215 173.773C17.5749 173.057 17.8516 172.012 17.8516 170.639C17.8516 169.278 17.5749 168.246 17.0215 167.543C16.4746 166.833 15.6641 166.479 14.5898 166.479C13.5286 166.479 12.7279 166.827 12.1875 167.523C11.6471 168.22 11.377 169.258 11.377 170.639ZM29.5996 166.684H26.123V176H24.502V166.684H21.0645V165.297H29.5996V166.684ZM40.957 170.639C40.957 172.383 40.5176 173.747 39.6387 174.73C38.7598 175.707 37.5456 176.195 35.9961 176.195C35.0391 176.195 34.1895 175.971 33.4473 175.521C32.7051 175.072 32.1322 174.428 31.7285 173.588C31.3249 172.748 31.123 171.765 31.123 170.639C31.123 168.894 31.5592 167.536 32.4316 166.566C33.304 165.59 34.515 165.102 36.0645 165.102C37.5618 165.102 38.75 165.6 39.6289 166.596C40.5143 167.592 40.957 168.939 40.957 170.639ZM32.8027 170.639C32.8027 172.006 33.0762 173.048 33.623 173.764C34.1699 174.48 34.974 174.838 36.0352 174.838C37.0964 174.838 37.9004 174.483 38.4473 173.773C39.0007 173.057 39.2773 172.012 39.2773 170.639C39.2773 169.278 39.0007 168.246 38.4473 167.543C37.9004 166.833 37.0898 166.479 36.0156 166.479C34.9544 166.479 34.1536 166.827 33.6133 167.523C33.0729 168.22 32.8027 169.258 32.8027 170.639ZM52.4902 167.982C52.4902 168.679 52.2884 169.21 51.8848 169.574C51.4876 169.932 50.9277 170.173 50.2051 170.297V170.385C51.1165 170.508 51.7806 170.775 52.1973 171.186C52.6204 171.596 52.832 172.162 52.832 172.885C52.832 173.881 52.4642 174.649 51.7285 175.189C50.9993 175.73 49.9316 176 48.5254 176H43.8086V165.297H48.5059C51.1621 165.297 52.4902 166.192 52.4902 167.982ZM51.2109 172.777C51.2109 172.198 50.9896 171.778 50.5469 171.518C50.1107 171.251 49.3848 171.117 48.3691 171.117H45.4297V174.643H48.4082C50.2767 174.643 51.2109 174.021 51.2109 172.777ZM50.9082 168.139C50.9082 167.618 50.7064 167.25 50.3027 167.035C49.9056 166.814 49.3001 166.703 48.4863 166.703H45.4297V169.721H48.1738C49.1764 169.721 49.8828 169.597 50.293 169.35C50.7031 169.102 50.9082 168.699 50.9082 168.139ZM56.8164 169.721H59.7363C61.097 169.721 62.1029 169.975 62.7539 170.482C63.4115 170.984 63.7402 171.736 63.7402 172.738C63.7402 173.812 63.3919 174.626 62.6953 175.18C62.0052 175.727 60.9863 176 59.6387 176H55.1953V165.297H56.8164V169.721ZM67.1582 176H65.5371V165.297H67.1582V176ZM56.8164 171.117V174.643H59.5605C61.2793 174.643 62.1387 174.04 62.1387 172.836C62.1387 172.237 61.9401 171.801 61.543 171.527C61.1458 171.254 60.4688 171.117 59.5117 171.117H56.8164ZM73.1836 170.521L69.4629 165.297H71.3086L74.1309 169.398L76.9434 165.297H78.7695L75.0488 170.521L78.9648 176H77.1289L74.1309 171.664L71.1035 176H69.2676L73.1836 170.521ZM90.5664 176.195C89.0169 176.195 87.8158 175.72 86.9629 174.77C86.1165 173.812 85.6934 172.462 85.6934 170.717C85.6934 168.926 86.123 167.543 86.9824 166.566C87.8483 165.59 89.0788 165.102 90.6738 165.102C91.1882 165.102 91.7025 165.157 92.2168 165.268C92.7311 165.378 93.1348 165.508 93.4277 165.658L92.9297 167.035C92.5716 166.892 92.181 166.775 91.7578 166.684C91.3346 166.586 90.9603 166.537 90.6348 166.537C88.4603 166.537 87.373 167.924 87.373 170.697C87.373 172.012 87.6367 173.021 88.1641 173.725C88.6979 174.428 89.4857 174.779 90.5273 174.779C91.4193 174.779 92.334 174.587 93.2715 174.203V175.639C92.5553 176.01 91.6536 176.195 90.5664 176.195ZM106.26 179.701H104.639V176H95.8203V165.297H97.4414V174.604H103.125V165.297H104.746V174.604H106.26V179.701ZM112.861 176.195C111.279 176.195 110.029 175.714 109.111 174.75C108.2 173.786 107.744 172.449 107.744 170.736C107.744 169.011 108.167 167.641 109.014 166.625C109.867 165.609 111.009 165.102 112.441 165.102C113.783 165.102 114.844 165.544 115.625 166.43C116.406 167.309 116.797 168.471 116.797 169.916V170.941H109.424C109.456 172.198 109.772 173.152 110.371 173.803C110.977 174.454 111.826 174.779 112.92 174.779C114.072 174.779 115.212 174.538 116.338 174.057V175.502C115.765 175.749 115.221 175.925 114.707 176.029C114.199 176.14 113.584 176.195 112.861 176.195ZM112.422 166.459C111.562 166.459 110.876 166.739 110.361 167.299C109.854 167.859 109.554 168.633 109.463 169.623H115.059C115.059 168.601 114.831 167.82 114.375 167.279C113.919 166.732 113.268 166.459 112.422 166.459ZM121.191 165.297V169.779H127.188V165.297H128.809V176H127.188V171.176H121.191V176H119.57V165.297H121.191ZM138.828 176L138.506 174.477H138.428C137.894 175.147 137.36 175.603 136.826 175.844C136.299 176.078 135.638 176.195 134.844 176.195C133.783 176.195 132.949 175.922 132.344 175.375C131.745 174.828 131.445 174.05 131.445 173.041C131.445 170.88 133.174 169.747 136.631 169.643L138.447 169.584V168.92C138.447 168.08 138.265 167.462 137.9 167.064C137.542 166.661 136.966 166.459 136.172 166.459C135.28 166.459 134.271 166.732 133.145 167.279L132.646 166.039C133.174 165.753 133.75 165.528 134.375 165.365C135.007 165.202 135.638 165.121 136.27 165.121C137.546 165.121 138.49 165.404 139.102 165.971C139.72 166.537 140.029 167.445 140.029 168.695V176H138.828ZM135.166 174.857C136.175 174.857 136.966 174.581 137.539 174.027C138.118 173.474 138.408 172.699 138.408 171.703V170.736L136.787 170.805C135.498 170.85 134.567 171.052 133.994 171.41C133.428 171.762 133.145 172.312 133.145 173.061C133.145 173.646 133.32 174.092 133.672 174.398C134.03 174.704 134.528 174.857 135.166 174.857ZM148.359 176.195C147.663 176.195 147.025 176.068 146.445 175.814C145.872 175.554 145.391 175.157 145 174.623H144.883C144.961 175.248 145 175.84 145 176.4V180.805H143.379V165.297H144.697L144.922 166.762H145C145.417 166.176 145.902 165.753 146.455 165.492C147.008 165.232 147.643 165.102 148.359 165.102C149.779 165.102 150.872 165.587 151.641 166.557C152.415 167.527 152.803 168.887 152.803 170.639C152.803 172.396 152.409 173.764 151.621 174.74C150.84 175.71 149.753 176.195 148.359 176.195ZM148.125 166.479C147.031 166.479 146.24 166.781 145.752 167.387C145.264 167.992 145.013 168.956 145 170.277V170.639C145 172.143 145.251 173.22 145.752 173.871C146.253 174.516 147.057 174.838 148.164 174.838C149.089 174.838 149.811 174.464 150.332 173.715C150.859 172.966 151.123 171.934 151.123 170.619C151.123 169.285 150.859 168.262 150.332 167.553C149.811 166.837 149.076 166.479 148.125 166.479ZM157.168 165.297V172.084L157.1 173.861L157.07 174.418L162.861 165.297H164.883V176H163.369V169.457L163.398 168.168L163.447 166.898L157.666 176H155.645V165.297H157.168ZM172.842 176.195C171.26 176.195 170.01 175.714 169.092 174.75C168.18 173.786 167.725 172.449 167.725 170.736C167.725 169.011 168.148 167.641 168.994 166.625C169.847 165.609 170.99 165.102 172.422 165.102C173.763 165.102 174.824 165.544 175.605 166.43C176.387 167.309 176.777 168.471 176.777 169.916V170.941H169.404C169.437 172.198 169.753 173.152 170.352 173.803C170.957 174.454 171.807 174.779 172.9 174.779C174.053 174.779 175.192 174.538 176.318 174.057V175.502C175.745 175.749 175.202 175.925 174.688 176.029C174.18 176.14 173.564 176.195 172.842 176.195ZM172.402 166.459C171.543 166.459 170.856 166.739 170.342 167.299C169.834 167.859 169.535 168.633 169.443 169.623H175.039C175.039 168.601 174.811 167.82 174.355 167.279C173.9 166.732 173.249 166.459 172.402 166.459ZM188.232 167.982C188.232 168.679 188.031 169.21 187.627 169.574C187.23 169.932 186.67 170.173 185.947 170.297V170.385C186.859 170.508 187.523 170.775 187.939 171.186C188.363 171.596 188.574 172.162 188.574 172.885C188.574 173.881 188.206 174.649 187.471 175.189C186.742 175.73 185.674 176 184.268 176H179.551V165.297H184.248C186.904 165.297 188.232 166.192 188.232 167.982ZM186.953 172.777C186.953 172.198 186.732 171.778 186.289 171.518C185.853 171.251 185.127 171.117 184.111 171.117H181.172V174.643H184.15C186.019 174.643 186.953 174.021 186.953 172.777ZM186.65 168.139C186.65 167.618 186.449 167.25 186.045 167.035C185.648 166.814 185.042 166.703 184.229 166.703H181.172V169.721H183.916C184.919 169.721 185.625 169.597 186.035 169.35C186.445 169.102 186.65 168.699 186.65 168.139Z" fill="#FFAA75" style="fill:#FFAA75;fill:color(display-p3 1.0000 0.6666 0.4576);fill-opacity:1;"/>
<defs>
<linearGradient id="paint0_linear_12215_8746" x1="217" y1="79.5937" x2="286.351" y2="58.0592" gradientUnits="userSpaceOnUse">
<stop stop-color="#FFE270" style="stop-color:#FFE270;stop-color:color(display-p3 0.9987 0.8867 0.4387);stop-opacity:1;"/>
<stop offset="1" stop-color="#FFAA75" style="stop-color:#FFAA75;stop-color:color(display-p3 1.0000 0.6667 0.4588);stop-opacity:1;"/>
</linearGradient>
<linearGradient id="paint1_linear_12215_8746" x1="-2.15413e-06" y1="126.004" x2="189.377" y2="39.1966" gradientUnits="userSpaceOnUse">
<stop stop-color="#FFE270" style="stop-color:#FFE270;stop-color:color(display-p3 0.9987 0.8867 0.4387);stop-opacity:1;"/>
<stop offset="1" stop-color="#FFAA75" style="stop-color:#FFAA75;stop-color:color(display-p3 1.0000 0.6667 0.4588);stop-opacity:1;"/>
</linearGradient>
</defs>
</svg>
