<svg width="170" height="116" viewBox="0 0 170 116" fill="none" xmlns="http://www.w3.org/2000/svg">
<path d="M165.35 52.325H152.3V65.075H142.625V52.325H129.65V43.175H142.625V30.425H152.3V43.175H165.35V52.325Z" fill="#333333" style="fill:#333333;fill:color(display-p3 0.2000 0.2000 0.2000);fill-opacity:1;"/>
<path d="M165.35 52.325H152.3V65.075H142.625V52.325H129.65V43.175H142.625V30.425H152.3V43.175H165.35V52.325Z" fill="url(#paint0_linear_12218_11786)" style=""/>
<path d="M34.32 1.99999V86H18.72V15.08H0.96V1.99999H34.32ZM86.0231 87.2C79.3031 87.2 73.3031 85.52 68.0231 82.16C62.7431 78.72 58.5831 73.76 55.5431 67.28C52.5031 60.72 50.9831 52.96 50.9831 44C50.9831 35.04 52.5031 27.32 55.5431 20.84C58.5831 14.28 62.7431 9.32 68.0231 5.95999C73.3031 2.51999 79.3031 0.799995 86.0231 0.799995C92.7431 0.799995 98.7431 2.51999 104.023 5.95999C109.383 9.32 113.583 14.28 116.623 20.84C119.663 27.32 121.183 35.04 121.183 44C121.183 52.96 119.663 60.72 116.623 67.28C113.583 73.76 109.383 78.72 104.023 82.16C98.7431 85.52 92.7431 87.2 86.0231 87.2ZM86.0231 73.64C92.0231 73.64 96.7431 71.16 100.183 66.2C103.703 61.24 105.463 53.84 105.463 44C105.463 34.16 103.703 26.76 100.183 21.8C96.7431 16.84 92.0231 14.36 86.0231 14.36C80.1031 14.36 75.3831 16.84 71.8631 21.8C68.4231 26.76 66.7031 34.16 66.7031 44C66.7031 53.84 68.4231 61.24 71.8631 66.2C75.3831 71.16 80.1031 73.64 86.0231 73.64Z" fill="#333333" style="fill:#333333;fill:color(display-p3 0.2000 0.2000 0.2000);fill-opacity:1;"/>
<path d="M34.32 1.99999V86H18.72V15.08H0.96V1.99999H34.32ZM86.0231 87.2C79.3031 87.2 73.3031 85.52 68.0231 82.16C62.7431 78.72 58.5831 73.76 55.5431 67.28C52.5031 60.72 50.9831 52.96 50.9831 44C50.9831 35.04 52.5031 27.32 55.5431 20.84C58.5831 14.28 62.7431 9.32 68.0231 5.95999C73.3031 2.51999 79.3031 0.799995 86.0231 0.799995C92.7431 0.799995 98.7431 2.51999 104.023 5.95999C109.383 9.32 113.583 14.28 116.623 20.84C119.663 27.32 121.183 35.04 121.183 44C121.183 52.96 119.663 60.72 116.623 67.28C113.583 73.76 109.383 78.72 104.023 82.16C98.7431 85.52 92.7431 87.2 86.0231 87.2ZM86.0231 73.64C92.0231 73.64 96.7431 71.16 100.183 66.2C103.703 61.24 105.463 53.84 105.463 44C105.463 34.16 103.703 26.76 100.183 21.8C96.7431 16.84 92.0231 14.36 86.0231 14.36C80.1031 14.36 75.3831 16.84 71.8631 21.8C68.4231 26.76 66.7031 34.16 66.7031 44C66.7031 53.84 68.4231 61.24 71.8631 66.2C75.3831 71.16 80.1031 73.64 86.0231 73.64Z" fill="url(#paint1_linear_12218_11786)" style=""/>
<path d="M6.53125 102.547H2.67188V110H1.375V101.438H6.53125V102.547ZM15.625 105.711C15.625 107.107 15.2734 108.198 14.5703 108.984C13.8672 109.766 12.8958 110.156 11.6562 110.156C10.8906 110.156 10.2109 109.977 9.61719 109.617C9.02344 109.258 8.5651 108.742 8.24219 108.07C7.91927 107.398 7.75781 106.612 7.75781 105.711C7.75781 104.315 8.10677 103.229 8.80469 102.453C9.5026 101.672 10.4714 101.281 11.7109 101.281C12.9089 101.281 13.8594 101.68 14.5625 102.477C15.2708 103.273 15.625 104.352 15.625 105.711ZM9.10156 105.711C9.10156 106.805 9.32031 107.638 9.75781 108.211C10.1953 108.784 10.8385 109.07 11.6875 109.07C12.5365 109.07 13.1797 108.786 13.6172 108.219C14.0599 107.646 14.2812 106.81 14.2812 105.711C14.2812 104.622 14.0599 103.797 13.6172 103.234C13.1797 102.667 12.5312 102.383 11.6719 102.383C10.8229 102.383 10.1823 102.661 9.75 103.219C9.31771 103.776 9.10156 104.607 9.10156 105.711ZM23.6797 102.547H20.8984V110H19.6016V102.547H16.8516V101.438H23.6797V102.547ZM32.7656 105.711C32.7656 107.107 32.4141 108.198 31.7109 108.984C31.0078 109.766 30.0365 110.156 28.7969 110.156C28.0312 110.156 27.3516 109.977 26.7578 109.617C26.1641 109.258 25.7057 108.742 25.3828 108.07C25.0599 107.398 24.8984 106.612 24.8984 105.711C24.8984 104.315 25.2474 103.229 25.9453 102.453C26.6432 101.672 27.612 101.281 28.8516 101.281C30.0495 101.281 31 101.68 31.7031 102.477C32.4115 103.273 32.7656 104.352 32.7656 105.711ZM26.2422 105.711C26.2422 106.805 26.4609 107.638 26.8984 108.211C27.3359 108.784 27.9792 109.07 28.8281 109.07C29.6771 109.07 30.3203 108.786 30.7578 108.219C31.2005 107.646 31.4219 106.81 31.4219 105.711C31.4219 104.622 31.2005 103.797 30.7578 103.234C30.3203 102.667 29.6719 102.383 28.8125 102.383C27.9635 102.383 27.3229 102.661 26.8906 103.219C26.4583 103.776 26.2422 104.607 26.2422 105.711ZM41.9922 103.586C41.9922 104.143 41.8307 104.568 41.5078 104.859C41.1901 105.146 40.7422 105.339 40.1641 105.438V105.508C40.8932 105.607 41.4245 105.82 41.7578 106.148C42.0964 106.477 42.2656 106.93 42.2656 107.508C42.2656 108.305 41.9714 108.919 41.3828 109.352C40.7995 109.784 39.9453 110 38.8203 110H35.0469V101.438H38.8047C40.9297 101.438 41.9922 102.154 41.9922 103.586ZM40.9688 107.422C40.9688 106.958 40.7917 106.622 40.4375 106.414C40.0885 106.201 39.5078 106.094 38.6953 106.094H36.3438V108.914H38.7266C40.2214 108.914 40.9688 108.417 40.9688 107.422ZM40.7266 103.711C40.7266 103.294 40.5651 103 40.2422 102.828C39.9245 102.651 39.4401 102.562 38.7891 102.562H36.3438V104.977H38.5391C39.3411 104.977 39.9062 104.878 40.2344 104.68C40.5625 104.482 40.7266 104.159 40.7266 103.711ZM45.4531 104.977H47.7891C48.8776 104.977 49.6823 105.18 50.2031 105.586C50.7292 105.987 50.9922 106.589 50.9922 107.391C50.9922 108.25 50.7135 108.901 50.1562 109.344C49.6042 109.781 48.7891 110 47.7109 110H44.1562V101.438H45.4531V104.977ZM53.7266 110H52.4297V101.438H53.7266V110ZM45.4531 106.094V108.914H47.6484C49.0234 108.914 49.7109 108.432 49.7109 107.469C49.7109 106.99 49.5521 106.641 49.2344 106.422C48.9167 106.203 48.375 106.094 47.6094 106.094H45.4531ZM58.5469 105.617L55.5703 101.438H57.0469L59.3047 104.719L61.5547 101.438H63.0156L60.0391 105.617L63.1719 110H61.7031L59.3047 106.531L56.8828 110H55.4141L58.5469 105.617ZM72.4531 110.156C71.2135 110.156 70.2526 109.776 69.5703 109.016C68.8932 108.25 68.5547 107.169 68.5547 105.773C68.5547 104.341 68.8984 103.234 69.5859 102.453C70.2786 101.672 71.263 101.281 72.5391 101.281C72.9505 101.281 73.362 101.326 73.7734 101.414C74.1849 101.503 74.5078 101.607 74.7422 101.727L74.3438 102.828C74.0573 102.714 73.7448 102.62 73.4062 102.547C73.0677 102.469 72.7682 102.43 72.5078 102.43C70.7682 102.43 69.8984 103.539 69.8984 105.758C69.8984 106.81 70.1094 107.617 70.5312 108.18C70.9583 108.742 71.5885 109.023 72.4219 109.023C73.1354 109.023 73.8672 108.87 74.6172 108.562V109.711C74.0443 110.008 73.3229 110.156 72.4531 110.156ZM85.0078 112.961H83.7109V110H76.6562V101.438H77.9531V108.883H82.5V101.438H83.7969V108.883H85.0078V112.961ZM90.2891 110.156C89.0234 110.156 88.0234 109.771 87.2891 109C86.5599 108.229 86.1953 107.159 86.1953 105.789C86.1953 104.409 86.5339 103.312 87.2109 102.5C87.8932 101.688 88.8073 101.281 89.9531 101.281C91.026 101.281 91.875 101.635 92.5 102.344C93.125 103.047 93.4375 103.977 93.4375 105.133V105.953H87.5391C87.5651 106.958 87.8177 107.721 88.2969 108.242C88.7812 108.763 89.4609 109.023 90.3359 109.023C91.2578 109.023 92.1693 108.831 93.0703 108.445V109.602C92.612 109.799 92.1771 109.94 91.7656 110.023C91.3594 110.112 90.8672 110.156 90.2891 110.156ZM89.9375 102.367C89.25 102.367 88.7005 102.591 88.2891 103.039C87.8828 103.487 87.6432 104.107 87.5703 104.898H92.0469C92.0469 104.081 91.8646 103.456 91.5 103.023C91.1354 102.586 90.6146 102.367 89.9375 102.367ZM96.9531 101.438V105.023H101.75V101.438H103.047V110H101.75V106.141H96.9531V110H95.6562V101.438H96.9531ZM111.062 110L110.805 108.781H110.742C110.315 109.318 109.888 109.682 109.461 109.875C109.039 110.062 108.51 110.156 107.875 110.156C107.026 110.156 106.359 109.938 105.875 109.5C105.396 109.062 105.156 108.44 105.156 107.633C105.156 105.904 106.539 104.997 109.305 104.914L110.758 104.867V104.336C110.758 103.664 110.612 103.169 110.32 102.852C110.034 102.529 109.573 102.367 108.938 102.367C108.224 102.367 107.417 102.586 106.516 103.023L106.117 102.031C106.539 101.802 107 101.622 107.5 101.492C108.005 101.362 108.51 101.297 109.016 101.297C110.036 101.297 110.792 101.523 111.281 101.977C111.776 102.43 112.023 103.156 112.023 104.156V110H111.062ZM108.133 109.086C108.94 109.086 109.573 108.865 110.031 108.422C110.495 107.979 110.727 107.359 110.727 106.562V105.789L109.43 105.844C108.398 105.88 107.654 106.042 107.195 106.328C106.742 106.609 106.516 107.049 106.516 107.648C106.516 108.117 106.656 108.474 106.938 108.719C107.224 108.964 107.622 109.086 108.133 109.086ZM118.688 110.156C118.13 110.156 117.62 110.055 117.156 109.852C116.698 109.643 116.312 109.326 116 108.898H115.906C115.969 109.398 116 109.872 116 110.32V113.844H114.703V101.438H115.758L115.938 102.609H116C116.333 102.141 116.721 101.802 117.164 101.594C117.607 101.385 118.115 101.281 118.688 101.281C119.823 101.281 120.698 101.669 121.312 102.445C121.932 103.221 122.242 104.31 122.242 105.711C122.242 107.117 121.927 108.211 121.297 108.992C120.672 109.768 119.802 110.156 118.688 110.156ZM118.5 102.383C117.625 102.383 116.992 102.625 116.602 103.109C116.211 103.594 116.01 104.365 116 105.422V105.711C116 106.914 116.201 107.776 116.602 108.297C117.003 108.812 117.646 109.07 118.531 109.07C119.271 109.07 119.849 108.771 120.266 108.172C120.688 107.573 120.898 106.747 120.898 105.695C120.898 104.628 120.688 103.81 120.266 103.242C119.849 102.669 119.26 102.383 118.5 102.383ZM125.734 101.438V106.867L125.68 108.289L125.656 108.734L130.289 101.438H131.906V110H130.695V104.766L130.719 103.734L130.758 102.719L126.133 110H124.516V101.438H125.734ZM138.273 110.156C137.008 110.156 136.008 109.771 135.273 109C134.544 108.229 134.18 107.159 134.18 105.789C134.18 104.409 134.518 103.312 135.195 102.5C135.878 101.688 136.792 101.281 137.938 101.281C139.01 101.281 139.859 101.635 140.484 102.344C141.109 103.047 141.422 103.977 141.422 105.133V105.953H135.523C135.549 106.958 135.802 107.721 136.281 108.242C136.766 108.763 137.445 109.023 138.32 109.023C139.242 109.023 140.154 108.831 141.055 108.445V109.602C140.596 109.799 140.161 109.94 139.75 110.023C139.344 110.112 138.852 110.156 138.273 110.156ZM137.922 102.367C137.234 102.367 136.685 102.591 136.273 103.039C135.867 103.487 135.628 104.107 135.555 104.898H140.031C140.031 104.081 139.849 103.456 139.484 103.023C139.12 102.586 138.599 102.367 137.922 102.367ZM150.586 103.586C150.586 104.143 150.424 104.568 150.102 104.859C149.784 105.146 149.336 105.339 148.758 105.438V105.508C149.487 105.607 150.018 105.82 150.352 106.148C150.69 106.477 150.859 106.93 150.859 107.508C150.859 108.305 150.565 108.919 149.977 109.352C149.393 109.784 148.539 110 147.414 110H143.641V101.438H147.398C149.523 101.438 150.586 102.154 150.586 103.586ZM149.562 107.422C149.562 106.958 149.385 106.622 149.031 106.414C148.682 106.201 148.102 106.094 147.289 106.094H144.938V108.914H147.32C148.815 108.914 149.562 108.417 149.562 107.422ZM149.32 103.711C149.32 103.294 149.159 103 148.836 102.828C148.518 102.651 148.034 102.562 147.383 102.562H144.938V104.977H147.133C147.935 104.977 148.5 104.878 148.828 104.68C149.156 104.482 149.32 104.159 149.32 103.711Z" fill="#FFAA75" style="fill:#FFAA75;fill:color(display-p3 1.0000 0.6666 0.4576);fill-opacity:1;"/>
<defs>
<linearGradient id="paint0_linear_12218_11786" x1="125" y1="54.5937" x2="170.798" y2="45.7055" gradientUnits="userSpaceOnUse">
<stop stop-color="#FFE270" style="stop-color:#FFE270;stop-color:color(display-p3 0.9987 0.8867 0.4387);stop-opacity:1;"/>
<stop offset="1" stop-color="#FFAA75" style="stop-color:#FFAA75;stop-color:color(display-p3 1.0000 0.6667 0.4588);stop-opacity:1;"/>
</linearGradient>
<linearGradient id="paint1_linear_12218_11786" x1="-1.50888e-06" y1="72.9961" x2="135.177" y2="14.4622" gradientUnits="userSpaceOnUse">
<stop stop-color="#FFE270" style="stop-color:#FFE270;stop-color:color(display-p3 0.9987 0.8867 0.4387);stop-opacity:1;"/>
<stop offset="1" stop-color="#FFAA75" style="stop-color:#FFAA75;stop-color:color(display-p3 1.0000 0.6667 0.4588);stop-opacity:1;"/>
</linearGradient>
</defs>
</svg>
