<svg width="314" height="202" viewBox="0 0 314 202" fill="none" xmlns="http://www.w3.org/2000/svg">
<path d="M306.56 89.32H285.68V109.72H270.2V89.32H249.44V74.68H270.2V54.28H285.68V74.68H306.56V89.32Z" fill="#333333" style="fill:#333333;fill:color(display-p3 0.2000 0.2000 0.2000);fill-opacity:1;"/>
<path d="M306.56 89.32H285.68V109.72H270.2V89.32H249.44V74.68H270.2V54.28H285.68V74.68H306.56V89.32Z" fill="url(#paint0_linear_12218_12615)" style=""/>
<path d="M65.78 2.99999V164H35.88V28.07H1.84V2.99999H65.78ZM164.878 166.3C151.998 166.3 140.498 163.08 130.378 156.64C120.258 150.047 112.284 140.54 106.458 128.12C100.631 115.547 97.7177 100.673 97.7177 83.5C97.7177 66.3267 100.631 51.53 106.458 39.11C112.284 26.5367 120.258 17.03 130.378 10.59C140.498 3.99666 151.998 0.699991 164.878 0.699991C177.758 0.699991 189.258 3.99666 199.378 10.59C209.651 17.03 217.701 26.5367 223.528 39.11C229.354 51.53 232.268 66.3267 232.268 83.5C232.268 100.673 229.354 115.547 223.528 128.12C217.701 140.54 209.651 150.047 199.378 156.64C189.258 163.08 177.758 166.3 164.878 166.3ZM164.878 140.31C176.378 140.31 185.424 135.557 192.018 126.05C198.764 116.543 202.138 102.36 202.138 83.5C202.138 64.64 198.764 50.4567 192.018 40.95C185.424 31.4433 176.378 26.69 164.878 26.69C153.531 26.69 144.484 31.4433 137.738 40.95C131.144 50.4567 127.848 64.64 127.848 83.5C127.848 102.36 131.144 116.543 137.738 126.05C144.484 135.557 153.531 140.31 164.878 140.31Z" fill="#333333" style="fill:#333333;fill:color(display-p3 0.2000 0.2000 0.2000);fill-opacity:1;"/>
<path d="M65.78 2.99999V164H35.88V28.07H1.84V2.99999H65.78ZM164.878 166.3C151.998 166.3 140.498 163.08 130.378 156.64C120.258 150.047 112.284 140.54 106.458 128.12C100.631 115.547 97.7177 100.673 97.7177 83.5C97.7177 66.3267 100.631 51.53 106.458 39.11C112.284 26.5367 120.258 17.03 130.378 10.59C140.498 3.99666 151.998 0.699991 164.878 0.699991C177.758 0.699991 189.258 3.99666 199.378 10.59C209.651 17.03 217.701 26.5367 223.528 39.11C229.354 51.53 232.268 66.3267 232.268 83.5C232.268 100.673 229.354 115.547 223.528 128.12C217.701 140.54 209.651 150.047 199.378 156.64C189.258 163.08 177.758 166.3 164.878 166.3ZM164.878 140.31C176.378 140.31 185.424 135.557 192.018 126.05C198.764 116.543 202.138 102.36 202.138 83.5C202.138 64.64 198.764 50.4567 192.018 40.95C185.424 31.4433 176.378 26.69 164.878 26.69C153.531 26.69 144.484 31.4433 137.738 40.95C131.144 50.4567 127.848 64.64 127.848 83.5C127.848 102.36 131.144 116.543 137.738 126.05C144.484 135.557 153.531 140.31 164.878 140.31Z" fill="url(#paint1_linear_12218_12615)" style=""/>
<path d="M8.16406 184.684H3.33984V194H1.71875V183.297H8.16406V184.684ZM19.5312 188.639C19.5312 190.383 19.0918 191.747 18.2129 192.73C17.334 193.707 16.1198 194.195 14.5703 194.195C13.6133 194.195 12.7637 193.971 12.0215 193.521C11.2793 193.072 10.7064 192.428 10.3027 191.588C9.89909 190.748 9.69727 189.765 9.69727 188.639C9.69727 186.894 10.1335 185.536 11.0059 184.566C11.8783 183.59 13.0892 183.102 14.6387 183.102C16.1361 183.102 17.3242 183.6 18.2031 184.596C19.0885 185.592 19.5312 186.939 19.5312 188.639ZM11.377 188.639C11.377 190.006 11.6504 191.048 12.1973 191.764C12.7441 192.48 13.5482 192.838 14.6094 192.838C15.6706 192.838 16.4746 192.483 17.0215 191.773C17.5749 191.057 17.8516 190.012 17.8516 188.639C17.8516 187.278 17.5749 186.246 17.0215 185.543C16.4746 184.833 15.6641 184.479 14.5898 184.479C13.5286 184.479 12.7279 184.827 12.1875 185.523C11.6471 186.22 11.377 187.258 11.377 188.639ZM29.5996 184.684H26.123V194H24.502V184.684H21.0645V183.297H29.5996V184.684ZM40.957 188.639C40.957 190.383 40.5176 191.747 39.6387 192.73C38.7598 193.707 37.5456 194.195 35.9961 194.195C35.0391 194.195 34.1895 193.971 33.4473 193.521C32.7051 193.072 32.1322 192.428 31.7285 191.588C31.3249 190.748 31.123 189.765 31.123 188.639C31.123 186.894 31.5592 185.536 32.4316 184.566C33.304 183.59 34.515 183.102 36.0645 183.102C37.5618 183.102 38.75 183.6 39.6289 184.596C40.5143 185.592 40.957 186.939 40.957 188.639ZM32.8027 188.639C32.8027 190.006 33.0762 191.048 33.623 191.764C34.1699 192.48 34.974 192.838 36.0352 192.838C37.0964 192.838 37.9004 192.483 38.4473 191.773C39.0007 191.057 39.2773 190.012 39.2773 188.639C39.2773 187.278 39.0007 186.246 38.4473 185.543C37.9004 184.833 37.0898 184.479 36.0156 184.479C34.9544 184.479 34.1536 184.827 33.6133 185.523C33.0729 186.22 32.8027 187.258 32.8027 188.639ZM52.4902 185.982C52.4902 186.679 52.2884 187.21 51.8848 187.574C51.4876 187.932 50.9277 188.173 50.2051 188.297V188.385C51.1165 188.508 51.7806 188.775 52.1973 189.186C52.6204 189.596 52.832 190.162 52.832 190.885C52.832 191.881 52.4642 192.649 51.7285 193.189C50.9993 193.73 49.9316 194 48.5254 194H43.8086V183.297H48.5059C51.1621 183.297 52.4902 184.192 52.4902 185.982ZM51.2109 190.777C51.2109 190.198 50.9896 189.778 50.5469 189.518C50.1107 189.251 49.3848 189.117 48.3691 189.117H45.4297V192.643H48.4082C50.2767 192.643 51.2109 192.021 51.2109 190.777ZM50.9082 186.139C50.9082 185.618 50.7064 185.25 50.3027 185.035C49.9056 184.814 49.3001 184.703 48.4863 184.703H45.4297V187.721H48.1738C49.1764 187.721 49.8828 187.597 50.293 187.35C50.7031 187.102 50.9082 186.699 50.9082 186.139ZM56.8164 187.721H59.7363C61.097 187.721 62.1029 187.975 62.7539 188.482C63.4115 188.984 63.7402 189.736 63.7402 190.738C63.7402 191.812 63.3919 192.626 62.6953 193.18C62.0052 193.727 60.9863 194 59.6387 194H55.1953V183.297H56.8164V187.721ZM67.1582 194H65.5371V183.297H67.1582V194ZM56.8164 189.117V192.643H59.5605C61.2793 192.643 62.1387 192.04 62.1387 190.836C62.1387 190.237 61.9401 189.801 61.543 189.527C61.1458 189.254 60.4688 189.117 59.5117 189.117H56.8164ZM73.1836 188.521L69.4629 183.297H71.3086L74.1309 187.398L76.9434 183.297H78.7695L75.0488 188.521L78.9648 194H77.1289L74.1309 189.664L71.1035 194H69.2676L73.1836 188.521ZM90.5664 194.195C89.0169 194.195 87.8158 193.72 86.9629 192.77C86.1165 191.812 85.6934 190.462 85.6934 188.717C85.6934 186.926 86.123 185.543 86.9824 184.566C87.8483 183.59 89.0788 183.102 90.6738 183.102C91.1882 183.102 91.7025 183.157 92.2168 183.268C92.7311 183.378 93.1348 183.508 93.4277 183.658L92.9297 185.035C92.5716 184.892 92.181 184.775 91.7578 184.684C91.3346 184.586 90.9603 184.537 90.6348 184.537C88.4603 184.537 87.373 185.924 87.373 188.697C87.373 190.012 87.6367 191.021 88.1641 191.725C88.6979 192.428 89.4857 192.779 90.5273 192.779C91.4193 192.779 92.334 192.587 93.2715 192.203V193.639C92.5553 194.01 91.6536 194.195 90.5664 194.195ZM106.26 197.701H104.639V194H95.8203V183.297H97.4414V192.604H103.125V183.297H104.746V192.604H106.26V197.701ZM112.861 194.195C111.279 194.195 110.029 193.714 109.111 192.75C108.2 191.786 107.744 190.449 107.744 188.736C107.744 187.011 108.167 185.641 109.014 184.625C109.867 183.609 111.009 183.102 112.441 183.102C113.783 183.102 114.844 183.544 115.625 184.43C116.406 185.309 116.797 186.471 116.797 187.916V188.941H109.424C109.456 190.198 109.772 191.152 110.371 191.803C110.977 192.454 111.826 192.779 112.92 192.779C114.072 192.779 115.212 192.538 116.338 192.057V193.502C115.765 193.749 115.221 193.925 114.707 194.029C114.199 194.14 113.584 194.195 112.861 194.195ZM112.422 184.459C111.562 184.459 110.876 184.739 110.361 185.299C109.854 185.859 109.554 186.633 109.463 187.623H115.059C115.059 186.601 114.831 185.82 114.375 185.279C113.919 184.732 113.268 184.459 112.422 184.459ZM121.191 183.297V187.779H127.188V183.297H128.809V194H127.188V189.176H121.191V194H119.57V183.297H121.191ZM138.828 194L138.506 192.477H138.428C137.894 193.147 137.36 193.603 136.826 193.844C136.299 194.078 135.638 194.195 134.844 194.195C133.783 194.195 132.949 193.922 132.344 193.375C131.745 192.828 131.445 192.05 131.445 191.041C131.445 188.88 133.174 187.747 136.631 187.643L138.447 187.584V186.92C138.447 186.08 138.265 185.462 137.9 185.064C137.542 184.661 136.966 184.459 136.172 184.459C135.28 184.459 134.271 184.732 133.145 185.279L132.646 184.039C133.174 183.753 133.75 183.528 134.375 183.365C135.007 183.202 135.638 183.121 136.27 183.121C137.546 183.121 138.49 183.404 139.102 183.971C139.72 184.537 140.029 185.445 140.029 186.695V194H138.828ZM135.166 192.857C136.175 192.857 136.966 192.581 137.539 192.027C138.118 191.474 138.408 190.699 138.408 189.703V188.736L136.787 188.805C135.498 188.85 134.567 189.052 133.994 189.41C133.428 189.762 133.145 190.312 133.145 191.061C133.145 191.646 133.32 192.092 133.672 192.398C134.03 192.704 134.528 192.857 135.166 192.857ZM148.359 194.195C147.663 194.195 147.025 194.068 146.445 193.814C145.872 193.554 145.391 193.157 145 192.623H144.883C144.961 193.248 145 193.84 145 194.4V198.805H143.379V183.297H144.697L144.922 184.762H145C145.417 184.176 145.902 183.753 146.455 183.492C147.008 183.232 147.643 183.102 148.359 183.102C149.779 183.102 150.872 183.587 151.641 184.557C152.415 185.527 152.803 186.887 152.803 188.639C152.803 190.396 152.409 191.764 151.621 192.74C150.84 193.71 149.753 194.195 148.359 194.195ZM148.125 184.479C147.031 184.479 146.24 184.781 145.752 185.387C145.264 185.992 145.013 186.956 145 188.277V188.639C145 190.143 145.251 191.22 145.752 191.871C146.253 192.516 147.057 192.838 148.164 192.838C149.089 192.838 149.811 192.464 150.332 191.715C150.859 190.966 151.123 189.934 151.123 188.619C151.123 187.285 150.859 186.262 150.332 185.553C149.811 184.837 149.076 184.479 148.125 184.479ZM157.168 183.297V190.084L157.1 191.861L157.07 192.418L162.861 183.297H164.883V194H163.369V187.457L163.398 186.168L163.447 184.898L157.666 194H155.645V183.297H157.168ZM172.842 194.195C171.26 194.195 170.01 193.714 169.092 192.75C168.18 191.786 167.725 190.449 167.725 188.736C167.725 187.011 168.148 185.641 168.994 184.625C169.847 183.609 170.99 183.102 172.422 183.102C173.763 183.102 174.824 183.544 175.605 184.43C176.387 185.309 176.777 186.471 176.777 187.916V188.941H169.404C169.437 190.198 169.753 191.152 170.352 191.803C170.957 192.454 171.807 192.779 172.9 192.779C174.053 192.779 175.192 192.538 176.318 192.057V193.502C175.745 193.749 175.202 193.925 174.688 194.029C174.18 194.14 173.564 194.195 172.842 194.195ZM172.402 184.459C171.543 184.459 170.856 184.739 170.342 185.299C169.834 185.859 169.535 186.633 169.443 187.623H175.039C175.039 186.601 174.811 185.82 174.355 185.279C173.9 184.732 173.249 184.459 172.402 184.459ZM188.232 185.982C188.232 186.679 188.031 187.21 187.627 187.574C187.23 187.932 186.67 188.173 185.947 188.297V188.385C186.859 188.508 187.523 188.775 187.939 189.186C188.363 189.596 188.574 190.162 188.574 190.885C188.574 191.881 188.206 192.649 187.471 193.189C186.742 193.73 185.674 194 184.268 194H179.551V183.297H184.248C186.904 183.297 188.232 184.192 188.232 185.982ZM186.953 190.777C186.953 190.198 186.732 189.778 186.289 189.518C185.853 189.251 185.127 189.117 184.111 189.117H181.172V192.643H184.15C186.019 192.643 186.953 192.021 186.953 190.777ZM186.65 186.139C186.65 185.618 186.449 185.25 186.045 185.035C185.648 184.814 185.042 184.703 184.229 184.703H181.172V187.721H183.916C184.919 187.721 185.625 187.597 186.035 187.35C186.445 187.102 186.65 186.699 186.65 186.139Z" fill="#FFAA75" style="fill:#FFAA75;fill:color(display-p3 1.0000 0.6666 0.4576);fill-opacity:1;"/>
<defs>
<linearGradient id="paint0_linear_12218_12615" x1="242" y1="88.5937" x2="311.351" y2="67.0592" gradientUnits="userSpaceOnUse">
<stop stop-color="#FFE270" style="stop-color:#FFE270;stop-color:color(display-p3 0.9987 0.8867 0.4387);stop-opacity:1;"/>
<stop offset="1" stop-color="#FFAA75" style="stop-color:#FFAA75;stop-color:color(display-p3 1.0000 0.6667 0.4588);stop-opacity:1;"/>
</linearGradient>
<linearGradient id="paint1_linear_12218_12615" x1="-2.41223e-06" y1="140.453" x2="207.97" y2="39.8598" gradientUnits="userSpaceOnUse">
<stop stop-color="#FFE270" style="stop-color:#FFE270;stop-color:color(display-p3 0.9987 0.8867 0.4387);stop-opacity:1;"/>
<stop offset="1" stop-color="#FFAA75" style="stop-color:#FFAA75;stop-color:color(display-p3 1.0000 0.6667 0.4588);stop-opacity:1;"/>
</linearGradient>
</defs>
</svg>
